{"glyphs":{"0":{"ha":803,"x_min":69,"x_max":723,"o":"m 521 13 q 493 -1 521 13 q 396 -15 465 -15 q 271 13 326 -15 q 178 87 215 40 q 116 201 141 135 q 80 345 91 268 q 69 510 69 422 q 87 714 69 621 q 143 880 106 806 q 245 996 181 954 q 396 1038 310 1038 q 547 996 482 1038 q 649 880 611 954 q 705 714 686 806 q 723 510 723 621 q 712 345 723 422 q 676 201 701 268 q 614 87 651 135 q 521 13 576 40 m 221 510 q 396 110 221 110 q 571 510 571 110 q 396 910 571 910 q 221 510 221 910 z "},"1":{"ha":592,"x_min":85,"x_max":429,"o":"m 429 1027 l 429 0 l 279 0 l 279 874 q 208 842 268 861 q 85 817 149 823 l 85 944 q 209 979 151 954 q 283 1027 267 1004 l 429 1027 z "},"2":{"ha":812,"x_min":74,"x_max":712,"o":"m 79 0 l 79 127 q 111 188 84 151 q 185 272 138 225 q 267 351 231 318 q 354 432 302 385 q 413 486 392 466 q 466 542 435 507 q 515 604 498 577 q 545 667 532 631 q 558 737 558 703 q 518 866 558 821 q 399 911 478 911 q 226 694 226 911 l 74 694 q 158 945 74 853 q 401 1038 242 1038 q 630 955 550 1038 q 709 735 709 872 q 688 626 709 680 q 629 523 667 572 q 557 440 590 474 q 478 367 524 406 q 319 219 376 278 q 251 126 261 160 l 712 126 l 712 0 l 79 0 z "},"3":{"ha":818,"x_min":83,"x_max":717,"o":"m 540 540 q 672 470 627 536 q 717 302 717 404 q 698 178 717 235 q 642 77 679 121 q 543 10 604 34 q 405 -15 483 -15 q 254 9 317 -15 q 154 78 191 33 q 100 182 117 123 q 83 317 83 241 l 83 320 l 235 320 l 235 317 q 277 156 235 201 q 407 110 320 110 q 524 159 482 110 q 565 306 565 208 q 558 373 565 344 q 532 427 550 403 q 480 465 514 452 q 396 478 445 478 l 358 478 l 358 592 l 396 592 q 526 638 488 592 q 565 754 565 684 q 524 873 565 834 q 409 911 483 911 q 280 867 325 911 q 235 718 235 822 l 83 718 q 164 950 83 863 q 406 1038 245 1038 q 638 960 559 1038 q 717 762 717 882 q 672 606 717 669 q 540 540 626 543 z "},"4":{"ha":794,"x_min":38,"x_max":737,"o":"m 456 0 l 456 219 l 38 219 l 38 333 l 403 1027 l 603 1027 l 603 343 l 737 343 l 737 219 l 603 219 l 603 0 l 456 0 m 456 343 l 456 850 l 198 343 l 456 343 z "},"5":{"ha":809,"x_min":82,"x_max":707,"o":"m 688 901 l 285 901 l 249 587 q 264 609 251 596 q 299 635 276 622 q 359 658 321 649 q 441 667 397 667 q 638 579 569 667 q 707 340 707 490 q 626 76 707 167 q 393 -15 544 -15 q 277 1 329 -15 q 189 45 224 17 q 128 113 153 74 q 93 198 104 152 q 82 294 82 243 l 82 297 l 231 297 l 231 294 q 395 110 233 110 q 514 167 472 110 q 556 337 556 224 q 518 493 556 439 q 408 547 481 547 q 299 512 344 547 q 237 434 253 477 l 92 471 l 161 1024 l 688 1024 l 688 901 z "},"6":{"ha":822,"x_min":91,"x_max":722,"o":"m 406 -15 q 266 18 326 -15 q 167 113 206 51 q 110 260 129 175 q 91 451 91 344 q 115 718 91 604 q 182 901 138 831 q 284 1004 226 970 q 417 1038 342 1038 q 528 1018 479 1038 q 607 970 578 999 q 654 903 635 941 q 680 833 673 865 q 686 769 686 800 l 686 766 l 545 766 l 545 769 q 540 818 545 795 q 521 863 534 840 q 481 899 508 885 q 416 913 453 913 q 241 576 265 913 q 443 657 317 657 q 648 566 574 657 q 722 332 722 476 q 640 81 722 176 q 406 -15 558 -15 m 408 110 q 529 166 488 110 q 571 322 571 221 q 531 477 571 419 q 418 536 490 536 q 293 483 341 536 q 244 339 244 429 q 289 175 244 240 q 408 110 334 110 z "},"7":{"ha":720,"x_min":60,"x_max":681,"o":"m 681 906 q 570 797 619 861 q 490 658 522 733 q 435 504 458 583 q 402 334 413 424 q 386 166 390 244 q 381 0 381 88 l 231 0 q 513 899 231 681 l 60 899 l 60 1024 l 681 1024 l 681 906 z "},"8":{"ha":865,"x_min":93,"x_max":768,"o":"m 678 69 q 633 27 678 69 q 431 -15 588 -15 q 183 69 274 -15 q 93 288 93 153 q 109 391 93 345 q 153 467 126 438 q 211 515 181 497 q 276 542 242 533 q 166 615 213 556 q 118 775 118 675 q 207 965 118 892 q 431 1038 296 1038 q 654 965 565 1038 q 743 775 743 892 q 729 680 743 723 q 691 609 715 637 q 641 565 667 582 q 585 542 614 548 q 650 515 619 533 q 708 467 681 497 q 752 391 735 438 q 768 288 768 344 q 678 69 768 153 m 310 644 q 333 623 310 644 q 431 601 356 601 q 551 644 506 601 q 597 760 597 688 q 550 874 597 836 q 431 911 503 911 q 311 874 358 911 q 264 760 264 837 q 310 644 264 688 m 431 110 q 562 157 510 110 q 613 291 613 203 q 563 427 613 376 q 431 479 513 479 q 298 427 348 479 q 248 291 248 376 q 299 157 248 203 q 431 110 350 110 z "},"9":{"ha":808,"x_min":86,"x_max":718,"o":"m 392 -15 q 280 5 329 -15 q 202 53 231 24 q 155 120 174 82 q 130 190 136 158 q 123 253 123 223 l 123 257 l 263 257 l 263 253 q 269 205 263 228 q 288 160 274 182 q 328 124 301 138 q 392 110 355 110 q 567 447 544 110 q 480 388 533 409 q 366 366 428 366 q 160 457 235 366 q 86 691 86 548 q 169 942 86 847 q 402 1038 251 1038 q 639 914 560 1038 q 718 572 718 790 q 631 129 718 272 q 392 -15 544 -15 m 391 487 q 516 541 467 487 q 565 684 565 594 q 520 848 565 783 q 401 913 475 913 q 280 858 321 913 q 238 701 238 803 q 278 545 238 604 q 391 487 319 487 z "},"\r":{"ha":628,"x_min":0,"x_max":0,"o":""}," ":{"ha":347,"x_min":0,"x_max":0,"o":""},"!":{"ha":408,"x_min":83,"x_max":267,"o":"m 250 1023 l 222 256 l 128 256 l 99 1023 l 250 1023 m 176 -19 q 110 8 137 -19 q 83 73 83 35 q 110 138 83 111 q 176 165 138 165 q 240 138 213 165 q 267 73 267 111 q 240 8 267 35 q 176 -19 213 -19 z "},"\"":{"ha":550,"x_min":85,"x_max":426,"o":"m 201 1024 l 185 718 l 100 718 l 85 1024 l 201 1024 m 426 1024 l 410 718 l 324 718 l 309 1024 l 426 1024 z "},"#":{"ha":1172,"x_min":42,"x_max":1091,"o":"m 65 404 l 283 404 l 336 619 l 102 619 l 125 715 l 360 715 l 437 1024 l 569 1024 l 492 715 l 737 715 l 813 1024 l 946 1024 l 869 715 l 1091 715 l 1069 619 l 845 619 l 792 404 l 1031 404 l 1008 308 l 768 308 l 692 0 l 560 0 l 636 308 l 391 308 l 315 0 l 183 0 l 259 308 l 42 308 l 65 404 m 415 404 l 660 404 l 713 619 l 468 619 l 415 404 z "},"$":{"ha":776,"x_min":66,"x_max":710,"o":"m 342 1024 l 428 1024 l 428 900 q 620 830 544 890 q 697 674 697 770 l 697 662 l 547 662 l 547 672 q 514 740 547 714 q 428 774 481 767 l 428 579 q 512 561 475 571 q 588 533 549 551 q 652 493 626 516 q 693 437 677 471 q 710 360 710 403 q 670 244 710 293 q 569 169 631 194 q 428 139 507 144 l 428 0 l 342 0 l 342 139 q 143 207 219 149 q 66 361 66 265 l 66 380 l 216 380 l 216 366 q 249 299 216 324 q 342 266 281 274 l 342 469 q 261 488 297 477 q 189 517 224 499 q 130 557 154 535 q 91 613 106 580 q 76 685 76 645 q 150 833 76 777 q 342 900 224 890 l 342 1024 m 224 690 q 253 633 224 654 q 342 597 283 612 l 342 774 q 257 747 290 767 q 224 690 224 726 m 563 354 q 531 416 563 394 q 428 453 499 438 l 428 265 q 525 293 488 270 q 563 354 563 315 z "},"%":{"ha":851,"x_min":19,"x_max":831,"o":"m 226 671 q 94 718 149 671 q 38 843 38 765 q 93 969 38 922 q 226 1016 149 1016 q 360 969 303 1016 q 416 843 416 922 q 360 718 416 765 q 226 671 303 671 m 831 960 l 76 33 l 19 81 l 776 1008 l 831 960 m 226 733 q 310 762 274 733 q 346 843 346 791 q 310 924 346 895 q 226 953 274 953 q 144 925 178 953 q 109 843 109 896 q 144 762 109 791 q 226 733 178 733 m 615 13 q 483 60 539 13 q 428 185 428 108 q 483 311 428 264 q 615 358 538 358 q 749 311 693 358 q 806 185 806 264 q 749 60 806 108 q 615 13 692 13 m 533 104 q 550 90 533 104 q 615 76 567 76 q 699 105 663 76 q 735 185 735 133 q 699 267 735 238 q 615 296 663 296 q 533 267 567 296 q 498 185 498 238 q 533 104 498 133 z "},"&":{"ha":997,"x_min":56,"x_max":906,"o":"m 408 -14 q 154 58 253 -14 q 56 253 56 129 q 116 415 56 344 q 303 560 177 485 q 214 697 246 633 q 181 827 181 760 q 254 976 181 917 q 433 1034 326 1034 q 608 976 540 1034 q 676 827 676 919 q 624 669 676 739 q 471 536 572 600 l 710 238 q 775 470 775 333 l 899 470 q 788 142 899 277 q 862 99 824 99 q 906 107 889 99 l 906 1 q 841 -10 885 -10 q 709 58 765 -10 l 703 66 q 408 -14 584 -14 m 308 820 q 332 730 308 776 q 405 619 356 683 q 555 819 555 712 q 520 904 555 874 q 434 934 485 934 q 345 904 383 934 q 308 820 308 874 m 194 260 q 256 141 194 188 q 408 94 318 94 q 631 156 545 94 l 370 476 q 237 371 280 420 q 194 260 194 322 z "},"'":{"ha":225,"x_min":51,"x_max":174,"o":"m 174 1024 l 156 718 l 68 718 l 51 1024 l 174 1024 z "},"(":{"ha":557,"x_min":131,"x_max":509,"o":"m 429 -324 q 393 -294 412 -311 q 344 -242 374 -277 q 286 -167 313 -207 q 230 -65 259 -126 q 180 63 201 -4 q 145 220 158 130 q 131 407 131 310 q 145 595 131 505 q 180 753 158 685 q 230 882 201 822 q 286 984 258 942 q 344 1059 314 1025 q 393 1110 374 1093 q 429 1139 413 1128 l 509 1055 q 460 1010 486 1038 q 397 925 433 982 q 332 800 360 868 q 283 627 303 731 q 263 407 263 524 q 274 244 263 322 q 301 108 285 167 q 341 -4 317 49 q 386 -94 365 -58 q 434 -162 408 -130 q 476 -210 459 -194 q 509 -240 493 -227 l 429 -324 z "},")":{"ha":564,"x_min":58,"x_max":436,"o":"m 138 -324 l 58 -240 q 91 -210 74 -227 q 134 -162 108 -194 q 181 -94 159 -130 q 226 -4 203 -58 q 266 108 250 49 q 293 244 283 167 q 304 407 304 322 q 284 627 304 524 q 236 800 264 731 q 171 925 208 868 q 108 1010 134 982 q 58 1055 81 1038 l 138 1139 q 174 1110 154 1128 q 224 1059 194 1093 q 281 984 253 1025 q 338 882 309 942 q 388 753 367 822 q 423 595 409 685 q 436 407 436 505 q 423 220 436 310 q 388 63 409 130 q 338 -65 367 -4 q 281 -167 308 -126 q 224 -242 254 -207 q 174 -294 193 -277 q 138 -324 156 -311 z "},"*":{"ha":640,"x_min":88,"x_max":522,"o":"m 368 831 l 474 710 l 409 667 l 306 804 l 201 667 l 137 710 l 242 831 l 88 883 l 123 947 l 269 891 l 265 1032 l 346 1032 l 342 891 l 488 947 l 522 883 l 368 831 z "},"+":{"ha":851,"x_min":158,"x_max":689,"o":"m 689 317 l 472 317 l 472 143 l 375 143 l 375 317 l 158 317 l 158 413 l 375 413 l 375 588 l 472 588 l 472 413 l 689 413 l 689 317 z "},",":{"ha":392,"x_min":84,"x_max":297,"o":"m 122 -200 l 100 -160 q 182 -94 142 -142 q 224 -6 222 -46 q 176 -19 203 -19 q 110 5 137 -19 q 84 70 84 28 q 113 138 84 112 q 189 163 142 163 q 268 132 239 163 q 297 46 297 100 q 243 -101 297 -31 q 122 -200 189 -172 z "},"-":{"ha":653,"x_min":58,"x_max":549,"o":"m 58 346 l 58 440 l 549 440 l 549 346 l 58 346 z "},".":{"ha":373,"x_min":94,"x_max":278,"o":"m 187 -19 q 121 8 148 -19 q 94 73 94 35 q 122 138 94 111 q 187 165 149 165 q 251 138 224 165 q 278 73 278 111 q 251 8 278 35 q 187 -19 224 -19 z "},"/":{"ha":615,"x_min":26,"x_max":572,"o":"m 572 1085 l 151 -108 l 26 -108 l 448 1085 l 572 1085 z "},":":{"ha":374,"x_min":94,"x_max":279,"o":"m 188 530 q 122 557 149 530 q 95 622 95 583 q 122 686 95 660 q 188 713 149 713 q 252 686 225 713 q 279 622 279 660 q 252 557 279 583 q 188 530 225 530 m 187 -19 q 121 8 148 -19 q 94 73 94 35 q 122 138 94 111 q 187 165 149 165 q 251 138 224 165 q 278 73 278 111 q 251 8 278 35 q 187 -19 224 -19 z "},";":{"ha":403,"x_min":94,"x_max":308,"o":"m 253 557 q 240 543 253 557 q 188 530 226 530 q 123 557 150 530 q 97 622 97 583 q 123 686 97 660 q 188 713 150 713 q 253 686 226 713 q 280 622 280 660 q 253 557 280 583 m 133 -203 l 111 -163 q 193 -96 153 -144 q 235 -9 233 -48 q 187 -22 214 -22 q 121 2 147 -22 q 94 67 94 26 q 124 135 94 109 q 199 160 153 160 q 279 129 250 160 q 308 43 308 97 q 254 -104 308 -34 q 133 -203 200 -174 z "},"<":{"ha":851,"x_min":201,"x_max":647,"o":"m 647 31 l 201 315 l 201 422 l 647 708 l 647 578 l 290 369 l 647 160 l 647 31 z "},"=":{"ha":851,"x_min":171,"x_max":677,"o":"m 677 440 l 171 440 l 171 535 l 677 535 l 677 440 m 677 200 l 171 200 l 171 296 l 677 296 l 677 200 z "},">":{"ha":851,"x_min":202,"x_max":648,"o":"m 202 708 l 648 422 l 648 315 l 202 31 l 202 160 l 558 369 l 202 578 l 202 708 z "},"?":{"ha":775,"x_min":67,"x_max":675,"o":"m 304 253 q 315 338 304 298 q 348 415 325 378 q 387 474 370 452 q 435 533 404 497 q 476 582 461 563 q 508 630 491 601 q 534 688 526 658 q 542 749 542 717 q 376 917 542 917 q 246 867 291 917 q 201 718 201 817 l 67 718 q 152 952 67 872 q 375 1032 237 1032 q 593 956 510 1032 q 675 740 675 881 q 664 656 675 695 q 630 582 653 617 q 589 525 607 547 q 538 470 571 504 q 493 421 509 439 q 458 374 478 403 q 430 316 439 345 q 422 253 422 286 l 304 253 m 371 -19 q 305 8 332 -19 q 278 73 278 35 q 306 138 278 111 q 371 165 333 165 q 436 138 409 165 q 463 73 463 111 q 436 8 463 35 q 371 -19 409 -19 z "},"@":{"ha":1355,"x_min":58,"x_max":1244,"o":"m 1078 81 q 873 15 1002 39 q 603 -10 744 -10 q 204 114 350 -10 q 58 457 58 237 q 143 753 58 621 q 380 960 228 885 q 722 1035 532 1035 q 944 1001 844 1035 q 1109 908 1044 967 q 1209 773 1174 849 q 1244 608 1244 696 q 1217 452 1244 525 q 1140 326 1190 380 q 1016 241 1091 272 q 851 210 941 210 q 728 286 729 210 l 728 290 q 669 235 711 256 q 569 215 627 215 q 409 279 464 215 q 355 453 355 343 q 443 701 355 603 q 667 799 532 799 q 764 776 726 799 q 803 723 803 753 l 819 783 l 922 783 l 819 363 q 817 344 817 351 q 883 290 817 290 q 982 309 938 290 q 1053 359 1026 328 q 1100 432 1081 390 q 1126 518 1118 474 q 1133 610 1133 562 q 1020 861 1133 767 q 713 956 908 956 q 490 918 592 956 q 318 813 388 880 q 209 655 248 747 q 169 456 169 563 q 288 169 169 269 q 608 69 407 69 q 835 90 725 69 q 1019 149 945 112 l 1078 81 m 587 294 q 714 380 692 294 q 773 622 720 399 q 776 647 776 640 q 753 702 776 681 q 681 723 731 723 q 527 642 588 723 q 465 449 465 562 q 497 334 465 375 q 587 294 528 294 z "},"A":{"ha":879,"x_min":49,"x_max":830,"o":"m 49 0 l 322 1026 l 559 1026 l 830 0 l 675 0 l 609 260 l 270 260 l 204 0 l 49 0 m 302 385 l 578 385 l 440 928 l 302 385 z "},"B":{"ha":859,"x_min":94,"x_max":781,"o":"m 456 1024 q 681 962 604 1024 q 758 779 758 900 q 740 677 758 723 q 691 601 722 631 q 623 555 660 572 q 546 536 585 538 q 630 520 590 535 q 705 478 670 506 q 760 400 740 450 q 781 285 781 351 q 699 75 781 149 q 451 0 617 0 l 94 0 l 94 1024 l 456 1024 m 418 899 l 239 899 l 239 594 l 397 594 q 553 635 498 594 q 608 755 608 677 q 418 899 608 899 m 422 125 q 574 168 519 125 q 628 294 628 212 q 610 376 628 341 q 562 431 593 411 q 492 460 531 451 q 405 469 453 469 l 239 469 l 239 125 l 422 125 z "},"C":{"ha":940,"x_min":66,"x_max":874,"o":"m 874 363 q 860 258 874 310 q 813 157 845 206 q 737 69 781 108 q 627 8 692 31 q 487 -15 563 -15 q 259 53 356 -15 q 115 239 163 121 q 66 512 66 357 q 115 785 66 667 q 259 970 163 903 q 487 1038 356 1038 q 635 1012 567 1038 q 749 943 703 986 q 824 848 794 900 q 865 738 853 796 q 874 662 874 697 l 723 662 q 719 704 723 681 q 645 850 707 792 q 487 908 584 908 q 292 806 364 908 q 219 512 219 704 q 292 217 219 319 q 487 114 364 114 q 588 135 542 114 q 662 191 633 156 q 707 271 691 226 q 723 363 723 315 l 874 363 z "},"D":{"ha":890,"x_min":94,"x_max":824,"o":"m 94 0 l 94 1024 l 375 1024 q 701 885 578 1024 q 824 513 824 747 q 701 140 824 280 q 375 0 578 0 l 94 0 m 357 899 l 245 899 l 245 125 l 357 125 q 583 231 495 125 q 670 513 670 336 q 583 795 670 690 q 357 899 495 899 z "},"E":{"ha":768,"x_min":94,"x_max":674,"o":"m 674 125 l 674 0 l 94 0 l 94 1024 l 674 1024 l 674 899 l 245 899 l 245 576 l 597 576 l 597 451 l 245 451 l 245 125 l 674 125 z "},"F":{"ha":740,"x_min":94,"x_max":674,"o":"m 613 441 l 244 441 l 244 0 l 94 0 l 94 1024 l 674 1024 l 674 899 l 244 899 l 244 566 l 613 566 l 613 441 z "},"G":{"ha":965,"x_min":66,"x_max":872,"o":"m 488 -15 q 323 21 399 -15 q 189 123 247 57 q 99 288 132 188 q 66 510 66 388 q 100 733 66 633 q 192 899 133 833 q 331 1001 251 965 q 503 1038 410 1038 q 643 1015 580 1038 q 748 956 707 992 q 818 873 790 919 q 859 781 847 826 q 872 692 872 735 l 872 683 l 725 683 l 725 692 q 711 769 725 731 q 671 838 697 807 q 601 889 644 869 q 503 908 557 908 q 393 884 444 908 q 303 813 343 860 q 241 688 263 765 q 218 510 218 610 q 232 362 218 428 q 272 250 247 295 q 332 173 297 204 q 408 128 367 142 q 495 114 449 114 q 593 129 549 114 q 665 170 638 144 q 710 223 693 195 q 733 282 727 251 l 733 376 l 499 376 l 499 494 l 869 494 l 869 0 l 772 0 l 761 114 q 738 80 754 99 q 690 39 721 62 q 606 1 659 16 q 488 -15 552 -15 z "},"H":{"ha":918,"x_min":94,"x_max":824,"o":"m 824 1024 l 824 0 l 674 0 l 674 448 l 244 448 l 244 0 l 94 0 l 94 1024 l 244 1024 l 244 574 l 674 574 l 674 1024 l 824 1024 z "},"I":{"ha":342,"x_min":97,"x_max":245,"o":"m 97 0 l 97 1024 l 245 1024 l 245 0 l 97 0 z "},"J":{"ha":772,"x_min":51,"x_max":678,"o":"m 365 -15 q 221 10 282 -15 q 124 80 160 34 q 69 186 87 125 q 51 326 51 247 l 51 368 l 200 368 l 200 340 q 239 175 200 235 q 365 114 278 114 q 490 176 452 114 q 527 352 527 238 l 527 1024 l 678 1024 l 678 332 q 661 194 678 255 q 610 85 645 133 q 512 11 574 38 q 365 -15 450 -15 z "},"K":{"ha":849,"x_min":94,"x_max":805,"o":"m 637 0 l 342 454 l 244 324 l 244 0 l 94 0 l 94 1024 l 244 1024 l 244 534 l 619 1024 l 781 1024 l 435 568 l 805 0 l 637 0 z "},"L":{"ha":699,"x_min":94,"x_max":641,"o":"m 94 0 l 94 1024 l 244 1024 l 244 128 l 641 128 l 641 0 l 94 0 z "},"M":{"ha":1178,"x_min":104,"x_max":1074,"o":"m 816 1024 l 1074 1024 l 1074 0 l 931 0 l 931 903 l 694 0 l 487 0 l 248 904 l 248 0 l 104 0 l 104 1024 l 362 1024 l 588 111 l 816 1024 z "},"N":{"ha":961,"x_min":94,"x_max":867,"o":"m 240 0 l 94 0 l 94 1024 l 334 1024 l 720 114 l 720 1024 l 867 1024 l 867 0 l 624 0 l 240 904 l 240 0 z "},"O":{"ha":985,"x_min":66,"x_max":919,"o":"m 661 21 q 622 3 661 21 q 492 -15 583 -15 q 323 21 401 -15 q 188 123 245 57 q 98 289 131 189 q 66 513 66 390 q 98 737 66 637 q 188 902 131 837 q 323 1002 245 967 q 492 1038 401 1038 q 663 1002 585 1038 q 798 902 740 967 q 887 737 855 837 q 919 513 919 637 q 887 289 919 390 q 797 123 854 189 q 661 21 740 57 m 492 114 q 691 215 616 114 q 766 513 766 316 q 691 809 766 710 q 492 908 616 908 q 294 809 369 908 q 219 513 219 710 q 294 215 219 316 q 492 114 369 114 z "},"P":{"ha":819,"x_min":94,"x_max":762,"o":"m 244 0 l 94 0 l 94 1024 l 402 1024 q 557 999 488 1024 q 671 927 626 973 q 739 822 715 882 q 762 692 762 762 q 738 559 762 622 q 669 450 714 497 q 556 375 625 403 q 402 348 487 348 l 244 348 l 244 0 m 385 899 l 244 899 l 244 473 l 385 473 q 552 532 493 473 q 610 692 610 590 q 553 846 610 792 q 385 899 497 899 z "},"Q":{"ha":985,"x_min":66,"x_max":919,"o":"m 748 -142 l 703 -244 q 676 -239 690 -242 q 634 -228 663 -237 q 582 -210 606 -220 q 529 -181 558 -199 q 480 -139 500 -162 q 444 -83 459 -117 q 427 -10 429 -49 q 165 152 265 15 q 66 513 66 290 q 98 737 66 637 q 188 902 131 837 q 323 1002 245 967 q 492 1038 401 1038 q 663 1002 585 1038 q 798 902 740 967 q 887 737 855 837 q 919 513 919 637 q 819 152 919 290 q 558 -10 719 15 q 580 -59 561 -36 q 620 -95 599 -82 q 671 -120 642 -109 q 716 -135 700 -131 q 748 -142 733 -139 m 492 114 q 691 215 616 114 q 766 513 766 316 q 691 809 766 710 q 492 908 616 908 q 294 809 369 908 q 219 513 219 710 q 294 215 219 316 q 492 114 369 114 z "},"R":{"ha":846,"x_min":94,"x_max":768,"o":"m 94 0 l 94 1024 l 469 1024 q 768 749 768 1024 q 750 642 768 692 q 703 561 731 592 q 643 511 674 530 q 581 489 611 492 q 640 476 613 486 q 691 445 667 465 q 728 391 715 426 q 742 311 742 357 l 742 91 q 760 0 742 22 l 608 0 q 592 91 592 26 l 592 293 q 553 392 592 358 q 439 425 514 425 l 241 425 l 241 0 l 94 0 m 433 899 l 241 899 l 241 550 l 440 550 q 564 602 514 550 q 613 737 613 653 q 433 899 613 899 z "},"S":{"ha":832,"x_min":66,"x_max":766,"o":"m 416 -15 q 158 64 251 -15 q 66 294 66 142 l 66 339 l 217 339 l 217 297 q 415 114 217 114 q 568 148 517 114 q 619 256 619 183 q 601 326 619 295 q 547 380 583 356 q 470 422 511 404 q 367 458 428 440 q 251 505 301 478 q 158 568 200 531 q 95 657 117 606 q 73 771 73 708 q 166 967 73 897 q 410 1038 258 1038 q 665 963 572 1038 q 758 744 758 888 l 758 696 l 607 696 l 607 738 q 559 868 607 826 q 413 909 510 909 q 219 771 219 909 q 232 712 219 739 q 265 666 245 685 q 320 629 285 647 q 388 598 355 610 q 469 569 420 585 q 594 519 543 544 q 685 458 644 494 q 746 373 726 422 q 766 261 766 325 q 672 58 766 131 q 416 -15 578 -15 z "},"T":{"ha":779,"x_min":51,"x_max":728,"o":"m 728 899 l 465 899 l 465 0 l 314 0 l 314 899 l 51 899 l 51 1024 l 728 1024 l 728 899 z "},"U":{"ha":913,"x_min":94,"x_max":819,"o":"m 819 375 q 724 83 819 181 q 456 -15 629 -15 q 188 83 283 -15 q 94 375 94 181 l 94 1024 l 244 1024 l 244 376 q 296 176 244 239 q 456 114 348 114 q 616 176 563 114 q 668 376 668 239 l 668 1024 l 819 1024 l 819 375 z "},"V":{"ha":858,"x_min":49,"x_max":809,"o":"m 319 -4 l 49 1024 l 215 1024 l 430 121 l 642 1024 l 809 1024 l 542 -4 l 319 -4 z "},"W":{"ha":1235,"x_min":56,"x_max":1180,"o":"m 214 0 l 56 1024 l 211 1024 l 331 115 l 521 1024 l 715 1024 l 904 116 l 1024 1024 l 1180 1024 l 1020 0 l 788 0 l 618 866 l 447 0 l 214 0 z "},"X":{"ha":856,"x_min":37,"x_max":819,"o":"m 650 0 l 428 390 l 206 0 l 37 0 l 338 507 l 45 1024 l 214 1024 l 428 624 l 640 1024 l 809 1024 l 519 508 l 819 0 l 650 0 z "},"Y":{"ha":828,"x_min":49,"x_max":778,"o":"m 778 1024 l 488 355 l 488 0 l 338 0 l 338 355 l 49 1024 l 208 1024 l 413 517 l 618 1024 l 778 1024 z "},"Z":{"ha":781,"x_min":69,"x_max":713,"o":"m 238 125 l 706 125 l 706 0 l 69 0 l 69 110 l 544 899 l 100 899 l 100 1024 l 713 1024 l 713 916 l 238 127 l 238 125 z "},"[":{"ha":578,"x_min":121,"x_max":465,"o":"m 465 1138 l 465 1028 l 256 1028 l 256 -194 l 465 -194 l 465 -303 l 121 -303 l 121 1138 l 465 1138 z "},"\\":{"ha":631,"x_min":26,"x_max":572,"o":"m 26 1085 l 151 1085 l 572 -108 l 448 -108 l 26 1085 z "},"]":{"ha":578,"x_min":103,"x_max":447,"o":"m 103 1138 l 447 1138 l 447 -303 l 103 -303 l 103 -193 l 311 -193 l 311 1028 l 103 1028 l 103 1138 z "},"^":{"ha":851,"x_min":84,"x_max":761,"o":"m 84 619 l 369 1065 l 476 1065 l 761 619 l 633 619 l 422 976 l 214 619 l 84 619 z "},"_":{"ha":942,"x_min":28,"x_max":900,"o":"m 28 -178 l 28 -77 l 900 -77 l 900 -178 l 28 -178 z "},"`":{"ha":475,"x_min":92,"x_max":386,"o":"m 386 849 l 274 849 l 92 1024 l 219 1024 l 386 849 z "},"a":{"ha":855,"x_min":76,"x_max":809,"o":"m 354 -15 q 152 44 228 -15 q 76 206 76 103 q 158 369 76 312 q 381 440 240 426 q 570 466 520 453 q 619 506 619 479 l 619 508 q 572 593 619 564 q 435 622 524 622 q 239 485 239 622 l 91 485 q 186 679 91 609 q 435 749 281 749 q 604 722 530 749 q 724 637 678 694 q 770 499 770 579 l 770 147 q 780 55 770 87 q 809 0 791 17 l 659 0 q 633 49 645 14 q 624 84 628 65 q 514 12 584 38 q 354 -15 443 -15 m 385 110 q 554 159 488 110 q 620 299 620 208 l 620 363 q 415 329 551 343 q 271 295 316 320 q 226 217 226 271 q 385 110 226 110 z "},"b":{"ha":891,"x_min":99,"x_max":823,"o":"m 99 0 l 99 1085 l 250 1085 l 250 647 q 357 723 296 696 q 487 749 419 749 q 615 724 555 749 q 722 652 676 699 q 796 532 769 605 q 823 370 823 459 q 796 205 823 279 q 723 84 769 131 q 616 11 677 36 q 487 -15 556 -15 q 358 13 419 -15 q 250 91 296 41 l 250 0 l 99 0 m 458 617 q 313 560 375 617 q 250 418 250 502 l 250 323 q 312 181 250 239 q 458 122 374 122 q 609 186 551 122 q 668 370 668 249 q 610 555 668 492 q 458 617 551 617 z "},"c":{"ha":876,"x_min":69,"x_max":808,"o":"m 456 -15 q 177 91 286 -15 q 69 370 69 196 q 177 646 69 543 q 456 749 286 749 q 605 724 537 749 q 716 657 673 698 q 784 566 760 616 q 808 465 808 516 l 808 460 l 659 460 l 657 477 q 594 580 648 540 q 455 619 540 619 q 288 555 354 619 q 222 370 222 490 q 288 183 222 250 q 455 115 355 115 q 603 159 551 115 q 659 271 654 203 l 808 271 q 785 169 808 219 q 719 77 762 119 q 607 11 676 36 q 456 -15 539 -15 z "},"d":{"ha":887,"x_min":69,"x_max":792,"o":"m 404 -15 q 275 11 335 -15 q 168 84 214 36 q 95 205 122 131 q 69 370 69 279 q 96 532 69 459 q 169 652 123 605 q 276 724 216 699 q 404 749 336 749 q 534 723 472 749 q 641 647 595 696 l 641 1085 l 792 1085 l 792 0 l 641 0 l 641 90 q 535 13 597 40 q 404 -15 474 -15 m 434 122 q 580 182 519 122 q 641 328 641 241 l 641 418 q 579 560 641 502 q 434 617 517 617 q 282 555 340 617 q 224 370 224 492 q 282 186 224 249 q 434 122 340 122 z "},"e":{"ha":900,"x_min":69,"x_max":831,"o":"m 821 232 q 791 143 817 186 q 720 64 765 99 q 607 6 676 28 q 455 -15 538 -15 q 176 91 283 -15 q 69 367 69 198 q 177 643 69 537 q 456 749 285 749 q 729 644 626 749 q 831 370 831 538 q 828 316 831 334 l 219 316 q 296 165 233 219 q 460 111 358 111 q 612 147 559 111 q 671 232 665 183 l 821 232 m 457 624 q 301 574 363 624 q 222 433 238 523 l 674 433 q 611 570 667 516 q 457 624 555 624 z "},"f":{"ha":578,"x_min":31,"x_max":556,"o":"m 190 0 l 190 613 l 31 613 l 31 738 l 190 738 l 190 818 q 211 942 190 888 q 272 1029 233 996 q 361 1079 311 1062 q 469 1096 411 1096 q 556 1083 527 1096 l 556 958 q 485 967 525 967 q 412 955 442 967 q 367 917 382 942 q 345 865 351 892 q 340 800 340 837 l 340 738 l 549 738 l 549 613 l 340 613 l 340 0 l 190 0 z "},"g":{"ha":856,"x_min":44,"x_max":812,"o":"m 583 59 q 738 11 683 50 q 793 -107 793 -27 q 695 -260 793 -204 q 413 -316 597 -316 q 139 -264 235 -316 q 44 -122 44 -212 q 65 -40 44 -74 l 206 -60 q 191 -114 191 -79 q 419 -205 191 -205 q 593 -182 534 -205 q 652 -116 652 -158 q 645 -89 652 -100 q 630 -71 639 -78 q 602 -60 620 -65 q 570 -54 584 -56 q 531 -50 556 -52 l 251 -27 q 132 17 178 -21 q 86 111 86 55 q 111 189 86 151 q 167 244 135 226 q 74 453 74 323 q 168 666 74 582 q 408 749 262 749 q 558 719 491 749 q 663 640 626 688 l 675 738 l 812 738 l 756 449 q 718 336 744 387 q 653 246 693 285 q 553 185 613 207 q 418 164 493 164 q 255 192 326 164 q 225 141 225 168 q 246 101 225 115 q 322 82 267 86 l 583 59 m 417 287 q 561 331 509 287 q 613 456 613 375 q 560 580 613 534 q 418 625 508 625 q 277 578 331 625 q 222 453 222 531 q 274 331 222 375 q 417 287 326 287 z "},"h":{"ha":867,"x_min":99,"x_max":775,"o":"m 99 0 l 99 1085 l 249 1085 l 249 646 q 356 722 292 694 q 494 749 419 749 q 701 670 627 749 q 775 449 775 590 l 775 0 l 624 0 l 624 411 q 583 563 624 513 q 451 613 541 613 q 304 561 359 613 q 249 426 249 508 l 249 0 l 99 0 z "},"i":{"ha":351,"x_min":81,"x_max":270,"o":"m 176 890 q 108 912 135 890 q 81 970 81 934 q 108 1028 81 1006 q 176 1049 135 1049 q 243 1028 215 1049 q 270 970 270 1006 q 243 912 270 933 q 176 890 215 890 m 101 0 l 101 738 l 249 738 l 249 0 l 101 0 z "},"j":{"ha":362,"x_min":-83,"x_max":281,"o":"m 254 912 q 240 901 254 912 q 186 890 226 890 q 118 912 146 890 q 91 970 91 934 q 118 1028 91 1006 q 186 1049 146 1049 q 254 1028 226 1049 q 281 970 281 1006 q 254 912 281 934 m -18 -312 q -83 -308 -59 -312 l -83 -194 q -18 -201 -54 -201 q 40 -192 15 -201 q 77 -170 64 -183 q 97 -137 90 -158 q 107 -100 105 -117 q 108 -61 108 -83 l 108 738 l 259 738 l 259 -66 q 254 -139 259 -107 q 232 -205 249 -171 q 185 -261 215 -239 q 104 -298 156 -283 q -18 -312 53 -312 z "},"k":{"ha":741,"x_min":99,"x_max":724,"o":"m 99 0 l 99 1085 l 242 1085 l 242 484 l 534 738 l 724 738 l 417 467 l 724 0 l 563 0 l 322 381 l 242 311 l 242 0 l 99 0 z "},"l":{"ha":360,"x_min":109,"x_max":258,"o":"m 258 1085 l 258 0 l 109 0 l 109 1085 l 258 1085 z "},"m":{"ha":1251,"x_min":99,"x_max":1159,"o":"m 99 0 l 99 738 l 249 738 l 249 642 q 465 749 328 749 q 683 613 631 749 q 779 713 718 676 q 917 749 840 749 q 1098 678 1038 749 q 1159 487 1159 608 l 1159 0 l 1009 0 l 1009 440 q 1007 488 1009 468 q 998 533 1006 508 q 976 574 990 558 q 936 602 963 590 q 872 613 909 613 q 792 595 826 613 q 740 545 758 576 q 713 480 722 515 q 704 408 704 446 l 704 0 l 555 0 l 555 438 q 553 485 555 465 q 543 531 551 505 q 522 573 535 556 q 482 601 508 590 q 420 613 456 613 q 355 601 384 613 q 306 568 325 588 q 273 519 286 547 q 255 462 260 492 q 249 400 249 432 l 249 0 l 99 0 z "},"n":{"ha":866,"x_min":99,"x_max":774,"o":"m 99 0 l 99 738 l 249 738 l 249 628 q 358 717 293 685 q 497 749 422 749 q 700 675 626 749 q 774 472 774 600 l 774 0 l 624 0 l 624 430 q 450 613 624 613 q 307 552 365 613 q 249 402 249 492 l 249 0 l 99 0 z "},"o":{"ha":910,"x_min":69,"x_max":841,"o":"m 733 94 q 679 40 733 94 q 455 -14 625 -14 q 177 94 285 -14 q 69 369 69 201 q 176 642 69 536 q 455 749 284 749 q 733 642 626 749 q 841 369 841 536 q 733 94 841 201 m 285 185 q 318 150 285 185 q 455 115 350 115 q 625 185 560 115 q 690 369 690 255 q 625 551 690 483 q 455 619 560 619 q 285 551 350 619 q 220 369 220 483 q 285 185 220 255 z "},"p":{"ha":891,"x_min":99,"x_max":823,"o":"m 99 -303 l 99 738 l 249 738 l 249 647 q 357 722 295 695 q 487 749 419 749 q 615 724 555 749 q 722 652 676 699 q 796 532 769 605 q 823 370 823 459 q 796 205 823 279 q 723 84 769 131 q 616 11 677 36 q 487 -15 556 -15 q 357 14 419 -15 q 249 92 295 42 l 249 -303 l 99 -303 m 250 323 q 312 181 250 239 q 458 122 374 122 q 609 186 551 122 q 668 370 668 249 q 610 555 668 492 q 458 617 551 617 q 313 560 375 617 q 250 418 250 502 l 249 418 l 249 330 l 250 330 l 250 323 z "},"q":{"ha":886,"x_min":69,"x_max":792,"o":"m 404 -15 q 275 11 335 -15 q 168 84 214 36 q 95 205 122 131 q 69 370 69 279 q 96 532 69 459 q 169 652 123 605 q 276 724 216 699 q 404 749 336 749 q 534 723 472 749 q 641 647 595 696 l 641 738 l 792 738 l 792 -303 l 641 -303 l 641 90 q 535 13 597 40 q 404 -15 474 -15 m 434 122 q 580 182 519 122 q 641 328 641 241 l 641 418 q 579 560 641 502 q 434 617 517 617 q 282 555 340 617 q 224 370 224 492 q 282 186 224 249 q 434 122 340 122 z "},"r":{"ha":585,"x_min":99,"x_max":563,"o":"m 99 0 l 99 738 l 249 738 l 249 640 q 458 749 317 749 q 526 743 497 749 q 563 731 555 737 l 531 590 q 444 610 502 610 q 350 590 390 610 q 289 536 310 569 q 259 465 268 502 q 249 385 249 427 l 249 0 l 99 0 z "},"s":{"ha":781,"x_min":69,"x_max":713,"o":"m 389 -15 q 228 10 299 -15 q 113 87 156 35 q 69 209 69 138 l 69 228 l 219 228 l 219 214 q 265 138 219 164 q 393 111 310 111 q 517 134 469 111 q 565 202 565 158 q 520 272 565 249 q 365 313 475 294 q 279 331 318 321 q 202 360 240 342 q 138 401 163 378 q 95 457 112 424 q 79 533 79 491 q 167 692 79 634 q 390 749 256 749 q 543 723 474 749 q 656 645 613 697 q 699 522 699 592 l 699 510 l 550 510 l 550 519 q 503 597 550 570 q 390 624 457 624 q 332 620 360 624 q 281 606 305 615 q 242 578 256 596 q 227 538 227 561 q 240 496 227 513 q 282 466 253 478 q 342 445 310 453 q 424 428 374 438 q 510 410 472 420 q 587 383 547 401 q 653 343 626 365 q 696 286 679 320 q 713 208 713 251 q 666 83 713 135 q 549 9 620 32 q 389 -15 477 -15 z "},"t":{"ha":629,"x_min":31,"x_max":584,"o":"m 414 -12 q 208 182 208 -12 l 208 613 l 31 613 l 31 738 l 124 738 q 158 738 147 738 q 181 742 169 738 q 196 751 192 747 q 203 770 200 756 q 207 798 207 783 q 208 839 208 812 l 208 981 l 358 981 l 358 738 l 584 738 l 584 613 l 358 613 l 358 232 q 373 141 358 170 q 434 113 388 113 q 502 124 476 113 l 502 1 q 414 -12 465 -12 z "},"u":{"ha":849,"x_min":99,"x_max":757,"o":"m 367 -13 q 259 5 307 -13 q 182 52 211 23 q 133 120 152 81 q 106 198 114 159 q 99 280 99 238 l 99 738 l 250 738 l 250 318 q 411 120 250 120 q 513 156 467 120 q 583 244 559 192 q 606 352 606 297 l 606 738 l 757 738 l 757 0 l 606 0 l 606 109 q 504 19 565 52 q 367 -13 443 -13 z "},"v":{"ha":751,"x_min":33,"x_max":717,"o":"m 717 738 l 478 0 l 278 0 l 33 738 l 189 738 l 378 103 l 562 738 l 717 738 z "},"w":{"ha":1090,"x_min":33,"x_max":1056,"o":"m 190 0 l 33 738 l 190 738 l 299 114 l 463 738 l 626 738 l 792 114 l 900 738 l 1056 738 l 901 0 l 693 0 l 544 578 l 399 0 l 190 0 z "},"x":{"ha":776,"x_min":31,"x_max":741,"o":"m 576 0 l 387 265 l 192 0 l 31 0 l 310 363 l 41 738 l 206 738 l 392 473 l 575 738 l 737 738 l 474 376 l 741 0 l 576 0 z "},"y":{"ha":742,"x_min":42,"x_max":708,"o":"m 134 -314 q 49 -305 69 -314 l 49 -182 q 124 -192 70 -192 q 277 -62 233 -192 l 296 -6 l 42 738 l 199 738 l 378 144 l 553 738 l 708 738 l 444 -54 q 411 -139 428 -103 q 369 -209 394 -174 q 312 -266 343 -244 q 235 -301 281 -287 q 134 -314 190 -314 z "},"z":{"ha":687,"x_min":49,"x_max":638,"o":"m 638 128 l 638 0 l 49 0 l 49 123 l 463 609 l 65 609 l 65 738 l 631 738 l 631 615 l 218 128 l 638 128 z "},"{":{"ha":575,"x_min":106,"x_max":499,"o":"m 499 1028 q 397 990 433 1028 q 360 876 360 951 l 360 582 q 230 412 360 441 q 360 241 360 383 l 360 -74 q 499 -213 360 -213 l 499 -324 q 219 -117 219 -324 l 219 206 q 195 314 219 280 q 106 363 172 347 l 106 459 q 195 509 171 475 q 219 617 219 543 l 219 920 q 257 1046 219 996 q 356 1118 294 1097 q 499 1140 417 1140 l 499 1028 z "},"|":{"ha":416,"x_min":126,"x_max":245,"o":"m 126 -194 l 126 1079 l 245 1079 l 245 -194 l 126 -194 z "},"}":{"ha":575,"x_min":78,"x_max":472,"o":"m 78 1028 l 78 1140 q 222 1118 160 1140 q 322 1046 283 1097 q 360 920 360 996 l 360 617 q 383 509 360 542 q 472 459 406 475 l 472 363 q 383 314 406 347 q 360 206 360 280 l 360 -117 q 78 -324 360 -324 l 78 -213 q 182 -180 147 -213 q 218 -74 218 -147 l 218 241 q 348 412 218 383 q 218 582 218 441 l 218 876 q 182 990 218 951 q 78 1028 145 1028 z "},"~":{"ha":851,"x_min":212,"x_max":632,"o":"m 632 503 q 624 461 631 482 q 603 420 617 440 q 566 388 590 401 q 511 376 542 376 q 413 416 465 376 q 344 447 372 447 q 295 393 298 447 l 212 393 q 248 481 214 441 q 340 522 282 522 q 435 483 385 522 q 503 449 477 449 q 550 503 546 449 l 632 503 z "}," ":{"ha":347,"x_min":0,"x_max":0,"o":""},"¡":{"ha":408,"x_min":119,"x_max":303,"o":"m 211 751 q 277 724 250 751 q 303 659 303 697 q 276 594 303 621 q 211 567 249 567 q 147 594 174 567 q 119 659 119 621 q 147 724 119 697 q 211 751 174 751 m 137 -291 l 165 476 l 259 476 l 288 -291 l 137 -291 z "},"¢":{"ha":876,"x_min":69,"x_max":808,"o":"m 413 1024 l 485 1024 l 485 896 q 622 864 559 892 q 724 797 684 837 q 786 708 764 756 q 808 613 808 660 l 808 608 l 659 608 l 657 624 q 603 720 649 681 q 485 765 557 758 l 485 264 q 611 314 567 271 q 659 418 655 356 l 808 418 q 787 320 808 369 q 726 232 765 272 q 624 165 687 192 q 485 133 561 138 l 485 0 l 413 0 l 413 135 q 164 252 260 149 q 69 517 69 355 q 164 780 69 679 q 413 894 259 881 l 413 1024 m 274 687 q 248 655 274 687 q 222 517 222 624 q 275 345 222 411 q 413 266 328 280 l 413 764 q 274 687 327 750 z "},"£":{"ha":802,"x_min":41,"x_max":732,"o":"m 41 405 l 41 499 l 173 499 q 154 545 169 508 q 134 599 139 583 q 119 645 128 614 q 106 704 109 676 q 102 761 102 731 q 189 957 102 878 q 413 1035 275 1035 q 511 1024 465 1035 q 587 997 556 1013 q 643 956 618 980 q 684 911 669 933 q 710 867 699 890 l 617 804 q 547 891 594 856 q 425 926 501 926 q 287 877 337 926 q 238 755 238 828 q 249 672 238 711 q 282 583 260 633 q 313 499 303 533 l 532 499 l 532 405 l 333 405 q 339 316 339 363 q 283 131 339 218 q 353 147 317 147 q 468 122 406 147 q 573 98 531 98 q 636 107 607 98 q 680 124 666 116 l 732 15 q 576 -18 665 -18 q 440 8 522 -18 q 310 34 358 34 q 140 -5 230 34 q 126 -12 133 -9 l 66 76 q 94 94 78 82 q 132 127 110 106 q 170 175 153 149 q 200 239 188 201 q 213 315 213 276 q 202 405 213 358 l 41 405 z "},"¤":{"ha":924,"x_min":44,"x_max":919,"o":"m 113 67 l 44 137 l 166 258 q 97 488 97 356 q 164 713 97 617 l 44 833 l 113 902 l 231 784 q 483 867 333 867 q 734 786 631 867 l 850 902 l 919 833 l 801 715 q 869 488 869 619 q 799 256 869 356 l 919 137 l 850 67 l 731 185 q 483 105 629 105 q 233 188 335 105 l 113 67 m 314 304 q 346 269 314 304 q 483 234 378 234 q 653 304 588 234 q 718 488 718 374 q 653 670 718 602 q 483 738 588 738 q 314 670 378 738 q 249 488 249 602 q 314 304 249 374 z "},"¥":{"ha":828,"x_min":49,"x_max":778,"o":"m 126 166 l 126 260 l 338 260 l 338 351 l 125 351 l 125 444 l 299 444 l 49 1024 l 208 1024 l 413 517 l 618 1024 l 778 1024 l 527 444 l 706 444 l 706 351 l 488 351 l 488 260 l 707 260 l 707 166 l 488 166 l 488 0 l 338 0 l 338 166 l 126 166 z "},"¦":{"ha":416,"x_min":126,"x_max":245,"o":"m 126 549 l 126 1079 l 245 1079 l 245 549 l 126 549 m 126 -179 l 126 352 l 245 352 l 245 -179 l 126 -179 z "},"§":{"ha":900,"x_min":85,"x_max":767,"o":"m 433 -211 q 225 -155 301 -211 q 149 8 149 -99 l 149 26 l 278 26 l 278 8 q 293 -63 278 -34 q 333 -107 308 -92 q 382 -126 358 -121 q 435 -132 407 -132 q 548 -100 506 -132 q 590 -9 590 -69 q 577 38 590 15 q 545 78 563 61 q 492 114 526 94 q 433 145 458 133 q 366 174 408 156 q 305 201 328 191 q 248 229 281 212 q 194 261 215 247 q 150 298 174 276 q 115 341 127 319 q 93 391 102 363 q 85 452 85 420 q 127 579 85 523 q 230 667 170 635 q 134 822 134 738 q 212 976 134 920 q 419 1032 290 1032 q 627 976 551 1032 q 703 814 703 921 l 703 796 l 574 796 l 574 814 q 564 873 574 848 q 538 914 553 899 q 500 938 522 928 q 459 950 478 947 q 417 953 439 953 q 304 921 346 953 q 262 830 262 890 q 275 783 262 806 q 308 743 289 760 q 360 708 326 726 q 419 677 393 689 q 486 647 445 665 q 572 609 540 625 q 647 567 605 594 q 711 515 688 541 q 751 451 735 489 q 767 369 767 413 q 725 242 767 299 q 623 154 682 186 q 718 -1 718 83 q 640 -155 718 -99 q 433 -211 563 -211 m 426 258 q 551 199 508 222 q 658 357 658 259 q 645 409 658 384 q 614 453 633 434 q 561 493 594 473 q 499 528 528 514 q 426 563 469 543 q 302 622 341 601 q 194 464 194 563 q 211 401 194 430 q 264 346 228 372 q 335 302 299 321 q 426 258 372 283 z "},"¨":{"ha":547,"x_min":40,"x_max":508,"o":"m 128 888 q 65 908 91 888 q 40 962 40 928 q 65 1015 40 995 q 128 1035 91 1035 q 190 1015 164 1035 q 215 962 215 995 q 190 908 215 928 q 128 888 164 888 m 482 908 q 469 898 482 908 q 419 888 456 888 q 357 908 383 888 q 332 962 332 928 q 357 1015 332 995 q 419 1035 383 1035 q 482 1015 456 1035 q 508 962 508 995 q 482 908 508 928 z "},"©":{"ha":1203,"x_min":70,"x_max":1069,"o":"m 571 19 q 373 55 465 19 q 214 153 281 90 q 108 309 147 216 q 70 515 70 403 q 108 719 70 626 q 214 875 147 812 q 373 973 281 938 q 571 1008 465 1008 q 768 973 676 1008 q 926 875 860 938 q 1031 719 993 812 q 1069 515 1069 626 q 1031 309 1069 403 q 926 153 993 216 q 768 55 860 90 q 571 19 676 19 m 571 76 q 795 129 695 76 q 953 283 894 182 q 1012 515 1012 383 q 953 745 1012 645 q 794 899 894 846 q 571 952 694 952 q 346 899 447 952 q 187 745 246 846 q 128 515 128 645 q 187 283 128 383 q 346 129 246 182 q 571 76 446 76 m 572 182 q 454 203 509 182 q 357 266 399 225 q 291 371 315 306 q 267 516 267 435 q 349 759 267 671 q 572 847 431 847 q 678 830 630 847 q 759 787 727 813 q 813 728 790 761 q 844 664 835 695 q 854 606 854 633 l 854 595 l 743 595 l 743 602 q 734 648 743 623 q 708 699 726 672 q 654 742 690 725 q 572 759 619 759 q 429 697 478 759 q 379 517 379 635 q 431 334 379 399 q 572 270 483 270 q 695 318 648 270 q 743 434 743 366 l 854 434 q 774 252 854 322 q 572 182 694 182 z "},"ª":{"ha":465,"x_min":69,"x_max":396,"o":"m 199 702 q 105 727 140 702 q 69 794 69 751 q 106 859 69 838 q 212 890 143 881 q 297 906 274 898 q 319 927 319 914 l 319 928 q 238 978 319 978 q 142 918 142 978 l 78 918 q 122 1002 78 972 q 238 1032 166 1032 q 345 1005 305 1032 q 385 924 385 978 l 385 783 q 396 707 385 732 l 330 707 q 321 742 326 717 q 199 702 274 702 m 137 797 q 216 756 137 756 q 283 775 252 756 q 319 825 313 794 l 319 868 q 223 844 279 852 q 156 827 175 837 q 137 797 137 818 z "},"«":{"ha":569,"x_min":21,"x_max":549,"o":"m 336 615 l 109 392 l 336 174 l 245 174 l 21 392 l 245 615 l 336 615 m 549 615 l 323 392 l 548 174 l 458 174 l 233 392 l 458 615 l 549 615 z "},"¬":{"ha":851,"x_min":167,"x_max":672,"o":"m 577 226 l 577 406 l 167 406 l 167 500 l 672 500 l 672 226 l 577 226 z "},"­":{"ha":509,"x_min":58,"x_max":406,"o":"m 58 346 l 58 440 l 406 440 l 406 346 l 58 346 z "},"®":{"ha":846,"x_min":56,"x_max":773,"o":"m 415 344 q 233 388 315 344 q 104 510 151 431 q 56 687 56 589 q 160 932 56 835 q 415 1029 263 1029 q 670 932 567 1029 q 773 687 773 835 q 725 510 773 589 q 596 388 678 431 q 415 344 515 344 m 415 392 q 635 473 551 392 q 719 687 719 554 q 635 900 719 819 q 415 981 551 981 q 194 900 279 981 q 110 687 110 819 q 194 473 110 554 q 415 392 279 392 m 281 485 l 281 897 l 424 897 q 561 786 561 897 q 539 718 561 742 q 478 691 516 694 q 547 619 547 685 l 547 533 q 555 485 547 493 l 494 485 q 488 533 488 510 l 488 601 q 481 636 488 622 q 459 656 474 650 q 431 663 444 661 q 398 664 419 664 l 341 664 l 341 485 l 281 485 m 341 713 l 406 713 q 480 733 455 713 q 504 785 504 752 q 484 834 504 819 q 424 849 464 849 l 341 849 l 341 713 z "},"¯":{"ha":556,"x_min":85,"x_max":469,"o":"m 85 908 l 85 974 l 469 974 l 469 908 l 85 908 z "},"°":{"ha":460,"x_min":75,"x_max":360,"o":"m 217 778 q 117 819 159 778 q 75 920 75 861 q 117 1020 75 978 q 217 1063 159 1063 q 318 1020 276 1063 q 360 920 360 978 q 318 819 360 861 q 217 778 276 778 m 217 846 q 270 867 249 846 q 292 920 292 889 q 270 972 292 951 q 217 994 249 994 q 165 972 187 994 q 144 920 144 951 q 165 867 144 889 q 217 846 187 846 z "},"±":{"ha":851,"x_min":158,"x_max":689,"o":"m 689 449 l 472 449 l 472 274 l 375 274 l 375 449 l 158 449 l 158 544 l 375 544 l 375 719 l 472 719 l 472 544 l 689 544 l 689 449 m 163 120 l 163 215 l 682 215 l 682 120 l 163 120 z "},"²":{"ha":649,"x_min":63,"x_max":565,"o":"m 67 410 l 67 513 q 274 674 78 563 q 334 712 309 695 q 385 751 359 729 q 425 797 412 774 q 439 844 439 820 q 408 913 439 888 q 319 938 378 938 q 187 816 187 938 l 63 816 q 129 975 63 917 q 321 1033 195 1033 q 500 982 438 1033 q 563 846 563 930 q 551 789 563 817 q 522 742 538 761 q 476 700 506 722 q 427 665 447 677 q 375 634 408 653 q 226 501 232 545 l 565 501 l 565 410 l 67 410 z "},"³":{"ha":654,"x_min":70,"x_max":569,"o":"m 439 733 q 569 591 569 730 q 507 454 569 508 q 324 399 444 399 q 130 456 190 399 q 70 606 70 513 l 70 608 l 194 608 l 194 606 q 227 520 194 545 q 325 494 260 494 q 413 523 381 494 q 445 602 445 551 q 415 664 445 640 q 327 689 385 689 l 301 689 l 301 770 l 327 770 q 415 794 385 770 q 445 853 445 817 q 413 917 445 894 q 327 939 381 939 q 194 835 194 939 l 70 835 q 134 977 70 921 q 325 1033 199 1033 q 508 986 446 1033 q 569 866 569 940 q 538 773 569 810 q 439 733 506 735 z "},"´":{"ha":422,"x_min":49,"x_max":342,"o":"m 49 849 l 215 1024 l 342 1024 l 160 849 l 49 849 z "},"µ":{"ha":831,"x_min":92,"x_max":739,"o":"m 588 0 l 588 103 q 504 18 556 49 q 387 -12 453 -12 q 243 69 276 -12 l 243 -303 l 92 -303 l 92 738 l 243 738 l 243 318 q 249 240 243 274 q 270 176 255 207 q 317 128 285 145 q 393 112 348 112 q 534 173 479 112 q 588 319 588 235 l 588 738 l 739 738 l 739 0 l 588 0 z "},"¶":{"ha":856,"x_min":92,"x_max":755,"o":"m 453 -118 l 453 414 l 438 414 q 278 440 347 414 q 170 510 210 466 q 111 608 131 555 q 92 722 92 661 q 102 809 92 767 q 138 890 113 850 q 202 959 163 930 q 301 1005 240 988 q 438 1023 361 1023 l 755 1023 l 755 -118 l 649 -118 l 649 929 l 558 929 l 558 -118 l 453 -118 z "},"·":{"ha":373,"x_min":94,"x_max":278,"o":"m 187 422 q 122 448 149 422 q 94 513 94 475 q 122 578 94 551 q 187 605 149 605 q 251 578 224 605 q 278 513 278 551 q 251 448 278 475 q 187 422 224 422 z "},"¸":{"ha":599,"x_min":151,"x_max":451,"o":"m 353 -63 q 422 -90 392 -63 q 451 -167 451 -117 q 401 -260 451 -228 q 279 -293 351 -293 q 203 -284 241 -293 q 151 -264 165 -274 l 182 -205 q 225 -224 197 -215 q 285 -233 253 -233 q 354 -215 327 -233 q 381 -164 381 -197 q 367 -124 381 -137 q 328 -111 353 -111 q 292 -118 310 -111 q 266 -137 274 -125 l 203 -119 l 251 0 l 324 0 l 293 -77 q 353 -63 321 -63 z "},"¹":{"ha":477,"x_min":38,"x_max":312,"o":"m 312 1025 l 312 410 l 188 410 l 188 910 q 131 882 177 899 q 38 862 85 864 l 38 951 q 132 980 87 956 q 190 1025 178 1003 l 312 1025 z "},"º":{"ha":549,"x_min":93,"x_max":444,"o":"m 267 706 q 144 750 196 706 q 93 867 93 794 q 144 984 93 940 q 267 1028 196 1028 q 392 984 340 1028 q 444 867 444 940 q 392 750 444 794 q 267 706 340 706 m 191 791 q 207 778 191 791 q 267 765 223 765 q 345 791 312 765 q 379 867 379 818 q 345 942 379 915 q 267 969 312 969 q 191 943 223 969 q 158 867 158 916 q 191 791 158 818 z "},"»":{"ha":551,"x_min":21,"x_max":531,"o":"m 214 615 l 304 615 l 531 392 l 304 174 l 214 174 l 442 392 l 214 615 m 21 615 l 112 615 l 338 392 l 113 174 l 22 174 l 248 392 l 21 615 z "},"¼":{"ha":1281,"x_min":38,"x_max":1224,"o":"m 312 1025 l 312 410 l 188 410 l 188 910 q 131 882 177 899 q 38 862 85 864 l 38 951 q 132 980 87 956 q 190 1025 178 1003 l 312 1025 m 151 0 l 861 1024 l 972 1024 l 262 0 l 151 0 m 999 0 l 999 125 l 703 125 l 703 203 l 965 615 l 1123 615 l 1123 210 l 1224 210 l 1224 125 l 1123 125 l 1123 0 l 999 0 m 999 210 l 999 490 l 826 210 l 999 210 z "},"½":{"ha":1294,"x_min":38,"x_max":1211,"o":"m 312 1025 l 312 410 l 188 410 l 188 910 q 131 882 177 899 q 38 862 85 864 l 38 951 q 132 980 87 956 q 190 1025 178 1003 l 312 1025 m 151 0 l 861 1024 l 972 1024 l 262 0 l 151 0 m 713 0 l 713 103 q 919 265 724 151 q 980 302 955 285 q 1031 342 1005 319 q 1071 387 1058 364 q 1085 434 1085 410 q 1054 503 1085 478 q 965 528 1024 528 q 833 406 833 528 l 709 406 q 775 566 709 508 q 967 624 841 624 q 1146 572 1083 624 q 1209 436 1209 520 q 1197 379 1209 407 q 1168 332 1184 351 q 1122 290 1151 313 q 1074 256 1092 267 q 1022 224 1055 244 q 872 92 878 136 l 1211 92 l 1211 0 l 713 0 z "},"¾":{"ha":1457,"x_min":70,"x_max":1401,"o":"m 439 733 q 569 591 569 730 q 507 454 569 508 q 324 399 444 399 q 130 456 190 399 q 70 606 70 513 l 70 608 l 194 608 l 194 606 q 227 520 194 545 q 325 494 260 494 q 413 523 381 494 q 445 602 445 551 q 415 664 445 640 q 327 689 385 689 l 301 689 l 301 770 l 327 770 q 415 794 385 770 q 445 853 445 817 q 413 917 445 894 q 327 939 381 939 q 194 835 194 939 l 70 835 q 134 977 70 921 q 325 1033 199 1033 q 508 986 446 1033 q 569 866 569 940 q 538 773 569 810 q 439 733 506 735 m 327 0 l 1038 1024 l 1149 1024 l 438 0 l 327 0 m 1175 0 l 1175 125 l 880 125 l 880 203 l 1141 615 l 1299 615 l 1299 210 l 1401 210 l 1401 125 l 1299 125 l 1299 0 l 1175 0 m 1175 210 l 1175 490 l 1003 210 l 1175 210 z "},"¿":{"ha":775,"x_min":78,"x_max":685,"o":"m 318 724 q 331 737 318 724 q 383 751 344 751 q 448 724 421 751 q 474 659 474 697 q 448 594 474 621 q 383 567 421 567 q 318 594 344 567 q 291 659 291 621 q 318 724 291 697 m 449 479 q 439 394 449 434 q 407 317 428 353 q 367 257 385 281 q 318 199 348 233 q 264 133 284 160 q 228 66 244 107 q 211 -17 211 26 q 377 -185 211 -185 q 507 -135 463 -185 q 552 14 552 -85 l 685 14 q 601 -220 685 -141 q 378 -300 517 -300 q 161 -224 243 -300 q 78 -8 78 -149 q 89 76 78 37 q 123 150 100 115 q 164 207 146 185 q 215 262 183 228 q 260 310 244 291 q 295 358 276 330 q 323 416 315 386 q 332 479 332 446 l 449 479 z "},"À":{"ha":879,"x_min":49,"x_max":830,"o":"m 540 1078 l 418 1078 l 211 1210 l 346 1210 l 540 1078 m 49 0 l 322 1026 l 559 1026 l 830 0 l 675 0 l 609 260 l 270 260 l 204 0 l 49 0 m 302 385 l 578 385 l 440 928 l 302 385 z "},"Á":{"ha":879,"x_min":49,"x_max":830,"o":"m 345 1078 l 539 1210 l 673 1210 l 467 1078 l 345 1078 m 49 0 l 322 1026 l 559 1026 l 830 0 l 675 0 l 609 260 l 270 260 l 204 0 l 49 0 m 302 385 l 578 385 l 440 928 l 302 385 z "},"Â":{"ha":879,"x_min":49,"x_max":830,"o":"m 232 1078 l 386 1208 l 494 1208 l 649 1078 l 543 1078 l 440 1167 l 337 1078 l 232 1078 m 49 0 l 322 1026 l 559 1026 l 830 0 l 675 0 l 609 260 l 270 260 l 204 0 l 49 0 m 302 385 l 578 385 l 440 928 l 302 385 z "},"Ã":{"ha":879,"x_min":49,"x_max":830,"o":"m 654 1199 q 647 1157 653 1178 q 626 1116 640 1136 q 588 1084 612 1097 q 533 1072 564 1072 q 435 1112 488 1072 q 367 1144 395 1144 q 317 1090 320 1144 l 235 1090 q 270 1177 237 1137 q 363 1218 304 1218 q 457 1179 409 1218 q 526 1146 500 1146 q 572 1199 568 1146 l 654 1199 m 49 0 l 322 1026 l 559 1026 l 830 0 l 675 0 l 609 260 l 270 260 l 204 0 l 49 0 m 302 385 l 578 385 l 440 928 l 302 385 z "},"Ä":{"ha":879,"x_min":49,"x_max":830,"o":"m 358 1100 q 345 1090 358 1100 q 295 1080 332 1080 q 233 1100 258 1080 q 207 1153 207 1120 q 233 1207 207 1187 q 295 1227 258 1227 q 358 1207 332 1227 q 383 1153 383 1187 q 358 1100 383 1120 m 649 1100 q 636 1090 649 1100 q 587 1080 624 1080 q 525 1100 550 1080 q 499 1153 499 1120 q 525 1207 499 1187 q 587 1227 550 1227 q 649 1207 624 1227 q 675 1153 675 1187 q 649 1100 675 1120 m 49 0 l 322 1026 l 559 1026 l 830 0 l 675 0 l 609 260 l 270 260 l 204 0 l 49 0 m 302 385 l 578 385 l 440 928 l 302 385 z "},"Å":{"ha":879,"x_min":49,"x_max":830,"o":"m 440 1056 q 340 1097 382 1056 q 298 1198 298 1139 q 340 1298 298 1256 q 440 1340 382 1340 q 541 1298 499 1340 q 583 1198 583 1256 q 541 1097 583 1139 q 440 1056 500 1056 m 440 1124 q 493 1145 472 1124 q 515 1198 515 1167 q 493 1250 515 1228 q 440 1272 472 1272 q 388 1250 410 1272 q 367 1198 367 1228 q 388 1145 367 1167 q 440 1124 410 1124 m 49 0 l 322 1026 l 559 1026 l 830 0 l 675 0 l 609 260 l 270 260 l 204 0 l 49 0 m 302 385 l 578 385 l 440 928 l 302 385 z "},"Æ":{"ha":1326,"x_min":0,"x_max":1232,"o":"m 0 0 l 594 1024 l 1232 1024 l 1232 899 l 796 899 l 796 576 l 1155 576 l 1155 451 l 796 451 l 796 125 l 1232 125 l 1232 0 l 651 0 l 651 217 l 286 217 l 164 0 l 0 0 m 356 340 l 651 340 l 651 865 l 356 340 z "},"Ç":{"ha":940,"x_min":66,"x_max":874,"o":"m 548 -63 q 617 -90 588 -63 q 647 -167 647 -117 q 596 -260 647 -228 q 474 -293 546 -293 q 399 -284 436 -293 q 346 -264 361 -275 l 377 -205 q 480 -233 422 -233 q 549 -215 522 -233 q 576 -164 576 -197 q 563 -124 576 -137 q 524 -111 549 -111 q 488 -118 506 -111 q 462 -137 470 -125 l 401 -119 l 444 -12 q 166 148 266 4 q 66 512 66 292 q 114 783 66 665 q 259 969 163 901 q 487 1038 355 1038 q 635 1012 567 1038 q 749 943 703 986 q 824 848 794 900 q 865 738 853 796 q 874 662 874 697 l 723 662 q 719 704 723 681 q 645 850 707 792 q 487 908 584 908 q 292 806 364 908 q 219 512 219 704 q 292 217 219 319 q 487 114 364 114 q 588 135 542 114 q 662 191 633 156 q 707 271 691 226 q 723 363 723 315 l 874 363 q 851 236 874 299 q 785 118 828 173 q 671 27 742 63 q 512 -14 600 -10 l 485 -81 q 548 -63 511 -63 z "},"È":{"ha":768,"x_min":94,"x_max":674,"o":"m 492 1078 l 370 1078 l 163 1210 l 298 1210 l 492 1078 m 674 125 l 674 0 l 94 0 l 94 1024 l 674 1024 l 674 899 l 245 899 l 245 576 l 597 576 l 597 451 l 245 451 l 245 125 l 674 125 z "},"É":{"ha":768,"x_min":94,"x_max":674,"o":"m 297 1078 l 491 1210 l 625 1210 l 419 1078 l 297 1078 m 674 125 l 674 0 l 94 0 l 94 1024 l 674 1024 l 674 899 l 245 899 l 245 576 l 597 576 l 597 451 l 245 451 l 245 125 l 674 125 z "},"Ê":{"ha":768,"x_min":94,"x_max":674,"o":"m 184 1078 l 338 1208 l 447 1208 l 601 1078 l 495 1078 l 392 1167 l 289 1078 l 184 1078 m 674 125 l 674 0 l 94 0 l 94 1024 l 674 1024 l 674 899 l 245 899 l 245 576 l 597 576 l 597 451 l 245 451 l 245 125 l 674 125 z "},"Ë":{"ha":768,"x_min":94,"x_max":674,"o":"m 310 1100 q 297 1090 310 1100 q 247 1080 284 1080 q 185 1100 210 1080 q 159 1153 159 1120 q 185 1207 159 1187 q 247 1227 210 1227 q 310 1207 284 1227 q 335 1153 335 1187 q 310 1100 335 1120 m 601 1100 q 589 1090 601 1100 q 539 1080 576 1080 q 477 1100 502 1080 q 451 1153 451 1120 q 477 1207 451 1187 q 539 1227 502 1227 q 601 1207 576 1227 q 627 1153 627 1187 q 601 1100 627 1120 m 674 125 l 674 0 l 94 0 l 94 1024 l 674 1024 l 674 899 l 245 899 l 245 576 l 597 576 l 597 451 l 245 451 l 245 125 l 674 125 z "},"Ì":{"ha":342,"x_min":-58,"x_max":271,"o":"m 271 1078 l 149 1078 l -58 1210 l 77 1210 l 271 1078 m 97 0 l 97 1024 l 245 1024 l 245 0 l 97 0 z "},"Í":{"ha":342,"x_min":76,"x_max":404,"o":"m 76 1078 l 270 1210 l 404 1210 l 198 1078 l 76 1078 m 97 0 l 97 1024 l 245 1024 l 245 0 l 97 0 z "},"Î":{"ha":342,"x_min":-37,"x_max":381,"o":"m -37 1078 l 117 1208 l 226 1208 l 381 1078 l 274 1078 l 172 1167 l 68 1078 l -37 1078 m 97 0 l 97 1024 l 245 1024 l 245 0 l 97 0 z "},"Ï":{"ha":342,"x_min":-22,"x_max":367,"o":"m 66 1083 q 3 1103 29 1083 q -22 1157 -22 1123 q 3 1210 -22 1190 q 66 1231 29 1231 q 128 1210 102 1231 q 153 1157 153 1190 q 128 1103 153 1123 q 66 1083 102 1083 m 342 1103 q 329 1093 342 1103 q 279 1083 316 1083 q 217 1103 242 1083 q 192 1157 192 1123 q 217 1210 192 1190 q 279 1231 242 1231 q 342 1210 316 1231 q 367 1157 367 1190 q 342 1103 367 1123 m 97 0 l 97 1024 l 245 1024 l 245 0 l 97 0 z "},"Ð":{"ha":890,"x_min":3,"x_max":824,"o":"m 94 0 l 94 476 l 3 476 l 3 547 l 94 547 l 94 1024 l 375 1024 q 701 885 578 1024 q 824 513 824 747 q 701 140 824 280 q 375 0 578 0 l 94 0 m 494 476 l 245 476 l 245 125 l 357 125 q 583 231 495 125 q 670 513 670 336 q 583 795 670 690 q 357 899 495 899 l 245 899 l 245 547 l 494 547 l 494 476 z "},"Ñ":{"ha":961,"x_min":94,"x_max":867,"o":"m 702 1199 q 694 1157 701 1178 q 674 1116 688 1136 q 636 1084 660 1097 q 581 1072 612 1072 q 483 1112 535 1072 q 415 1144 443 1144 q 365 1090 368 1144 l 283 1090 q 318 1177 285 1137 q 410 1218 352 1218 q 505 1179 458 1218 q 528 1162 520 1167 q 549 1151 535 1157 q 574 1146 563 1146 q 620 1199 617 1146 l 702 1199 m 240 0 l 94 0 l 94 1024 l 334 1024 l 720 114 l 720 1024 l 867 1024 l 867 0 l 624 0 l 240 904 l 240 0 z "},"Ò":{"ha":985,"x_min":66,"x_max":919,"o":"m 592 1078 l 470 1078 l 263 1210 l 398 1210 l 592 1078 m 661 21 q 622 3 661 21 q 492 -15 583 -15 q 323 21 401 -15 q 188 123 245 57 q 98 289 131 189 q 66 513 66 390 q 98 737 66 637 q 188 902 131 837 q 323 1002 245 967 q 492 1038 401 1038 q 663 1002 585 1038 q 798 902 740 967 q 887 737 855 837 q 919 513 919 637 q 887 289 919 390 q 797 123 854 189 q 661 21 740 57 m 492 114 q 691 215 616 114 q 766 513 766 316 q 691 809 766 710 q 492 908 616 908 q 294 809 369 908 q 219 513 219 710 q 294 215 219 316 q 492 114 369 114 z "},"Ó":{"ha":985,"x_min":66,"x_max":919,"o":"m 397 1078 l 590 1210 l 725 1210 l 519 1078 l 397 1078 m 661 21 q 622 3 661 21 q 492 -15 583 -15 q 323 21 401 -15 q 188 123 245 57 q 98 289 131 189 q 66 513 66 390 q 98 737 66 637 q 188 902 131 837 q 323 1002 245 967 q 492 1038 401 1038 q 663 1002 585 1038 q 798 902 740 967 q 887 737 855 837 q 919 513 919 637 q 887 289 919 390 q 797 123 854 189 q 661 21 740 57 m 492 114 q 691 215 616 114 q 766 513 766 316 q 691 809 766 710 q 492 908 616 908 q 294 809 369 908 q 219 513 219 710 q 294 215 219 316 q 492 114 369 114 z "},"Ô":{"ha":985,"x_min":66,"x_max":919,"o":"m 284 1078 l 438 1208 l 547 1208 l 701 1078 l 595 1078 l 492 1167 l 389 1078 l 284 1078 m 661 21 q 622 3 661 21 q 492 -15 583 -15 q 323 21 401 -15 q 188 123 245 57 q 98 289 131 189 q 66 513 66 390 q 98 737 66 637 q 188 902 131 837 q 323 1002 245 967 q 492 1038 401 1038 q 663 1002 585 1038 q 798 902 740 967 q 887 737 855 837 q 919 513 919 637 q 887 289 919 390 q 797 123 854 189 q 661 21 740 57 m 492 114 q 691 215 616 114 q 766 513 766 316 q 691 809 766 710 q 492 908 616 908 q 294 809 369 908 q 219 513 219 710 q 294 215 219 316 q 492 114 369 114 z "},"Õ":{"ha":985,"x_min":66,"x_max":919,"o":"m 706 1199 q 699 1157 706 1178 q 678 1116 692 1136 q 640 1084 664 1097 q 585 1072 616 1072 q 488 1112 540 1072 q 419 1144 447 1144 q 369 1090 372 1144 l 286 1090 q 322 1177 288 1137 q 415 1218 356 1218 q 509 1179 461 1218 q 578 1146 552 1146 q 624 1199 620 1146 l 706 1199 m 661 21 q 622 3 661 21 q 492 -15 583 -15 q 323 21 401 -15 q 188 123 245 57 q 98 289 131 189 q 66 513 66 390 q 98 737 66 637 q 188 902 131 837 q 323 1002 245 967 q 492 1038 401 1038 q 663 1002 585 1038 q 798 902 740 967 q 887 737 855 837 q 919 513 919 637 q 887 289 919 390 q 797 123 854 189 q 661 21 740 57 m 492 114 q 691 215 616 114 q 766 513 766 316 q 691 809 766 710 q 492 908 616 908 q 294 809 369 908 q 219 513 219 710 q 294 215 219 316 q 492 114 369 114 z "},"Ö":{"ha":985,"x_min":66,"x_max":919,"o":"m 347 1080 q 285 1100 310 1080 q 259 1153 259 1120 q 285 1207 259 1187 q 347 1227 310 1227 q 409 1207 383 1227 q 435 1153 435 1187 q 409 1100 435 1120 q 347 1080 383 1080 m 701 1100 q 689 1090 701 1100 q 639 1080 676 1080 q 577 1100 602 1080 q 551 1153 551 1120 q 577 1207 551 1187 q 639 1227 602 1227 q 701 1207 676 1227 q 727 1153 727 1187 q 701 1100 727 1120 m 661 21 q 622 3 661 21 q 492 -15 583 -15 q 323 21 401 -15 q 188 123 245 57 q 98 289 131 189 q 66 513 66 390 q 98 737 66 637 q 188 902 131 837 q 323 1002 245 967 q 492 1038 401 1038 q 663 1002 585 1038 q 798 902 740 967 q 887 737 855 837 q 919 513 919 637 q 887 289 919 390 q 797 123 854 189 q 661 21 740 57 m 492 114 q 691 215 616 114 q 766 513 766 316 q 691 809 766 710 q 492 908 616 908 q 294 809 369 908 q 219 513 219 710 q 294 215 219 316 q 492 114 369 114 z "},"×":{"ha":851,"x_min":189,"x_max":661,"o":"m 257 149 l 190 215 l 353 362 l 189 508 l 257 576 l 425 426 l 592 576 l 661 509 l 497 362 l 661 215 l 592 147 l 424 298 l 257 149 z "},"Ø":{"ha":985,"x_min":66,"x_max":919,"o":"m 492 -15 q 269 51 366 -15 l 202 -61 l 122 -16 l 199 111 q 66 513 66 256 q 98 737 66 637 q 188 902 131 837 q 323 1002 245 967 q 492 1038 401 1038 q 715 975 617 1038 l 781 1086 l 863 1041 l 787 915 q 919 513 919 771 q 887 289 919 390 q 797 123 854 189 q 661 21 740 57 q 492 -15 583 -15 m 219 513 q 277 242 219 344 l 645 858 q 492 908 582 908 q 294 809 369 908 q 219 513 219 710 m 492 114 q 691 215 616 114 q 766 513 766 316 q 708 783 766 681 l 339 167 q 492 114 403 114 z "},"Ù":{"ha":913,"x_min":94,"x_max":819,"o":"m 555 1078 l 433 1078 l 226 1210 l 361 1210 l 555 1078 m 819 375 q 724 83 819 181 q 456 -15 629 -15 q 188 83 283 -15 q 94 375 94 181 l 94 1024 l 244 1024 l 244 376 q 296 176 244 239 q 456 114 348 114 q 616 176 563 114 q 668 376 668 239 l 668 1024 l 819 1024 l 819 375 z "},"Ú":{"ha":913,"x_min":94,"x_max":819,"o":"m 360 1078 l 554 1210 l 688 1210 l 482 1078 l 360 1078 m 819 375 q 724 83 819 181 q 456 -15 629 -15 q 188 83 283 -15 q 94 375 94 181 l 94 1024 l 244 1024 l 244 376 q 296 176 244 239 q 456 114 348 114 q 616 176 563 114 q 668 376 668 239 l 668 1024 l 819 1024 l 819 375 z "},"Û":{"ha":913,"x_min":94,"x_max":819,"o":"m 247 1078 l 401 1208 l 510 1208 l 665 1078 l 558 1078 l 456 1167 l 352 1078 l 247 1078 m 819 375 q 724 83 819 181 q 456 -15 629 -15 q 188 83 283 -15 q 94 375 94 181 l 94 1024 l 244 1024 l 244 376 q 296 176 244 239 q 456 114 348 114 q 616 176 563 114 q 668 376 668 239 l 668 1024 l 819 1024 l 819 375 z "},"Ü":{"ha":913,"x_min":94,"x_max":819,"o":"m 373 1100 q 360 1090 373 1100 q 310 1080 347 1080 q 248 1100 274 1080 q 222 1153 222 1120 q 248 1207 222 1187 q 310 1227 274 1227 q 373 1207 347 1227 q 399 1153 399 1187 q 373 1100 399 1120 m 665 1100 q 652 1090 665 1100 q 602 1080 639 1080 q 540 1100 565 1080 q 515 1153 515 1120 q 540 1207 515 1187 q 602 1227 565 1227 q 665 1207 639 1227 q 690 1153 690 1187 q 665 1100 690 1120 m 819 375 q 724 83 819 181 q 456 -15 629 -15 q 188 83 283 -15 q 94 375 94 181 l 94 1024 l 244 1024 l 244 376 q 296 176 244 239 q 456 114 348 114 q 616 176 563 114 q 668 376 668 239 l 668 1024 l 819 1024 l 819 375 z "},"Ý":{"ha":828,"x_min":49,"x_max":778,"o":"m 318 1078 l 512 1210 l 647 1210 l 440 1078 l 318 1078 m 778 1024 l 488 355 l 488 0 l 338 0 l 338 355 l 49 1024 l 208 1024 l 413 517 l 618 1024 l 778 1024 z "},"Þ":{"ha":788,"x_min":94,"x_max":722,"o":"m 94 0 l 94 1023 l 244 1023 l 244 797 l 396 797 q 633 721 544 797 q 722 506 722 645 q 633 291 722 367 q 396 215 543 215 l 244 215 l 244 0 l 94 0 m 381 672 l 244 672 l 244 340 l 381 340 q 520 383 467 340 q 573 506 573 425 q 520 630 573 588 q 381 672 467 672 z "},"ß":{"ha":850,"x_min":83,"x_max":781,"o":"m 83 0 l 83 683 q 102 827 83 764 q 153 931 122 891 q 230 998 185 972 q 322 1034 275 1024 q 423 1045 369 1045 q 622 980 542 1045 q 701 810 701 915 q 620 640 701 719 q 579 567 579 597 q 599 532 579 552 q 658 479 618 511 q 702 441 684 458 q 740 396 719 423 q 770 335 760 369 q 781 265 781 302 q 699 63 781 135 q 453 -9 617 -9 q 320 8 371 -9 l 342 136 q 453 117 392 117 q 633 251 633 117 q 605 334 633 297 q 531 409 577 371 q 431 563 431 494 q 487 680 431 626 q 560 806 560 749 q 525 888 560 856 q 417 919 491 919 q 277 860 323 919 q 232 666 232 800 l 232 0 l 83 0 z "},"à":{"ha":855,"x_min":76,"x_max":809,"o":"m 533 848 l 421 848 l 239 1023 l 366 1023 l 533 848 m 354 -15 q 152 44 228 -15 q 76 206 76 103 q 158 369 76 312 q 381 440 240 426 q 570 466 520 453 q 619 506 619 479 l 619 508 q 572 593 619 564 q 435 622 524 622 q 239 485 239 622 l 91 485 q 186 679 91 609 q 435 749 281 749 q 604 722 530 749 q 724 637 678 694 q 770 499 770 579 l 770 147 q 780 55 770 87 q 809 0 791 17 l 659 0 q 633 49 645 14 q 624 84 628 65 q 514 12 584 38 q 354 -15 443 -15 m 385 110 q 554 159 488 110 q 620 299 620 208 l 620 363 q 415 329 551 343 q 271 295 316 320 q 226 217 226 271 q 385 110 226 110 z "},"á":{"ha":855,"x_min":76,"x_max":809,"o":"m 351 849 l 517 1024 l 644 1024 l 462 849 l 351 849 m 354 -15 q 152 44 228 -15 q 76 206 76 103 q 158 369 76 312 q 381 440 240 426 q 570 466 520 453 q 619 506 619 479 l 619 508 q 572 593 619 564 q 435 622 524 622 q 239 485 239 622 l 91 485 q 186 679 91 609 q 435 749 281 749 q 604 722 530 749 q 724 637 678 694 q 770 499 770 579 l 770 147 q 780 55 770 87 q 809 0 791 17 l 659 0 q 633 49 645 14 q 624 84 628 65 q 514 12 584 38 q 354 -15 443 -15 m 385 110 q 554 159 488 110 q 620 299 620 208 l 620 363 q 415 329 551 343 q 271 295 316 320 q 226 217 226 271 q 385 110 226 110 z "},"â":{"ha":855,"x_min":76,"x_max":809,"o":"m 238 849 l 392 1024 l 496 1024 l 649 849 l 546 849 l 443 970 l 340 849 l 238 849 m 354 -15 q 152 44 228 -15 q 76 206 76 103 q 158 369 76 312 q 381 440 240 426 q 570 466 520 453 q 619 506 619 479 l 619 508 q 572 593 619 564 q 435 622 524 622 q 239 485 239 622 l 91 485 q 186 679 91 609 q 435 749 281 749 q 604 722 530 749 q 724 637 678 694 q 770 499 770 579 l 770 147 q 780 55 770 87 q 809 0 791 17 l 659 0 q 633 49 645 14 q 624 84 628 65 q 514 12 584 38 q 354 -15 443 -15 m 385 110 q 554 159 488 110 q 620 299 620 208 l 620 363 q 415 329 551 343 q 271 295 316 320 q 226 217 226 271 q 385 110 226 110 z "},"ã":{"ha":855,"x_min":76,"x_max":809,"o":"m 653 1009 q 645 967 653 988 q 624 926 638 946 q 586 894 610 907 q 532 882 563 882 q 435 922 484 882 q 365 953 394 953 q 316 899 320 953 l 233 899 q 269 987 235 947 q 362 1028 303 1028 q 456 990 407 1028 q 525 956 499 956 q 571 1009 568 956 l 653 1009 m 354 -15 q 152 44 228 -15 q 76 206 76 103 q 158 369 76 312 q 381 440 240 426 q 570 466 520 453 q 619 506 619 479 l 619 508 q 572 593 619 564 q 435 622 524 622 q 239 485 239 622 l 91 485 q 186 679 91 609 q 435 749 281 749 q 604 722 530 749 q 724 637 678 694 q 770 499 770 579 l 770 147 q 780 55 770 87 q 809 0 791 17 l 659 0 q 633 49 645 14 q 624 84 628 65 q 514 12 584 38 q 354 -15 443 -15 m 385 110 q 554 159 488 110 q 620 299 620 208 l 620 363 q 415 329 551 343 q 271 295 316 320 q 226 217 226 271 q 385 110 226 110 z "},"ä":{"ha":855,"x_min":76,"x_max":809,"o":"m 360 908 q 347 898 360 908 q 297 888 334 888 q 235 908 260 888 q 209 962 209 928 q 235 1015 209 995 q 297 1035 260 1035 q 360 1015 334 1035 q 385 962 385 995 q 360 908 385 928 m 651 908 q 639 898 651 908 q 589 888 626 888 q 527 908 552 888 q 501 962 501 928 q 527 1015 501 995 q 589 1035 552 1035 q 651 1015 626 1035 q 677 962 677 995 q 651 908 677 928 m 354 -15 q 152 44 228 -15 q 76 206 76 103 q 158 369 76 312 q 381 440 240 426 q 570 466 520 453 q 619 506 619 479 l 619 508 q 572 593 619 564 q 435 622 524 622 q 239 485 239 622 l 91 485 q 186 679 91 609 q 435 749 281 749 q 604 722 530 749 q 724 637 678 694 q 770 499 770 579 l 770 147 q 780 55 770 87 q 809 0 791 17 l 659 0 q 633 49 645 14 q 624 84 628 65 q 514 12 584 38 q 354 -15 443 -15 m 385 110 q 554 159 488 110 q 620 299 620 208 l 620 363 q 415 329 551 343 q 271 295 316 320 q 226 217 226 271 q 385 110 226 110 z "},"å":{"ha":855,"x_min":76,"x_max":809,"o":"m 544 840 q 524 819 544 840 q 444 798 503 798 q 343 840 385 798 q 301 940 301 881 q 343 1041 301 999 q 444 1083 385 1083 q 544 1041 503 1083 q 586 940 586 999 q 544 840 586 881 m 444 866 q 496 888 475 866 q 517 940 517 909 q 496 992 517 971 q 444 1014 475 1014 q 392 992 413 1014 q 370 940 370 971 q 392 888 370 909 q 444 866 413 866 m 354 -15 q 152 44 228 -15 q 76 206 76 103 q 158 369 76 312 q 381 440 240 426 q 570 466 520 453 q 619 506 619 479 l 619 508 q 572 593 619 564 q 435 622 524 622 q 239 485 239 622 l 91 485 q 186 679 91 609 q 435 749 281 749 q 604 722 530 749 q 724 637 678 694 q 770 499 770 579 l 770 147 q 780 55 770 87 q 809 0 791 17 l 659 0 q 633 49 645 14 q 624 84 628 65 q 514 12 584 38 q 354 -15 443 -15 m 385 110 q 554 159 488 110 q 620 299 620 208 l 620 363 q 415 329 551 343 q 271 295 316 320 q 226 217 226 271 q 385 110 226 110 z "},"æ":{"ha":1488,"x_min":76,"x_max":1420,"o":"m 397 -15 q 162 48 249 -15 q 76 217 76 110 q 120 337 76 290 q 235 405 164 385 q 404 425 307 425 q 609 432 563 425 q 654 467 654 438 l 654 488 q 600 591 654 556 q 455 627 547 627 q 299 591 358 627 q 241 486 241 555 l 92 486 q 142 629 92 568 q 272 719 191 690 q 456 749 353 749 q 628 717 551 749 q 746 621 704 684 q 875 716 798 682 q 1044 749 951 749 q 1317 641 1215 749 q 1420 365 1420 533 q 1418 316 1420 329 l 806 316 q 883 161 820 217 q 1047 106 945 106 q 1200 146 1144 106 q 1260 232 1255 186 l 1409 232 q 1379 147 1405 189 q 1309 67 1353 104 q 1195 8 1265 31 q 1043 -15 1126 -15 q 860 24 942 -15 q 727 135 778 64 q 591 22 681 58 q 397 -15 501 -15 m 808 432 l 1267 432 q 1265 453 1267 440 q 1196 579 1253 528 q 1046 630 1138 630 q 888 576 952 630 q 808 432 824 523 m 406 110 q 471 115 440 110 q 535 136 502 121 q 591 174 567 151 q 633 238 615 198 q 656 329 651 278 q 430 317 581 317 q 275 298 324 317 q 227 223 227 278 q 276 139 227 167 q 406 110 325 110 z "},"ç":{"ha":876,"x_min":69,"x_max":808,"o":"m 515 -63 q 584 -90 555 -63 q 614 -167 614 -117 q 564 -260 614 -228 q 442 -293 513 -293 q 366 -284 403 -293 q 314 -264 328 -274 l 344 -205 q 447 -233 390 -233 q 517 -215 490 -233 q 544 -164 544 -197 q 530 -124 544 -137 q 492 -111 516 -111 q 456 -118 474 -111 q 429 -137 438 -125 l 366 -119 l 410 -12 q 164 106 258 2 q 69 370 69 209 q 177 646 69 543 q 456 749 286 749 q 605 724 537 749 q 716 657 673 698 q 784 566 760 616 q 808 465 808 516 l 808 460 l 659 460 l 657 477 q 594 580 648 540 q 455 619 540 619 q 288 555 354 619 q 222 370 222 490 q 288 183 222 250 q 455 115 355 115 q 603 159 551 115 q 659 271 654 203 l 808 271 q 787 173 808 221 q 725 84 765 124 q 622 16 685 43 q 481 -14 558 -10 l 456 -77 q 515 -63 485 -63 z "},"è":{"ha":900,"x_min":69,"x_max":831,"o":"m 543 848 l 432 848 l 249 1023 l 377 1023 l 543 848 m 821 232 q 791 143 817 186 q 720 64 765 99 q 607 6 676 28 q 455 -15 538 -15 q 176 91 283 -15 q 69 367 69 198 q 177 643 69 537 q 456 749 285 749 q 729 644 626 749 q 831 370 831 538 q 828 316 831 334 l 219 316 q 296 165 233 219 q 460 111 358 111 q 612 147 559 111 q 671 232 665 183 l 821 232 m 457 624 q 301 574 363 624 q 222 433 238 523 l 674 433 q 611 570 667 516 q 457 624 555 624 z "},"é":{"ha":900,"x_min":69,"x_max":831,"o":"m 362 849 l 527 1024 l 655 1024 l 472 849 l 362 849 m 821 232 q 791 143 817 186 q 720 64 765 99 q 607 6 676 28 q 455 -15 538 -15 q 176 91 283 -15 q 69 367 69 198 q 177 643 69 537 q 456 749 285 749 q 729 644 626 749 q 831 370 831 538 q 828 316 831 334 l 219 316 q 296 165 233 219 q 460 111 358 111 q 612 147 559 111 q 671 232 665 183 l 821 232 m 457 624 q 301 574 363 624 q 222 433 238 523 l 674 433 q 611 570 667 516 q 457 624 555 624 z "},"ê":{"ha":900,"x_min":69,"x_max":831,"o":"m 249 849 l 402 1024 l 506 1024 l 660 849 l 557 849 l 454 970 l 351 849 l 249 849 m 821 232 q 791 143 817 186 q 720 64 765 99 q 607 6 676 28 q 455 -15 538 -15 q 176 91 283 -15 q 69 367 69 198 q 177 643 69 537 q 456 749 285 749 q 729 644 626 749 q 831 370 831 538 q 828 316 831 334 l 219 316 q 296 165 233 219 q 460 111 358 111 q 612 147 559 111 q 671 232 665 183 l 821 232 m 457 624 q 301 574 363 624 q 222 433 238 523 l 674 433 q 611 570 667 516 q 457 624 555 624 z "},"ë":{"ha":900,"x_min":69,"x_max":831,"o":"m 308 888 q 246 908 272 888 q 220 962 220 928 q 246 1015 220 995 q 308 1035 272 1035 q 370 1015 344 1035 q 396 962 396 995 q 370 908 396 928 q 308 888 344 888 m 663 908 q 650 898 663 908 q 600 888 637 888 q 538 908 563 888 q 513 962 513 928 q 538 1015 513 995 q 600 1035 563 1035 q 663 1015 637 1035 q 688 962 688 995 q 663 908 688 928 m 821 232 q 791 143 817 186 q 720 64 765 99 q 607 6 676 28 q 455 -15 538 -15 q 176 91 283 -15 q 69 367 69 198 q 177 643 69 537 q 456 749 285 749 q 729 644 626 749 q 831 370 831 538 q 828 316 831 334 l 219 316 q 296 165 233 219 q 460 111 358 111 q 612 147 559 111 q 671 232 665 183 l 821 232 m 457 624 q 301 574 363 624 q 222 433 238 523 l 674 433 q 611 570 667 516 q 457 624 555 624 z "},"ì":{"ha":350,"x_min":-30,"x_max":264,"o":"m 264 848 l 153 848 l -30 1023 l 98 1023 l 264 848 m 101 0 l 101 738 l 249 738 l 249 0 l 101 0 z "},"í":{"ha":350,"x_min":83,"x_max":376,"o":"m 83 849 l 248 1024 l 376 1024 l 193 849 l 83 849 m 101 0 l 101 738 l 249 738 l 249 0 l 101 0 z "},"î":{"ha":350,"x_min":-30,"x_max":381,"o":"m -30 849 l 123 1024 l 227 1024 l 381 849 l 278 849 l 175 970 l 72 849 l -30 849 m 101 0 l 101 738 l 249 738 l 249 0 l 101 0 z "},"ï":{"ha":350,"x_min":-20,"x_max":369,"o":"m 68 888 q 6 908 31 888 q -20 962 -20 928 q 6 1015 -20 995 q 68 1035 31 1035 q 130 1015 104 1035 q 156 962 156 995 q 130 908 156 928 q 68 888 104 888 m 281 888 q 219 908 244 888 q 194 962 194 928 q 219 1015 194 995 q 281 1035 244 1035 q 343 1015 317 1035 q 369 962 369 995 q 343 908 369 928 q 281 888 317 888 m 101 0 l 101 738 l 249 738 l 249 0 l 101 0 z "},"ð":{"ha":935,"x_min":69,"x_max":841,"o":"m 733 94 q 679 40 733 94 q 455 -14 625 -14 q 177 94 285 -14 q 69 369 69 201 q 176 642 69 536 q 455 749 284 749 q 649 703 563 749 q 527 886 608 815 l 465 831 l 364 885 l 435 949 q 289 1004 370 982 l 368 1087 q 522 1026 453 1064 l 588 1084 l 688 1028 l 615 964 q 841 369 841 776 q 733 94 841 201 m 285 184 q 318 148 285 184 q 455 113 351 113 q 625 184 559 113 q 690 369 690 255 q 625 553 690 483 q 455 622 560 622 q 285 553 350 622 q 219 369 219 483 q 285 184 219 255 z "},"ñ":{"ha":866,"x_min":99,"x_max":774,"o":"m 658 1009 q 650 967 657 988 q 628 926 642 946 q 591 894 615 907 q 536 882 567 882 q 439 922 488 882 q 369 953 398 953 q 320 899 324 953 l 238 899 q 274 987 240 947 q 366 1028 308 1028 q 460 990 412 1028 q 529 956 503 956 q 575 1009 572 956 l 658 1009 m 99 0 l 99 738 l 249 738 l 249 628 q 358 717 293 685 q 497 749 422 749 q 700 675 626 749 q 774 472 774 600 l 774 0 l 624 0 l 624 430 q 450 613 624 613 q 307 552 365 613 q 249 402 249 492 l 249 0 l 99 0 z "},"ò":{"ha":910,"x_min":69,"x_max":841,"o":"m 544 848 l 433 848 l 250 1023 l 378 1023 l 544 848 m 733 94 q 679 40 733 94 q 455 -14 625 -14 q 177 94 285 -14 q 69 369 69 201 q 176 642 69 536 q 455 749 284 749 q 733 642 626 749 q 841 369 841 536 q 733 94 841 201 m 285 185 q 318 150 285 185 q 455 115 350 115 q 625 185 560 115 q 690 369 690 255 q 625 551 690 483 q 455 619 560 619 q 285 551 350 619 q 220 369 220 483 q 285 185 220 255 z "},"ó":{"ha":910,"x_min":69,"x_max":841,"o":"m 363 849 l 528 1024 l 656 1024 l 474 849 l 363 849 m 733 94 q 679 40 733 94 q 455 -14 625 -14 q 177 94 285 -14 q 69 369 69 201 q 176 642 69 536 q 455 749 284 749 q 733 642 626 749 q 841 369 841 536 q 733 94 841 201 m 285 185 q 318 150 285 185 q 455 115 350 115 q 625 185 560 115 q 690 369 690 255 q 625 551 690 483 q 455 619 560 619 q 285 551 350 619 q 220 369 220 483 q 285 185 220 255 z "},"ô":{"ha":910,"x_min":69,"x_max":841,"o":"m 250 849 l 403 1024 l 507 1024 l 661 849 l 558 849 l 455 970 l 352 849 l 250 849 m 733 94 q 679 40 733 94 q 455 -14 625 -14 q 177 94 285 -14 q 69 369 69 201 q 176 642 69 536 q 455 749 284 749 q 733 642 626 749 q 841 369 841 536 q 733 94 841 201 m 285 185 q 318 150 285 185 q 455 115 350 115 q 625 185 560 115 q 690 369 690 255 q 625 551 690 483 q 455 619 560 619 q 285 551 350 619 q 220 369 220 483 q 285 185 220 255 z "},"õ":{"ha":910,"x_min":69,"x_max":841,"o":"m 665 1009 q 657 967 665 988 q 636 926 650 946 q 598 894 622 907 q 544 882 574 882 q 447 922 496 882 q 377 953 406 953 q 328 899 332 953 l 245 899 q 281 987 247 947 q 374 1028 315 1028 q 467 990 419 1028 q 537 956 511 956 q 583 1009 580 956 l 665 1009 m 733 94 q 679 40 733 94 q 455 -14 625 -14 q 177 94 285 -14 q 69 369 69 201 q 176 642 69 536 q 455 749 284 749 q 733 642 626 749 q 841 369 841 536 q 733 94 841 201 m 285 185 q 318 150 285 185 q 455 115 350 115 q 625 185 560 115 q 690 369 690 255 q 625 551 690 483 q 455 619 560 619 q 285 551 350 619 q 220 369 220 483 q 285 185 220 255 z "},"ö":{"ha":910,"x_min":69,"x_max":841,"o":"m 372 908 q 359 898 372 908 q 309 888 346 888 q 247 908 272 888 q 221 962 221 928 q 247 1015 221 995 q 309 1035 272 1035 q 372 1015 346 1035 q 397 962 397 995 q 372 908 397 928 m 663 908 q 650 898 663 908 q 601 888 638 888 q 539 908 564 888 q 513 962 513 928 q 539 1015 513 995 q 601 1035 564 1035 q 663 1015 638 1035 q 689 962 689 995 q 663 908 689 928 m 733 94 q 679 40 733 94 q 455 -14 625 -14 q 177 94 285 -14 q 69 369 69 201 q 176 642 69 536 q 455 749 284 749 q 733 642 626 749 q 841 369 841 536 q 733 94 841 201 m 285 185 q 318 150 285 185 q 455 115 350 115 q 625 185 560 115 q 690 369 690 255 q 625 551 690 483 q 455 619 560 619 q 285 551 350 619 q 220 369 220 483 q 285 185 220 255 z "},"÷":{"ha":851,"x_min":180,"x_max":671,"o":"m 422 531 q 373 549 392 531 q 353 597 353 568 q 373 644 353 625 q 422 663 392 663 q 471 644 451 663 q 490 597 490 625 q 471 549 490 568 q 422 531 451 531 m 180 314 l 180 410 l 671 410 l 671 314 l 180 314 m 422 66 q 373 84 392 66 q 353 131 353 103 q 373 178 353 160 q 422 197 392 197 q 471 178 451 197 q 490 131 490 160 q 471 85 490 103 q 422 66 451 66 z "},"ø":{"ha":910,"x_min":69,"x_max":841,"o":"m 455 -14 q 272 26 353 -14 l 231 -36 l 161 12 l 201 72 q 103 200 138 124 q 69 369 69 277 q 176 642 69 536 q 455 749 284 749 q 628 714 551 749 l 667 772 l 736 724 l 701 671 q 804 542 767 619 q 841 369 841 465 q 733 94 841 201 q 455 -14 625 -14 m 220 369 q 280 191 220 260 l 553 601 q 455 619 509 619 q 285 551 350 619 q 220 369 220 483 m 455 115 q 625 185 560 115 q 690 369 690 255 q 622 553 690 485 l 347 139 q 455 115 396 115 z "},"ù":{"ha":849,"x_min":99,"x_max":757,"o":"m 505 848 l 393 848 l 211 1023 l 339 1023 l 505 848 m 367 -13 q 259 5 307 -13 q 182 52 211 23 q 133 120 152 81 q 106 198 114 159 q 99 280 99 238 l 99 738 l 250 738 l 250 318 q 411 120 250 120 q 513 156 467 120 q 583 244 559 192 q 606 352 606 297 l 606 738 l 757 738 l 757 0 l 606 0 l 606 109 q 504 19 565 52 q 367 -13 443 -13 z "},"ú":{"ha":849,"x_min":99,"x_max":757,"o":"m 323 849 l 489 1024 l 617 1024 l 434 849 l 323 849 m 367 -13 q 259 5 307 -13 q 182 52 211 23 q 133 120 152 81 q 106 198 114 159 q 99 280 99 238 l 99 738 l 250 738 l 250 318 q 411 120 250 120 q 513 156 467 120 q 583 244 559 192 q 606 352 606 297 l 606 738 l 757 738 l 757 0 l 606 0 l 606 109 q 504 19 565 52 q 367 -13 443 -13 z "},"û":{"ha":849,"x_min":99,"x_max":757,"o":"m 210 849 l 364 1024 l 468 1024 l 622 849 l 519 849 l 415 970 l 313 849 l 210 849 m 367 -13 q 259 5 307 -13 q 182 52 211 23 q 133 120 152 81 q 106 198 114 159 q 99 280 99 238 l 99 738 l 250 738 l 250 318 q 411 120 250 120 q 513 156 467 120 q 583 244 559 192 q 606 352 606 297 l 606 738 l 757 738 l 757 0 l 606 0 l 606 109 q 504 19 565 52 q 367 -13 443 -13 z "},"ü":{"ha":849,"x_min":99,"x_max":757,"o":"m 332 908 q 319 898 332 908 q 269 888 306 888 q 207 908 233 888 q 182 962 182 928 q 207 1015 182 995 q 269 1035 233 1035 q 332 1015 306 1035 q 358 962 358 995 q 332 908 358 928 m 562 888 q 500 908 525 888 q 474 962 474 928 q 500 1015 474 995 q 562 1035 525 1035 q 624 1015 598 1035 q 649 962 649 995 q 624 908 649 928 q 562 888 598 888 m 367 -13 q 259 5 307 -13 q 182 52 211 23 q 133 120 152 81 q 106 198 114 159 q 99 280 99 238 l 99 738 l 250 738 l 250 318 q 411 120 250 120 q 513 156 467 120 q 583 244 559 192 q 606 352 606 297 l 606 738 l 757 738 l 757 0 l 606 0 l 606 109 q 504 19 565 52 q 367 -13 443 -13 z "},"ý":{"ha":742,"x_min":42,"x_max":708,"o":"m 278 849 l 444 1024 l 572 1024 l 390 849 l 278 849 m 134 -314 q 49 -305 69 -314 l 49 -182 q 124 -192 70 -192 q 277 -62 233 -192 l 296 -6 l 42 738 l 199 738 l 378 144 l 553 738 l 708 738 l 444 -54 q 411 -139 428 -103 q 369 -209 394 -174 q 312 -266 343 -244 q 235 -301 281 -287 q 134 -314 190 -314 z "},"þ":{"ha":891,"x_min":99,"x_max":822,"o":"m 99 -303 l 99 1085 l 249 1085 l 249 647 q 357 723 295 696 q 486 749 418 749 q 615 724 554 749 q 722 652 675 699 q 795 532 768 605 q 822 370 822 459 q 795 205 822 279 q 723 84 769 131 q 616 11 676 36 q 486 -15 555 -15 q 357 13 419 -15 q 249 91 295 41 l 249 -303 l 99 -303 m 457 617 q 312 560 374 617 q 249 418 249 502 l 249 323 q 311 181 249 239 q 457 122 374 122 q 609 186 551 122 q 667 370 667 249 q 609 555 667 492 q 457 617 551 617 z "},"ÿ":{"ha":742,"x_min":42,"x_max":708,"o":"m 288 908 q 275 898 288 908 q 225 888 262 888 q 163 908 188 888 q 138 962 138 928 q 163 1015 138 995 q 225 1035 188 1035 q 288 1015 262 1035 q 313 962 313 995 q 288 908 313 928 m 517 888 q 455 908 481 888 q 430 962 430 928 q 455 1015 430 995 q 517 1035 481 1035 q 579 1015 553 1035 q 605 962 605 995 q 579 908 605 928 q 517 888 553 888 m 134 -314 q 49 -305 69 -314 l 49 -182 q 124 -192 70 -192 q 277 -62 233 -192 l 296 -6 l 42 738 l 199 738 l 378 144 l 553 738 l 708 738 l 444 -54 q 411 -139 428 -103 q 369 -209 394 -174 q 312 -266 343 -244 q 235 -301 281 -287 q 134 -314 190 -314 z "},"Ā":{"ha":879,"x_min":49,"x_max":830,"o":"m 248 1118 l 248 1183 l 632 1183 l 632 1118 l 248 1118 m 49 0 l 322 1026 l 559 1026 l 830 0 l 675 0 l 609 260 l 270 260 l 204 0 l 49 0 m 302 385 l 578 385 l 440 928 l 302 385 z "},"ā":{"ha":855,"x_min":76,"x_max":809,"o":"m 251 908 l 251 974 l 635 974 l 635 908 l 251 908 m 354 -15 q 152 44 228 -15 q 76 206 76 103 q 158 369 76 312 q 381 440 240 426 q 570 466 520 453 q 619 506 619 479 l 619 508 q 572 593 619 564 q 435 622 524 622 q 239 485 239 622 l 91 485 q 186 679 91 609 q 435 749 281 749 q 604 722 530 749 q 724 637 678 694 q 770 499 770 579 l 770 147 q 780 55 770 87 q 809 0 791 17 l 659 0 q 633 49 645 14 q 624 84 628 65 q 514 12 584 38 q 354 -15 443 -15 m 385 110 q 554 159 488 110 q 620 299 620 208 l 620 363 q 415 329 551 343 q 271 295 316 320 q 226 217 226 271 q 385 110 226 110 z "},"Ă":{"ha":879,"x_min":49,"x_max":830,"o":"m 263 1196 l 354 1196 q 378 1147 354 1167 q 440 1127 402 1127 q 503 1147 480 1127 q 527 1196 527 1167 l 619 1196 q 568 1102 619 1139 q 440 1065 517 1065 q 313 1102 364 1065 q 263 1196 263 1139 m 49 0 l 322 1026 l 559 1026 l 830 0 l 675 0 l 609 260 l 270 260 l 204 0 l 49 0 m 302 385 l 578 385 l 440 928 l 302 385 z "},"ă":{"ha":855,"x_min":76,"x_max":809,"o":"m 265 1038 l 356 1038 q 380 967 356 995 q 444 939 404 939 q 507 967 483 939 q 531 1038 531 994 l 622 1038 q 572 921 622 965 q 444 877 522 877 q 316 921 366 877 q 265 1038 265 965 m 354 -15 q 152 44 228 -15 q 76 206 76 103 q 158 369 76 312 q 381 440 240 426 q 570 466 520 453 q 619 506 619 479 l 619 508 q 572 593 619 564 q 435 622 524 622 q 239 485 239 622 l 91 485 q 186 679 91 609 q 435 749 281 749 q 604 722 530 749 q 724 637 678 694 q 770 499 770 579 l 770 147 q 780 55 770 87 q 809 0 791 17 l 659 0 q 633 49 645 14 q 624 84 628 65 q 514 12 584 38 q 354 -15 443 -15 m 385 110 q 554 159 488 110 q 620 299 620 208 l 620 363 q 415 329 551 343 q 271 295 316 320 q 226 217 226 271 q 385 110 226 110 z "},"Ą":{"ha":879,"x_min":49,"x_max":830,"o":"m 49 0 l 322 1026 l 559 1026 l 830 0 q 745 -91 785 -40 q 705 -175 705 -141 q 774 -229 705 -229 q 830 -224 799 -229 l 830 -299 q 765 -304 798 -304 q 658 -277 700 -304 q 616 -196 616 -251 q 657 -92 616 -146 q 749 0 699 -37 l 675 0 l 609 260 l 270 260 l 204 0 l 49 0 m 302 385 l 578 385 l 440 928 l 302 385 z "},"ą":{"ha":855,"x_min":76,"x_max":809,"o":"m 354 -15 q 152 44 228 -15 q 76 206 76 103 q 158 369 76 312 q 381 440 240 426 q 570 466 520 453 q 619 506 619 479 l 619 508 q 572 593 619 564 q 435 622 524 622 q 239 485 239 622 l 91 485 q 186 679 91 609 q 435 749 281 749 q 604 722 530 749 q 724 637 678 694 q 770 499 770 579 l 770 147 q 780 55 770 87 q 809 0 791 17 q 724 -90 764 -40 q 683 -175 683 -141 q 753 -229 683 -229 q 809 -224 777 -229 l 809 -299 q 744 -304 776 -304 q 639 -277 679 -304 q 598 -194 598 -250 q 639 -91 598 -146 q 728 0 679 -36 l 659 0 q 633 49 645 14 q 624 84 628 65 q 514 12 584 38 q 354 -15 443 -15 m 385 110 q 554 159 488 110 q 620 299 620 208 l 620 363 q 415 329 551 343 q 271 295 316 320 q 226 217 226 271 q 385 110 226 110 z "},"Ć":{"ha":940,"x_min":66,"x_max":874,"o":"m 388 1078 l 581 1210 l 716 1210 l 510 1078 l 388 1078 m 874 363 q 860 258 874 310 q 813 157 845 206 q 737 69 781 108 q 627 8 692 31 q 487 -15 563 -15 q 259 53 356 -15 q 115 239 163 121 q 66 512 66 357 q 115 785 66 667 q 259 970 163 903 q 487 1038 356 1038 q 635 1012 567 1038 q 749 943 703 986 q 824 848 794 900 q 865 738 853 796 q 874 662 874 697 l 723 662 q 719 704 723 681 q 645 850 707 792 q 487 908 584 908 q 292 806 364 908 q 219 512 219 704 q 292 217 219 319 q 487 114 364 114 q 588 135 542 114 q 662 191 633 156 q 707 271 691 226 q 723 363 723 315 l 874 363 z "},"ć":{"ha":876,"x_min":69,"x_max":808,"o":"m 351 849 l 517 1024 l 644 1024 l 462 849 l 351 849 m 456 -15 q 177 91 286 -15 q 69 370 69 196 q 177 646 69 543 q 456 749 286 749 q 605 724 537 749 q 716 657 673 698 q 784 566 760 616 q 808 465 808 516 l 808 460 l 659 460 l 657 477 q 594 580 648 540 q 455 619 540 619 q 288 555 354 619 q 222 370 222 490 q 288 183 222 250 q 455 115 355 115 q 603 159 551 115 q 659 271 654 203 l 808 271 q 785 169 808 219 q 719 77 762 119 q 607 11 676 36 q 456 -15 539 -15 z "},"Ĉ":{"ha":940,"x_min":66,"x_max":874,"o":"m 275 1078 l 429 1208 l 538 1208 l 692 1078 l 586 1078 l 483 1167 l 380 1078 l 275 1078 m 874 363 q 860 258 874 310 q 813 157 845 206 q 737 69 781 108 q 627 8 692 31 q 487 -15 563 -15 q 259 53 356 -15 q 115 239 163 121 q 66 512 66 357 q 115 785 66 667 q 259 970 163 903 q 487 1038 356 1038 q 635 1012 567 1038 q 749 943 703 986 q 824 848 794 900 q 865 738 853 796 q 874 662 874 697 l 723 662 q 719 704 723 681 q 645 850 707 792 q 487 908 584 908 q 292 806 364 908 q 219 512 219 704 q 292 217 219 319 q 487 114 364 114 q 588 135 542 114 q 662 191 633 156 q 707 271 691 226 q 723 363 723 315 l 874 363 z "},"ĉ":{"ha":876,"x_min":69,"x_max":808,"o":"m 239 849 l 392 1024 l 496 1024 l 649 849 l 547 849 l 444 970 l 340 849 l 239 849 m 456 -15 q 177 91 286 -15 q 69 370 69 196 q 177 646 69 543 q 456 749 286 749 q 605 724 537 749 q 716 657 673 698 q 784 566 760 616 q 808 465 808 516 l 808 460 l 659 460 l 657 477 q 594 580 648 540 q 455 619 540 619 q 288 555 354 619 q 222 370 222 490 q 288 183 222 250 q 455 115 355 115 q 603 159 551 115 q 659 271 654 203 l 808 271 q 785 169 808 219 q 719 77 762 119 q 607 11 676 36 q 456 -15 539 -15 z "},"Ċ":{"ha":940,"x_min":66,"x_max":874,"o":"m 485 1089 q 418 1110 445 1089 q 390 1168 390 1132 q 418 1226 390 1204 q 485 1247 445 1247 q 552 1226 525 1247 q 580 1168 580 1204 q 552 1110 580 1132 q 485 1089 525 1089 m 874 363 q 860 258 874 310 q 813 157 845 206 q 737 69 781 108 q 627 8 692 31 q 487 -15 563 -15 q 259 53 356 -15 q 115 239 163 121 q 66 512 66 357 q 115 785 66 667 q 259 970 163 903 q 487 1038 356 1038 q 635 1012 567 1038 q 749 943 703 986 q 824 848 794 900 q 865 738 853 796 q 874 662 874 697 l 723 662 q 719 704 723 681 q 645 850 707 792 q 487 908 584 908 q 292 806 364 908 q 219 512 219 704 q 292 217 219 319 q 487 114 364 114 q 588 135 542 114 q 662 191 633 156 q 707 271 691 226 q 723 363 723 315 l 874 363 z "},"ċ":{"ha":876,"x_min":69,"x_max":808,"o":"m 511 911 q 498 900 511 911 q 444 890 484 890 q 377 911 405 890 q 350 969 350 933 q 377 1026 350 1005 q 444 1048 405 1048 q 511 1026 484 1048 q 539 969 539 1005 q 511 911 539 933 m 456 -15 q 177 91 286 -15 q 69 370 69 196 q 177 646 69 543 q 456 749 286 749 q 605 724 537 749 q 716 657 673 698 q 784 566 760 616 q 808 465 808 516 l 808 460 l 659 460 l 657 477 q 594 580 648 540 q 455 619 540 619 q 288 555 354 619 q 222 370 222 490 q 288 183 222 250 q 455 115 355 115 q 603 159 551 115 q 659 271 654 203 l 808 271 q 785 169 808 219 q 719 77 762 119 q 607 11 676 36 q 456 -15 539 -15 z "},"Č":{"ha":940,"x_min":66,"x_max":874,"o":"m 275 1208 l 380 1208 l 483 1119 l 586 1208 l 692 1208 l 538 1078 l 429 1078 l 275 1208 m 874 363 q 860 258 874 310 q 813 157 845 206 q 737 69 781 108 q 627 8 692 31 q 487 -15 563 -15 q 259 53 356 -15 q 115 239 163 121 q 66 512 66 357 q 115 785 66 667 q 259 970 163 903 q 487 1038 356 1038 q 635 1012 567 1038 q 749 943 703 986 q 824 848 794 900 q 865 738 853 796 q 874 662 874 697 l 723 662 q 719 704 723 681 q 645 850 707 792 q 487 908 584 908 q 292 806 364 908 q 219 512 219 704 q 292 217 219 319 q 487 114 364 114 q 588 135 542 114 q 662 191 633 156 q 707 271 691 226 q 723 363 723 315 l 874 363 z "},"č":{"ha":876,"x_min":69,"x_max":808,"o":"m 239 1024 l 340 1024 l 444 903 l 547 1024 l 649 1024 l 496 849 l 392 849 l 239 1024 m 456 -15 q 177 91 286 -15 q 69 370 69 196 q 177 646 69 543 q 456 749 286 749 q 605 724 537 749 q 716 657 673 698 q 784 566 760 616 q 808 465 808 516 l 808 460 l 659 460 l 657 477 q 594 580 648 540 q 455 619 540 619 q 288 555 354 619 q 222 370 222 490 q 288 183 222 250 q 455 115 355 115 q 603 159 551 115 q 659 271 654 203 l 808 271 q 785 169 808 219 q 719 77 762 119 q 607 11 676 36 q 456 -15 539 -15 z "},"Ď":{"ha":890,"x_min":94,"x_max":824,"o":"m 217 1208 l 322 1208 l 426 1119 l 528 1208 l 635 1208 l 480 1078 l 372 1078 l 217 1208 m 94 0 l 94 1024 l 375 1024 q 701 885 578 1024 q 824 513 824 747 q 701 140 824 280 q 375 0 578 0 l 94 0 m 357 899 l 245 899 l 245 125 l 357 125 q 583 231 495 125 q 670 513 670 336 q 583 795 670 690 q 357 899 495 899 z "},"ď":{"ha":977,"x_min":69,"x_max":976,"o":"m 404 -15 q 275 11 335 -15 q 168 84 214 36 q 95 205 122 131 q 69 370 69 279 q 96 532 69 459 q 169 652 123 605 q 276 724 216 699 q 404 749 336 749 q 534 723 472 749 q 641 647 595 696 l 641 1085 l 792 1085 l 792 0 l 641 0 l 641 90 q 535 13 597 40 q 404 -15 474 -15 m 976 1085 q 944 810 976 956 l 871 810 q 884 925 878 843 q 891 1085 891 1006 l 976 1085 m 434 122 q 580 182 519 122 q 641 328 641 241 l 641 418 q 579 560 641 502 q 434 617 517 617 q 282 555 340 617 q 224 370 224 492 q 282 186 224 249 q 434 122 340 122 z "},"Đ":{"ha":890,"x_min":3,"x_max":824,"o":"m 94 0 l 94 476 l 3 476 l 3 547 l 94 547 l 94 1024 l 375 1024 q 701 885 578 1024 q 824 513 824 747 q 701 140 824 280 q 375 0 578 0 l 94 0 m 494 476 l 245 476 l 245 125 l 357 125 q 583 231 495 125 q 670 513 670 336 q 583 795 670 690 q 357 899 495 899 l 245 899 l 245 547 l 494 547 l 494 476 z "},"đ":{"ha":889,"x_min":69,"x_max":868,"o":"m 404 -15 q 275 11 335 -15 q 168 84 214 36 q 95 205 122 131 q 69 370 69 279 q 96 532 69 459 q 169 652 123 605 q 276 724 216 699 q 404 749 336 749 q 534 723 472 749 q 641 647 595 696 l 641 878 l 386 878 l 386 975 l 641 975 l 641 1085 l 792 1085 l 792 975 l 868 975 l 868 878 l 792 878 l 792 0 l 641 0 l 641 90 q 535 13 597 40 q 404 -15 474 -15 m 434 122 q 580 182 519 122 q 641 328 641 241 l 641 418 q 579 560 641 502 q 434 617 517 617 q 282 555 340 617 q 224 370 224 492 q 282 186 224 249 q 434 122 340 122 z "},"Ē":{"ha":768,"x_min":94,"x_max":674,"o":"m 200 1118 l 200 1183 l 584 1183 l 584 1118 l 200 1118 m 674 125 l 674 0 l 94 0 l 94 1024 l 674 1024 l 674 899 l 245 899 l 245 576 l 597 576 l 597 451 l 245 451 l 245 125 l 674 125 z "},"ē":{"ha":900,"x_min":69,"x_max":831,"o":"m 263 908 l 263 974 l 647 974 l 647 908 l 263 908 m 821 232 q 791 143 817 186 q 720 64 765 99 q 607 6 676 28 q 455 -15 538 -15 q 176 91 283 -15 q 69 367 69 198 q 177 643 69 537 q 456 749 285 749 q 729 644 626 749 q 831 370 831 538 q 828 316 831 334 l 219 316 q 296 165 233 219 q 460 111 358 111 q 612 147 559 111 q 671 232 665 183 l 821 232 m 457 624 q 301 574 363 624 q 222 433 238 523 l 674 433 q 611 570 667 516 q 457 624 555 624 z "},"Ĕ":{"ha":768,"x_min":94,"x_max":674,"o":"m 215 1196 l 306 1196 q 330 1147 306 1167 q 392 1127 354 1127 q 456 1147 432 1127 q 479 1196 479 1167 l 572 1196 q 520 1102 572 1139 q 392 1065 469 1065 q 265 1102 316 1065 q 215 1196 215 1139 m 674 125 l 674 0 l 94 0 l 94 1024 l 674 1024 l 674 899 l 245 899 l 245 576 l 597 576 l 597 451 l 245 451 l 245 125 l 674 125 z "},"ĕ":{"ha":900,"x_min":69,"x_max":831,"o":"m 276 1038 l 367 1038 q 391 967 367 995 q 454 939 415 939 q 518 967 494 939 q 542 1038 542 994 l 633 1038 q 583 920 633 964 q 454 877 533 877 q 326 920 376 877 q 276 1038 276 964 m 821 232 q 791 143 817 186 q 720 64 765 99 q 607 6 676 28 q 455 -15 538 -15 q 176 91 283 -15 q 69 367 69 198 q 177 643 69 537 q 456 749 285 749 q 729 644 626 749 q 831 370 831 538 q 828 316 831 334 l 219 316 q 296 165 233 219 q 460 111 358 111 q 612 147 559 111 q 671 232 665 183 l 821 232 m 457 624 q 301 574 363 624 q 222 433 238 523 l 674 433 q 611 570 667 516 q 457 624 555 624 z "},"Ė":{"ha":768,"x_min":94,"x_max":674,"o":"m 394 1089 q 327 1110 354 1089 q 299 1168 299 1132 q 327 1226 299 1204 q 394 1247 354 1247 q 461 1226 434 1247 q 489 1168 489 1204 q 461 1110 489 1132 q 394 1089 434 1089 m 674 125 l 674 0 l 94 0 l 94 1024 l 674 1024 l 674 899 l 245 899 l 245 576 l 597 576 l 597 451 l 245 451 l 245 125 l 674 125 z "},"ė":{"ha":900,"x_min":69,"x_max":831,"o":"m 522 911 q 508 900 522 911 q 455 890 494 890 q 388 911 415 890 q 360 969 360 933 q 388 1026 360 1005 q 455 1048 415 1048 q 522 1026 494 1048 q 549 969 549 1005 q 522 911 549 933 m 821 232 q 791 143 817 186 q 720 64 765 99 q 607 6 676 28 q 455 -15 538 -15 q 176 91 283 -15 q 69 367 69 198 q 177 643 69 537 q 456 749 285 749 q 729 644 626 749 q 831 370 831 538 q 828 316 831 334 l 219 316 q 296 165 233 219 q 460 111 358 111 q 612 147 559 111 q 671 232 665 183 l 821 232 m 457 624 q 301 574 363 624 q 222 433 238 523 l 674 433 q 611 570 667 516 q 457 624 555 624 z "},"Ę":{"ha":768,"x_min":94,"x_max":674,"o":"m 674 -224 l 674 -299 q 610 -304 642 -304 q 502 -277 544 -304 q 460 -196 460 -251 q 502 -92 460 -146 q 594 0 543 -37 l 94 0 l 94 1024 l 674 1024 l 674 899 l 245 899 l 245 576 l 597 576 l 597 451 l 245 451 l 245 125 l 674 125 l 674 0 q 589 -90 629 -39 q 549 -175 549 -141 q 619 -229 549 -229 q 674 -224 642 -229 z "},"ę":{"ha":900,"x_min":69,"x_max":831,"o":"m 619 -210 l 619 -285 q 555 -290 588 -290 q 449 -263 490 -290 q 408 -181 408 -236 q 437 -95 408 -140 q 506 -13 465 -51 q 455 -15 481 -15 q 176 91 283 -15 q 69 367 69 198 q 177 643 69 537 q 456 749 285 749 q 729 644 626 749 q 831 370 831 538 q 828 316 831 334 l 219 316 q 296 165 233 219 q 460 111 358 111 q 612 147 559 111 q 671 232 665 183 l 821 232 q 760 100 815 162 q 613 8 706 39 q 531 -81 568 -33 q 494 -160 494 -128 q 564 -215 494 -215 q 619 -210 592 -215 m 457 624 q 301 574 363 624 q 222 433 238 523 l 674 433 q 611 570 667 516 q 457 624 555 624 z "},"Ě":{"ha":768,"x_min":94,"x_max":674,"o":"m 184 1208 l 289 1208 l 392 1119 l 495 1208 l 601 1208 l 447 1078 l 338 1078 l 184 1208 m 674 125 l 674 0 l 94 0 l 94 1024 l 674 1024 l 674 899 l 245 899 l 245 576 l 597 576 l 597 451 l 245 451 l 245 125 l 674 125 z "},"ě":{"ha":900,"x_min":69,"x_max":831,"o":"m 249 1024 l 351 1024 l 454 903 l 557 1024 l 660 1024 l 506 849 l 402 849 l 249 1024 m 821 232 q 791 143 817 186 q 720 64 765 99 q 607 6 676 28 q 455 -15 538 -15 q 176 91 283 -15 q 69 367 69 198 q 177 643 69 537 q 456 749 285 749 q 729 644 626 749 q 831 370 831 538 q 828 316 831 334 l 219 316 q 296 165 233 219 q 460 111 358 111 q 612 147 559 111 q 671 232 665 183 l 821 232 m 457 624 q 301 574 363 624 q 222 433 238 523 l 674 433 q 611 570 667 516 q 457 624 555 624 z "},"Ĝ":{"ha":965,"x_min":66,"x_max":872,"o":"m 292 1078 l 446 1208 l 554 1208 l 709 1078 l 603 1078 l 500 1167 l 397 1078 l 292 1078 m 488 -15 q 323 21 399 -15 q 189 123 247 57 q 99 288 132 188 q 66 510 66 388 q 100 733 66 633 q 192 899 133 833 q 331 1001 251 965 q 503 1038 410 1038 q 643 1015 580 1038 q 748 956 707 992 q 818 873 790 919 q 859 781 847 826 q 872 692 872 735 l 872 683 l 725 683 l 725 692 q 711 769 725 731 q 671 838 697 807 q 601 889 644 869 q 503 908 557 908 q 393 884 444 908 q 303 813 343 860 q 241 688 263 765 q 218 510 218 610 q 232 362 218 428 q 272 250 247 295 q 332 173 297 204 q 408 128 367 142 q 495 114 449 114 q 593 129 549 114 q 665 170 638 144 q 710 223 693 195 q 733 282 727 251 l 733 376 l 499 376 l 499 494 l 869 494 l 869 0 l 772 0 l 761 114 q 738 80 754 99 q 690 39 721 62 q 606 1 659 16 q 488 -15 552 -15 z "},"ĝ":{"ha":856,"x_min":44,"x_max":812,"o":"m 205 849 l 358 1024 l 462 1024 l 615 849 l 513 849 l 410 970 l 306 849 l 205 849 m 583 59 q 738 11 683 50 q 793 -107 793 -27 q 695 -260 793 -204 q 413 -316 597 -316 q 139 -264 235 -316 q 44 -122 44 -212 q 65 -40 44 -74 l 206 -60 q 191 -114 191 -79 q 419 -205 191 -205 q 593 -182 534 -205 q 652 -116 652 -158 q 645 -89 652 -100 q 630 -71 639 -78 q 602 -60 620 -65 q 570 -54 584 -56 q 531 -50 556 -52 l 251 -27 q 132 17 178 -21 q 86 111 86 55 q 111 189 86 151 q 167 244 135 226 q 74 453 74 323 q 168 666 74 582 q 408 749 262 749 q 558 719 491 749 q 663 640 626 688 l 675 738 l 812 738 l 756 449 q 718 336 744 387 q 653 246 693 285 q 553 185 613 207 q 418 164 493 164 q 255 192 326 164 q 225 141 225 168 q 246 101 225 115 q 322 82 267 86 l 583 59 m 417 287 q 561 331 509 287 q 613 456 613 375 q 560 580 613 534 q 418 625 508 625 q 277 578 331 625 q 222 453 222 531 q 274 331 222 375 q 417 287 326 287 z "},"Ğ":{"ha":965,"x_min":66,"x_max":872,"o":"m 322 1196 l 413 1196 q 437 1147 413 1167 q 500 1127 461 1127 q 563 1147 540 1127 q 587 1196 587 1167 l 679 1196 q 628 1102 679 1139 q 500 1065 576 1065 q 373 1102 424 1065 q 322 1196 322 1139 m 488 -15 q 323 21 399 -15 q 189 123 247 57 q 99 288 132 188 q 66 510 66 388 q 100 733 66 633 q 192 899 133 833 q 331 1001 251 965 q 503 1038 410 1038 q 643 1015 580 1038 q 748 956 707 992 q 818 873 790 919 q 859 781 847 826 q 872 692 872 735 l 872 683 l 725 683 l 725 692 q 711 769 725 731 q 671 838 697 807 q 601 889 644 869 q 503 908 557 908 q 393 884 444 908 q 303 813 343 860 q 241 688 263 765 q 218 510 218 610 q 232 362 218 428 q 272 250 247 295 q 332 173 297 204 q 408 128 367 142 q 495 114 449 114 q 593 129 549 114 q 665 170 638 144 q 710 223 693 195 q 733 282 727 251 l 733 376 l 499 376 l 499 494 l 869 494 l 869 0 l 772 0 l 761 114 q 738 80 754 99 q 690 39 721 62 q 606 1 659 16 q 488 -15 552 -15 z "},"ğ":{"ha":856,"x_min":44,"x_max":812,"o":"m 232 1038 l 323 1038 q 347 967 323 995 q 410 939 371 939 q 474 967 450 939 q 497 1038 497 994 l 589 1038 q 539 921 589 965 q 410 877 488 877 q 282 920 332 877 q 232 1038 232 964 m 583 59 q 738 11 683 50 q 793 -107 793 -27 q 695 -260 793 -204 q 413 -316 597 -316 q 139 -264 235 -316 q 44 -122 44 -212 q 65 -40 44 -74 l 206 -60 q 191 -114 191 -79 q 419 -205 191 -205 q 593 -182 534 -205 q 652 -116 652 -158 q 645 -89 652 -100 q 630 -71 639 -78 q 602 -60 620 -65 q 570 -54 584 -56 q 531 -50 556 -52 l 251 -27 q 132 17 178 -21 q 86 111 86 55 q 111 189 86 151 q 167 244 135 226 q 74 453 74 323 q 168 666 74 582 q 408 749 262 749 q 558 719 491 749 q 663 640 626 688 l 675 738 l 812 738 l 756 449 q 718 336 744 387 q 653 246 693 285 q 553 185 613 207 q 418 164 493 164 q 255 192 326 164 q 225 141 225 168 q 246 101 225 115 q 322 82 267 86 l 583 59 m 417 287 q 561 331 509 287 q 613 456 613 375 q 560 580 613 534 q 418 625 508 625 q 277 578 331 625 q 222 453 222 531 q 274 331 222 375 q 417 287 326 287 z "},"Ġ":{"ha":965,"x_min":66,"x_max":872,"o":"m 501 1089 q 434 1110 462 1089 q 407 1168 407 1132 q 434 1226 407 1204 q 501 1247 462 1247 q 569 1226 542 1247 q 597 1168 597 1204 q 569 1110 597 1132 q 501 1089 542 1089 m 488 -15 q 323 21 399 -15 q 189 123 247 57 q 99 288 132 188 q 66 510 66 388 q 100 733 66 633 q 192 899 133 833 q 331 1001 251 965 q 503 1038 410 1038 q 643 1015 580 1038 q 748 956 707 992 q 818 873 790 919 q 859 781 847 826 q 872 692 872 735 l 872 683 l 725 683 l 725 692 q 711 769 725 731 q 671 838 697 807 q 601 889 644 869 q 503 908 557 908 q 393 884 444 908 q 303 813 343 860 q 241 688 263 765 q 218 510 218 610 q 232 362 218 428 q 272 250 247 295 q 332 173 297 204 q 408 128 367 142 q 495 114 449 114 q 593 129 549 114 q 665 170 638 144 q 710 223 693 195 q 733 282 727 251 l 733 376 l 499 376 l 499 494 l 869 494 l 869 0 l 772 0 l 761 114 q 738 80 754 99 q 690 39 721 62 q 606 1 659 16 q 488 -15 552 -15 z "},"ġ":{"ha":856,"x_min":44,"x_max":812,"o":"m 478 911 q 464 900 478 911 q 410 890 450 890 q 343 911 371 890 q 316 969 316 933 q 343 1026 316 1005 q 410 1048 371 1048 q 478 1026 450 1048 q 506 969 506 1005 q 478 911 506 933 m 583 59 q 738 11 683 50 q 793 -107 793 -27 q 695 -260 793 -204 q 413 -316 597 -316 q 139 -264 235 -316 q 44 -122 44 -212 q 65 -40 44 -74 l 206 -60 q 191 -114 191 -79 q 419 -205 191 -205 q 593 -182 534 -205 q 652 -116 652 -158 q 645 -89 652 -100 q 630 -71 639 -78 q 602 -60 620 -65 q 570 -54 584 -56 q 531 -50 556 -52 l 251 -27 q 132 17 178 -21 q 86 111 86 55 q 111 189 86 151 q 167 244 135 226 q 74 453 74 323 q 168 666 74 582 q 408 749 262 749 q 558 719 491 749 q 663 640 626 688 l 675 738 l 812 738 l 756 449 q 718 336 744 387 q 653 246 693 285 q 553 185 613 207 q 418 164 493 164 q 255 192 326 164 q 225 141 225 168 q 246 101 225 115 q 322 82 267 86 l 583 59 m 417 287 q 561 331 509 287 q 613 456 613 375 q 560 580 613 534 q 418 625 508 625 q 277 578 331 625 q 222 453 222 531 q 274 331 222 375 q 417 287 326 287 z "},"Ģ":{"ha":965,"x_min":66,"x_max":872,"o":"m 488 -15 q 323 21 399 -15 q 189 123 247 57 q 99 288 132 188 q 66 510 66 388 q 100 733 66 633 q 192 899 133 833 q 331 1001 251 965 q 503 1038 410 1038 q 643 1015 580 1038 q 748 956 707 992 q 818 873 790 919 q 859 781 847 826 q 872 692 872 735 l 872 683 l 725 683 l 725 692 q 711 769 725 731 q 671 838 697 807 q 601 889 644 869 q 503 908 557 908 q 393 884 444 908 q 303 813 343 860 q 241 688 263 765 q 218 510 218 610 q 232 362 218 428 q 272 250 247 295 q 332 173 297 204 q 408 128 367 142 q 495 114 449 114 q 593 129 549 114 q 665 170 638 144 q 710 223 693 195 q 733 282 727 251 l 733 376 l 499 376 l 499 494 l 869 494 l 869 0 l 772 0 l 761 114 q 738 80 754 99 q 690 39 721 62 q 606 1 659 16 q 488 -15 552 -15 m 483 -174 q 440 -159 457 -174 q 423 -119 423 -144 q 444 -75 423 -91 q 495 -60 465 -60 q 548 -78 525 -60 q 570 -133 570 -96 q 535 -242 570 -199 q 451 -308 499 -286 l 440 -281 q 502 -233 475 -266 q 529 -156 529 -200 q 512 -169 525 -164 q 483 -174 499 -174 z "},"ģ":{"ha":856,"x_min":44,"x_max":812,"o":"m 420 950 q 466 934 449 950 q 483 889 483 917 q 464 842 483 860 q 411 824 445 824 q 356 848 376 824 q 336 910 336 872 q 370 998 336 961 q 451 1054 403 1035 l 465 1026 q 409 989 433 1015 q 385 938 385 963 q 397 946 388 942 q 420 950 407 950 m 583 59 q 738 11 683 50 q 793 -107 793 -27 q 695 -260 793 -204 q 413 -316 597 -316 q 139 -264 235 -316 q 44 -122 44 -212 q 65 -40 44 -74 l 206 -60 q 191 -114 191 -79 q 419 -205 191 -205 q 593 -182 534 -205 q 652 -116 652 -158 q 645 -89 652 -100 q 630 -71 639 -78 q 602 -60 620 -65 q 570 -54 584 -56 q 531 -50 556 -52 l 251 -27 q 132 17 178 -21 q 86 111 86 55 q 111 189 86 151 q 167 244 135 226 q 74 453 74 323 q 168 666 74 582 q 408 749 262 749 q 558 719 491 749 q 663 640 626 688 l 675 738 l 812 738 l 756 449 q 718 336 744 387 q 653 246 693 285 q 553 185 613 207 q 418 164 493 164 q 255 192 326 164 q 225 141 225 168 q 246 101 225 115 q 322 82 267 86 l 583 59 m 417 287 q 561 331 509 287 q 613 456 613 375 q 560 580 613 534 q 418 625 508 625 q 277 578 331 625 q 222 453 222 531 q 274 331 222 375 q 417 287 326 287 z "},"Ĥ":{"ha":918,"x_min":94,"x_max":824,"o":"m 250 1078 l 405 1208 l 513 1208 l 668 1078 l 561 1078 l 459 1167 l 356 1078 l 250 1078 m 824 1024 l 824 0 l 674 0 l 674 448 l 244 448 l 244 0 l 94 0 l 94 1024 l 244 1024 l 244 574 l 674 574 l 674 1024 l 824 1024 z "},"ĥ":{"ha":867,"x_min":-29,"x_max":775,"o":"m -29 1190 l 124 1365 l 228 1365 l 381 1190 l 278 1190 l 176 1311 l 72 1190 l -29 1190 m 99 0 l 99 1085 l 249 1085 l 249 646 q 356 722 292 694 q 494 749 419 749 q 701 670 627 749 q 775 449 775 590 l 775 0 l 624 0 l 624 411 q 583 563 624 513 q 451 613 541 613 q 304 561 359 613 q 249 426 249 508 l 249 0 l 99 0 z "},"Ħ":{"ha":918,"x_min":30,"x_max":888,"o":"m 30 752 l 30 849 l 94 849 l 94 1024 l 244 1024 l 244 849 l 674 849 l 674 1024 l 824 1024 l 824 849 l 888 849 l 888 752 l 824 752 l 824 0 l 674 0 l 674 448 l 244 448 l 244 0 l 94 0 l 94 752 l 30 752 m 244 574 l 674 574 l 674 752 l 244 752 l 244 574 z "},"ħ":{"ha":871,"x_min":13,"x_max":779,"o":"m 103 0 l 103 878 l 13 878 l 13 975 l 103 975 l 103 1085 l 253 1085 l 253 975 l 485 975 l 485 878 l 253 878 l 253 646 q 360 722 297 694 q 498 749 423 749 q 705 670 631 749 q 779 449 779 590 l 779 0 l 628 0 l 628 411 q 587 563 628 513 q 455 613 545 613 q 308 561 363 613 q 253 426 253 508 l 253 0 l 103 0 z "},"Ĩ":{"ha":342,"x_min":-34,"x_max":385,"o":"m 385 1199 q 378 1157 385 1178 q 357 1116 371 1136 q 319 1084 343 1097 q 265 1072 295 1072 q 167 1112 219 1072 q 98 1144 126 1144 q 49 1090 51 1144 l -34 1090 q 2 1177 -32 1137 q 94 1218 35 1218 q 188 1179 140 1218 q 257 1146 231 1146 q 303 1199 299 1146 l 385 1199 m 97 0 l 97 1024 l 245 1024 l 245 0 l 97 0 z "},"ĩ":{"ha":350,"x_min":-35,"x_max":385,"o":"m 385 1009 q 377 967 384 988 q 356 926 370 946 q 318 894 342 907 q 264 882 294 882 q 166 922 217 882 q 97 953 125 953 q 48 899 51 953 l -35 899 q 1 988 -33 947 q 93 1028 35 1028 q 188 990 138 1028 q 256 956 230 956 q 303 1009 299 956 l 385 1009 m 101 0 l 101 738 l 249 738 l 249 0 l 101 0 z "},"Ī":{"ha":342,"x_min":-21,"x_max":363,"o":"m -21 1118 l -21 1183 l 363 1183 l 363 1118 l -21 1118 m 97 0 l 97 1024 l 245 1024 l 245 0 l 97 0 z "},"ī":{"ha":350,"x_min":38,"x_max":313,"o":"m 38 908 l 38 974 l 313 974 l 313 908 l 38 908 m 101 0 l 101 738 l 249 738 l 249 0 l 101 0 z "},"Ĭ":{"ha":342,"x_min":-6,"x_max":351,"o":"m -6 1196 l 85 1196 q 109 1147 85 1167 q 172 1127 133 1127 q 235 1147 211 1127 q 258 1196 258 1167 l 351 1196 q 300 1102 351 1139 q 172 1065 249 1065 q 44 1102 95 1065 q -6 1196 -6 1139 m 97 0 l 97 1024 l 245 1024 l 245 0 l 97 0 z "},"ĭ":{"ha":350,"x_min":-3,"x_max":354,"o":"m -3 1038 l 88 1038 q 112 967 88 995 q 175 939 136 939 q 239 967 215 939 q 263 1038 263 994 l 354 1038 q 304 920 354 964 q 175 877 253 877 q 47 920 97 877 q -3 1038 -3 964 m 101 0 l 101 738 l 249 738 l 249 0 l 101 0 z "},"Į":{"ha":342,"x_min":31,"x_max":245,"o":"m 97 0 l 97 1024 l 245 1024 l 245 0 q 160 -91 200 -40 q 120 -175 120 -141 q 190 -229 120 -229 q 245 -224 215 -229 l 245 -299 q 181 -304 214 -304 q 73 -277 115 -304 q 31 -196 31 -251 q 73 -92 31 -146 q 165 0 114 -37 l 97 0 z "},"į":{"ha":350,"x_min":39,"x_max":270,"o":"m 243 911 q 229 900 243 911 q 176 890 215 890 q 109 911 136 890 q 81 969 81 933 q 109 1026 81 1005 q 176 1048 136 1048 q 243 1026 215 1048 q 270 969 270 1005 q 243 911 270 933 m 101 0 l 101 738 l 249 738 l 249 0 l 250 0 q 165 -90 205 -39 q 125 -175 125 -141 q 194 -229 125 -229 q 250 -224 218 -229 l 250 -299 q 185 -304 218 -304 q 80 -277 121 -304 q 39 -194 39 -250 q 80 -91 39 -146 q 169 0 121 -36 l 101 0 z "},"İ":{"ha":342,"x_min":78,"x_max":268,"o":"m 174 1089 q 106 1110 133 1089 q 78 1168 78 1132 q 106 1226 78 1204 q 174 1247 133 1247 q 241 1226 213 1247 q 268 1168 268 1204 q 241 1110 268 1132 q 174 1089 213 1089 m 97 0 l 97 1024 l 245 1024 l 245 0 l 97 0 z "},"ı":{"ha":350,"x_min":101,"x_max":249,"o":"m 101 0 l 101 738 l 249 738 l 249 0 l 101 0 z "},"Ĵ":{"ha":772,"x_min":51,"x_max":810,"o":"m 393 1078 l 547 1208 l 656 1208 l 810 1078 l 704 1078 l 601 1167 l 498 1078 l 393 1078 m 365 -15 q 221 10 282 -15 q 124 80 160 34 q 69 186 87 125 q 51 326 51 247 l 51 368 l 200 368 l 200 340 q 239 175 200 235 q 365 114 278 114 q 490 176 452 114 q 527 352 527 238 l 527 1024 l 678 1024 l 678 332 q 661 194 678 255 q 610 85 645 133 q 512 11 574 38 q 365 -15 450 -15 z "},"ĵ":{"ha":362,"x_min":-83,"x_max":391,"o":"m -20 849 l 133 1024 l 238 1024 l 391 849 l 288 849 l 185 970 l 82 849 l -20 849 m -18 -312 q -83 -308 -59 -312 l -83 -194 q -18 -201 -54 -201 q 40 -192 15 -201 q 77 -170 64 -183 q 97 -137 90 -158 q 107 -100 105 -117 q 108 -61 108 -83 l 108 738 l 259 738 l 259 -66 q 254 -139 259 -107 q 232 -205 249 -171 q 185 -261 215 -239 q 104 -298 156 -283 q -18 -312 53 -312 z "},"Ķ":{"ha":849,"x_min":94,"x_max":805,"o":"m 637 0 l 342 454 l 244 324 l 244 0 l 94 0 l 94 1024 l 244 1024 l 244 534 l 619 1024 l 781 1024 l 435 568 l 805 0 l 637 0 m 419 -174 q 376 -159 393 -174 q 359 -119 359 -144 q 380 -75 359 -91 q 431 -60 401 -60 q 484 -78 461 -60 q 506 -133 506 -96 q 471 -242 506 -199 q 388 -308 435 -286 l 376 -281 q 438 -233 411 -266 q 465 -156 465 -200 q 448 -169 461 -164 q 419 -174 435 -174 z "},"ķ":{"ha":741,"x_min":99,"x_max":724,"o":"m 99 0 l 99 1085 l 242 1085 l 242 484 l 534 738 l 724 738 l 417 467 l 724 0 l 563 0 l 322 381 l 242 311 l 242 0 l 99 0 m 390 -174 q 345 -159 363 -174 q 328 -119 328 -144 q 350 -75 328 -91 q 401 -60 371 -60 q 453 -78 431 -60 q 476 -133 476 -96 q 441 -242 476 -199 q 358 -308 406 -285 l 346 -281 q 408 -233 381 -266 q 435 -156 435 -200 q 418 -169 431 -164 q 390 -174 404 -174 z "},"ĸ":{"ha":669,"x_min":99,"x_max":654,"o":"m 493 0 l 300 291 l 242 215 l 242 0 l 99 0 l 99 738 l 242 738 l 242 402 l 485 738 l 642 738 l 392 398 l 654 0 l 493 0 z "},"Ĺ":{"ha":699,"x_min":72,"x_max":641,"o":"m 72 1078 l 266 1210 l 401 1210 l 194 1078 l 72 1078 m 94 0 l 94 1024 l 244 1024 l 244 128 l 641 128 l 641 0 l 94 0 z "},"ĺ":{"ha":360,"x_min":85,"x_max":414,"o":"m 85 1140 l 279 1272 l 414 1272 l 207 1140 l 85 1140 m 258 1085 l 258 0 l 109 0 l 109 1085 l 258 1085 z "},"Ļ":{"ha":699,"x_min":94,"x_max":641,"o":"m 94 0 l 94 1024 l 244 1024 l 244 128 l 641 128 l 641 0 l 94 0 m 368 -174 q 324 -159 341 -174 q 308 -119 308 -144 q 329 -75 308 -91 q 380 -60 350 -60 q 432 -78 410 -60 q 455 -133 455 -96 q 419 -242 455 -199 q 336 -308 384 -286 l 324 -281 q 387 -233 360 -266 q 414 -156 414 -200 q 397 -169 410 -164 q 368 -174 383 -174 z "},"ļ":{"ha":360,"x_min":108,"x_max":258,"o":"m 258 1085 l 258 0 l 109 0 l 109 1085 l 258 1085 m 169 -174 q 125 -159 142 -174 q 108 -119 108 -144 q 129 -75 108 -91 q 180 -60 150 -60 q 232 -78 210 -60 q 255 -133 255 -96 q 220 -242 255 -199 q 137 -308 185 -285 l 125 -281 q 187 -233 160 -266 q 215 -156 215 -200 q 197 -169 210 -164 q 169 -174 183 -174 z "},"Ľ":{"ha":699,"x_min":94,"x_max":641,"o":"m 94 0 l 94 1024 l 244 1024 l 244 128 l 641 128 l 641 0 l 94 0 m 592 1024 q 560 749 592 894 l 487 749 q 500 864 494 782 q 507 1024 507 945 l 592 1024 z "},"ľ":{"ha":435,"x_min":109,"x_max":435,"o":"m 258 1085 l 258 0 l 109 0 l 109 1085 l 258 1085 m 435 1085 q 403 810 435 956 l 330 810 q 343 925 337 843 q 350 1085 350 1006 l 435 1085 z "},"Ŀ":{"ha":699,"x_min":94,"x_max":641,"o":"m 94 0 l 94 1024 l 244 1024 l 244 128 l 641 128 l 641 0 l 94 0 m 519 470 q 453 497 481 470 q 426 562 426 524 q 453 627 426 600 q 519 653 481 653 q 583 627 556 653 q 610 562 610 600 q 583 497 610 524 q 519 470 556 470 z "},"ŀ":{"ha":504,"x_min":99,"x_max":503,"o":"m 247 1085 l 247 0 l 99 0 l 99 1085 l 247 1085 m 477 497 q 463 484 477 497 q 412 470 450 470 q 347 497 374 470 q 320 562 320 524 q 347 627 320 600 q 412 653 374 653 q 477 627 450 653 q 503 562 503 600 q 477 497 503 524 z "},"Ł":{"ha":749,"x_min":-8,"x_max":692,"o":"m 144 0 l 144 338 l 46 272 l -8 375 l 144 476 l 144 1024 l 296 1024 l 296 576 l 451 679 l 504 576 l 296 438 l 296 128 l 692 128 l 692 0 l 144 0 z "},"ł":{"ha":351,"x_min":-34,"x_max":361,"o":"m -34 549 l 109 628 l 109 1085 l 258 1085 l 258 711 l 319 746 l 361 665 l 258 608 l 258 0 l 109 0 l 109 525 l 8 468 l -34 549 z "},"Ń":{"ha":961,"x_min":94,"x_max":867,"o":"m 393 1078 l 587 1210 l 722 1210 l 515 1078 l 393 1078 m 240 0 l 94 0 l 94 1024 l 334 1024 l 720 114 l 720 1024 l 867 1024 l 867 0 l 624 0 l 240 904 l 240 0 z "},"ń":{"ha":866,"x_min":99,"x_max":774,"o":"m 355 849 l 521 1024 l 648 1024 l 466 849 l 355 849 m 99 0 l 99 738 l 249 738 l 249 628 q 358 717 293 685 q 497 749 422 749 q 700 675 626 749 q 774 472 774 600 l 774 0 l 624 0 l 624 430 q 450 613 624 613 q 307 552 365 613 q 249 402 249 492 l 249 0 l 99 0 z "},"Ņ":{"ha":961,"x_min":94,"x_max":867,"o":"m 240 0 l 94 0 l 94 1024 l 334 1024 l 720 114 l 720 1024 l 867 1024 l 867 0 l 624 0 l 240 904 l 240 0 m 475 -174 q 431 -159 448 -174 q 415 -119 415 -144 q 436 -75 415 -91 q 487 -60 457 -60 q 539 -78 517 -60 q 562 -133 562 -96 q 526 -242 562 -199 q 443 -308 491 -286 l 431 -281 q 494 -233 467 -266 q 521 -156 521 -200 q 503 -169 517 -164 q 475 -174 490 -174 z "},"ņ":{"ha":866,"x_min":99,"x_max":774,"o":"m 99 0 l 99 738 l 249 738 l 249 628 q 358 717 293 685 q 497 749 422 749 q 700 675 626 749 q 774 472 774 600 l 774 0 l 624 0 l 624 430 q 450 613 624 613 q 307 552 365 613 q 249 402 249 492 l 249 0 l 99 0 m 418 -174 q 374 -159 391 -174 q 357 -119 357 -144 q 378 -75 357 -90 q 430 -60 399 -60 q 482 -78 460 -60 q 505 -133 505 -96 q 469 -242 505 -199 q 386 -308 434 -285 l 374 -281 q 436 -233 409 -266 q 464 -156 464 -200 q 447 -169 460 -164 q 418 -174 433 -174 z "},"Ň":{"ha":961,"x_min":94,"x_max":867,"o":"m 280 1208 l 385 1208 l 488 1119 l 591 1208 l 697 1208 l 542 1078 l 434 1078 l 280 1208 m 240 0 l 94 0 l 94 1024 l 334 1024 l 720 114 l 720 1024 l 867 1024 l 867 0 l 624 0 l 240 904 l 240 0 z "},"ň":{"ha":866,"x_min":99,"x_max":774,"o":"m 242 1024 l 344 1024 l 447 903 l 550 1024 l 653 1024 l 499 849 l 396 849 l 242 1024 m 99 0 l 99 738 l 249 738 l 249 628 q 358 717 293 685 q 497 749 422 749 q 700 675 626 749 q 774 472 774 600 l 774 0 l 624 0 l 624 430 q 450 613 624 613 q 307 552 365 613 q 249 402 249 492 l 249 0 l 99 0 z "},"Ŋ":{"ha":961,"x_min":94,"x_max":867,"o":"m 547 -317 q 473 -309 498 -317 l 473 -199 q 547 -208 500 -208 q 675 -160 633 -208 q 718 -43 718 -113 l 718 0 l 633 0 l 240 897 l 240 0 l 94 0 l 94 1024 l 331 1024 l 720 133 l 720 1024 l 867 1024 l 867 -40 q 793 -247 867 -177 q 547 -317 718 -317 z "},"ŋ":{"ha":855,"x_min":99,"x_max":763,"o":"m 99 0 l 99 738 l 249 738 l 249 628 q 358 717 293 685 q 497 749 422 749 q 694 675 626 749 q 763 472 763 601 l 763 -40 q 689 -247 763 -177 q 443 -317 615 -317 l 443 -208 q 570 -160 527 -208 q 613 -43 613 -113 l 613 430 q 576 566 613 518 q 450 613 540 613 q 307 552 365 613 q 249 402 249 492 l 249 0 l 99 0 z "},"Ō":{"ha":985,"x_min":66,"x_max":919,"o":"m 300 1118 l 300 1183 l 684 1183 l 684 1118 l 300 1118 m 661 21 q 622 3 661 21 q 492 -15 583 -15 q 323 21 401 -15 q 188 123 245 57 q 98 289 131 189 q 66 513 66 390 q 98 737 66 637 q 188 902 131 837 q 323 1002 245 967 q 492 1038 401 1038 q 663 1002 585 1038 q 798 902 740 967 q 887 737 855 837 q 919 513 919 637 q 887 289 919 390 q 797 123 854 189 q 661 21 740 57 m 492 114 q 691 215 616 114 q 766 513 766 316 q 691 809 766 710 q 492 908 616 908 q 294 809 369 908 q 219 513 219 710 q 294 215 219 316 q 492 114 369 114 z "},"ō":{"ha":910,"x_min":69,"x_max":841,"o":"m 263 908 l 263 974 l 647 974 l 647 908 l 263 908 m 733 94 q 679 40 733 94 q 455 -14 625 -14 q 177 94 285 -14 q 69 369 69 201 q 176 642 69 536 q 455 749 284 749 q 733 642 626 749 q 841 369 841 536 q 733 94 841 201 m 285 185 q 318 150 285 185 q 455 115 350 115 q 625 185 560 115 q 690 369 690 255 q 625 551 690 483 q 455 619 560 619 q 285 551 350 619 q 220 369 220 483 q 285 185 220 255 z "},"Ŏ":{"ha":985,"x_min":66,"x_max":919,"o":"m 315 1196 l 406 1196 q 430 1147 406 1167 q 492 1127 453 1127 q 556 1147 532 1127 q 579 1196 579 1167 l 672 1196 q 620 1102 672 1139 q 492 1065 569 1065 q 365 1102 416 1065 q 315 1196 315 1139 m 661 21 q 622 3 661 21 q 492 -15 583 -15 q 323 21 401 -15 q 188 123 245 57 q 98 289 131 189 q 66 513 66 390 q 98 737 66 637 q 188 902 131 837 q 323 1002 245 967 q 492 1038 401 1038 q 663 1002 585 1038 q 798 902 740 967 q 887 737 855 837 q 919 513 919 637 q 887 289 919 390 q 797 123 854 189 q 661 21 740 57 m 492 114 q 691 215 616 114 q 766 513 766 316 q 691 809 766 710 q 492 908 616 908 q 294 809 369 908 q 219 513 219 710 q 294 215 219 316 q 492 114 369 114 z "},"ŏ":{"ha":910,"x_min":69,"x_max":841,"o":"m 277 1038 l 368 1038 q 392 967 368 995 q 456 939 416 939 q 519 967 495 939 q 542 1038 542 994 l 634 1038 q 584 921 634 965 q 456 877 533 877 q 327 921 378 877 q 277 1038 277 965 m 733 94 q 679 40 733 94 q 455 -14 625 -14 q 177 94 285 -14 q 69 369 69 201 q 176 642 69 536 q 455 749 284 749 q 733 642 626 749 q 841 369 841 536 q 733 94 841 201 m 285 185 q 318 150 285 185 q 455 115 350 115 q 625 185 560 115 q 690 369 690 255 q 625 551 690 483 q 455 619 560 619 q 285 551 350 619 q 220 369 220 483 q 285 185 220 255 z "},"Ő":{"ha":985,"x_min":66,"x_max":919,"o":"m 336 1078 l 499 1210 l 609 1210 l 431 1078 l 336 1078 m 546 1078 l 708 1210 l 818 1210 l 640 1078 l 546 1078 m 661 21 q 622 3 661 21 q 492 -15 583 -15 q 323 21 401 -15 q 188 123 245 57 q 98 289 131 189 q 66 513 66 390 q 98 737 66 637 q 188 902 131 837 q 323 1002 245 967 q 492 1038 401 1038 q 663 1002 585 1038 q 798 902 740 967 q 887 737 855 837 q 919 513 919 637 q 887 289 919 390 q 797 123 854 189 q 661 21 740 57 m 492 114 q 691 215 616 114 q 766 513 766 316 q 691 809 766 710 q 492 908 616 908 q 294 809 369 908 q 219 513 219 710 q 294 215 219 316 q 492 114 369 114 z "},"ő":{"ha":910,"x_min":69,"x_max":841,"o":"m 294 849 l 403 1024 l 508 1024 l 378 849 l 294 849 m 517 849 l 632 1024 l 738 1024 l 600 849 l 517 849 m 733 94 q 679 40 733 94 q 455 -14 625 -14 q 177 94 285 -14 q 69 369 69 201 q 176 642 69 536 q 455 749 284 749 q 733 642 626 749 q 841 369 841 536 q 733 94 841 201 m 285 185 q 318 150 285 185 q 455 115 350 115 q 625 185 560 115 q 690 369 690 255 q 625 551 690 483 q 455 619 560 619 q 285 551 350 619 q 220 369 220 483 q 285 185 220 255 z "},"Œ":{"ha":1436,"x_min":66,"x_max":1342,"o":"m 484 -15 q 316 21 393 -15 q 184 123 240 56 q 97 289 128 189 q 66 513 66 390 q 97 737 66 638 q 183 902 128 837 q 316 1002 239 967 q 484 1038 392 1038 q 652 1002 580 1038 q 762 910 725 967 l 762 1024 l 1342 1024 l 1342 899 l 907 899 l 907 576 l 1288 576 l 1288 451 l 907 451 l 907 125 l 1342 125 l 1342 0 l 762 0 l 762 124 q 652 24 725 63 q 484 -15 580 -15 m 484 114 q 684 215 608 114 q 760 513 760 316 q 684 809 760 710 q 484 908 608 908 q 290 810 362 908 q 219 513 219 711 q 291 214 219 315 q 484 114 363 114 z "},"œ":{"ha":1522,"x_min":69,"x_max":1453,"o":"m 455 -14 q 177 94 285 -14 q 69 369 69 201 q 176 642 69 536 q 455 749 284 749 q 634 710 553 749 q 766 603 715 672 q 898 711 817 673 q 1078 749 979 749 q 1351 644 1249 749 q 1453 370 1453 538 q 1451 316 1453 334 l 840 316 q 915 164 853 216 q 1081 111 976 111 q 1235 147 1183 111 q 1293 232 1288 183 l 1443 232 q 1413 143 1439 186 q 1343 64 1388 99 q 1229 6 1298 28 q 1077 -15 1160 -15 q 897 23 977 -15 q 765 132 816 62 q 633 25 713 63 q 455 -14 553 -14 m 843 433 l 1295 433 l 1295 441 q 1235 572 1293 519 q 1079 624 1177 624 q 919 573 981 624 q 843 433 858 522 m 285 185 q 317 150 285 185 q 455 115 350 115 q 625 185 560 115 q 690 369 690 255 q 625 551 690 483 q 455 619 560 619 q 285 551 350 619 q 219 369 219 483 q 285 185 219 255 z "},"Ŕ":{"ha":846,"x_min":94,"x_max":768,"o":"m 293 1078 l 487 1210 l 622 1210 l 415 1078 l 293 1078 m 94 0 l 94 1024 l 469 1024 q 768 749 768 1024 q 750 642 768 692 q 703 561 731 592 q 643 511 674 530 q 581 489 611 492 q 640 476 613 486 q 691 445 667 465 q 728 391 715 426 q 742 311 742 357 l 742 91 q 760 0 742 22 l 608 0 q 592 91 592 26 l 592 293 q 553 392 592 358 q 439 425 514 425 l 241 425 l 241 0 l 94 0 m 433 899 l 241 899 l 241 550 l 440 550 q 564 602 514 550 q 613 737 613 653 q 433 899 613 899 z "},"ŕ":{"ha":585,"x_min":99,"x_max":563,"o":"m 265 849 l 431 1024 l 559 1024 l 376 849 l 265 849 m 99 0 l 99 738 l 249 738 l 249 640 q 458 749 317 749 q 526 743 497 749 q 563 731 555 737 l 531 590 q 444 610 502 610 q 350 590 390 610 q 289 536 310 569 q 259 465 268 502 q 249 385 249 427 l 249 0 l 99 0 z "},"Ŗ":{"ha":846,"x_min":94,"x_max":768,"o":"m 94 0 l 94 1024 l 469 1024 q 768 749 768 1024 q 750 642 768 692 q 703 561 731 592 q 643 511 674 530 q 581 489 611 492 q 640 476 613 486 q 691 445 667 465 q 728 391 715 426 q 742 311 742 357 l 742 91 q 760 0 742 22 l 608 0 q 592 91 592 26 l 592 293 q 553 392 592 358 q 439 425 514 425 l 241 425 l 241 0 l 94 0 m 433 899 l 241 899 l 241 550 l 440 550 q 564 602 514 550 q 613 737 613 653 q 433 899 613 899 m 417 -174 q 373 -159 390 -174 q 356 -119 356 -144 q 377 -75 356 -90 q 429 -60 399 -60 q 481 -78 459 -60 q 503 -133 503 -96 q 468 -242 503 -199 q 385 -308 433 -285 l 374 -281 q 436 -233 408 -266 q 463 -156 463 -200 q 445 -169 459 -164 q 417 -174 432 -174 z "},"ŗ":{"ha":585,"x_min":99,"x_max":563,"o":"m 99 0 l 99 738 l 249 738 l 249 640 q 458 749 317 749 q 526 743 497 749 q 563 731 555 737 l 531 590 q 444 610 502 610 q 350 590 390 610 q 289 536 310 569 q 259 465 268 502 q 249 385 249 427 l 249 0 l 99 0 m 161 -174 q 117 -159 134 -174 q 101 -119 101 -144 q 122 -75 101 -91 q 173 -60 143 -60 q 225 -78 203 -60 q 248 -133 248 -96 q 213 -242 248 -199 q 129 -308 177 -286 l 117 -281 q 180 -233 153 -266 q 207 -156 207 -200 q 190 -169 203 -164 q 161 -174 176 -174 z "},"Ř":{"ha":846,"x_min":94,"x_max":768,"o":"m 181 1208 l 285 1208 l 389 1119 l 492 1208 l 598 1208 l 443 1078 l 335 1078 l 181 1208 m 94 0 l 94 1024 l 469 1024 q 768 749 768 1024 q 750 642 768 692 q 703 561 731 592 q 643 511 674 530 q 581 489 611 492 q 640 476 613 486 q 691 445 667 465 q 728 391 715 426 q 742 311 742 357 l 742 91 q 760 0 742 22 l 608 0 q 592 91 592 26 l 592 293 q 553 392 592 358 q 439 425 514 425 l 241 425 l 241 0 l 94 0 m 433 899 l 241 899 l 241 550 l 440 550 q 564 602 514 550 q 613 737 613 653 q 433 899 613 899 z "},"ř":{"ha":585,"x_min":99,"x_max":564,"o":"m 153 1024 l 255 1024 l 358 903 l 460 1024 l 564 1024 l 410 849 l 306 849 l 153 1024 m 99 0 l 99 738 l 249 738 l 249 640 q 458 749 317 749 q 526 743 497 749 q 563 731 555 737 l 531 590 q 444 610 502 610 q 350 590 390 610 q 289 536 310 569 q 259 465 268 502 q 249 385 249 427 l 249 0 l 99 0 z "},"Ś":{"ha":832,"x_min":66,"x_max":766,"o":"m 319 1078 l 513 1210 l 648 1210 l 441 1078 l 319 1078 m 416 -15 q 158 64 251 -15 q 66 294 66 142 l 66 339 l 217 339 l 217 297 q 415 114 217 114 q 568 148 517 114 q 619 256 619 183 q 601 326 619 295 q 547 380 583 356 q 470 422 511 404 q 367 458 428 440 q 251 505 301 478 q 158 568 200 531 q 95 657 117 606 q 73 771 73 708 q 166 967 73 897 q 410 1038 258 1038 q 665 963 572 1038 q 758 744 758 888 l 758 696 l 607 696 l 607 738 q 559 868 607 826 q 413 909 510 909 q 219 771 219 909 q 232 712 219 739 q 265 666 245 685 q 320 629 285 647 q 388 598 355 610 q 469 569 420 585 q 594 519 543 544 q 685 458 644 494 q 746 373 726 422 q 766 261 766 325 q 672 58 766 131 q 416 -15 578 -15 z "},"ś":{"ha":781,"x_min":69,"x_max":713,"o":"m 298 849 l 463 1024 l 591 1024 l 408 849 l 298 849 m 389 -15 q 228 10 299 -15 q 113 87 156 35 q 69 209 69 138 l 69 228 l 219 228 l 219 214 q 265 138 219 164 q 393 111 310 111 q 517 134 469 111 q 565 202 565 158 q 520 272 565 249 q 365 313 475 294 q 279 331 318 321 q 202 360 240 342 q 138 401 163 378 q 95 457 112 424 q 79 533 79 491 q 167 692 79 634 q 390 749 256 749 q 543 723 474 749 q 656 645 613 697 q 699 522 699 592 l 699 510 l 550 510 l 550 519 q 503 597 550 570 q 390 624 457 624 q 332 620 360 624 q 281 606 305 615 q 242 578 256 596 q 227 538 227 561 q 240 496 227 513 q 282 466 253 478 q 342 445 310 453 q 424 428 374 438 q 510 410 472 420 q 587 383 547 401 q 653 343 626 365 q 696 286 679 320 q 713 208 713 251 q 666 83 713 135 q 549 9 620 32 q 389 -15 477 -15 z "},"Ŝ":{"ha":832,"x_min":66,"x_max":766,"o":"m 206 1078 l 360 1208 l 469 1208 l 624 1078 l 517 1078 l 415 1167 l 312 1078 l 206 1078 m 416 -15 q 158 64 251 -15 q 66 294 66 142 l 66 339 l 217 339 l 217 297 q 415 114 217 114 q 568 148 517 114 q 619 256 619 183 q 601 326 619 295 q 547 380 583 356 q 470 422 511 404 q 367 458 428 440 q 251 505 301 478 q 158 568 200 531 q 95 657 117 606 q 73 771 73 708 q 166 967 73 897 q 410 1038 258 1038 q 665 963 572 1038 q 758 744 758 888 l 758 696 l 607 696 l 607 738 q 559 868 607 826 q 413 909 510 909 q 219 771 219 909 q 232 712 219 739 q 265 666 245 685 q 320 629 285 647 q 388 598 355 610 q 469 569 420 585 q 594 519 543 544 q 685 458 644 494 q 746 373 726 422 q 766 261 766 325 q 672 58 766 131 q 416 -15 578 -15 z "},"ŝ":{"ha":781,"x_min":69,"x_max":713,"o":"m 185 849 l 338 1024 l 442 1024 l 596 849 l 493 849 l 390 970 l 287 849 l 185 849 m 389 -15 q 228 10 299 -15 q 113 87 156 35 q 69 209 69 138 l 69 228 l 219 228 l 219 214 q 265 138 219 164 q 393 111 310 111 q 517 134 469 111 q 565 202 565 158 q 520 272 565 249 q 365 313 475 294 q 279 331 318 321 q 202 360 240 342 q 138 401 163 378 q 95 457 112 424 q 79 533 79 491 q 167 692 79 634 q 390 749 256 749 q 543 723 474 749 q 656 645 613 697 q 699 522 699 592 l 699 510 l 550 510 l 550 519 q 503 597 550 570 q 390 624 457 624 q 332 620 360 624 q 281 606 305 615 q 242 578 256 596 q 227 538 227 561 q 240 496 227 513 q 282 466 253 478 q 342 445 310 453 q 424 428 374 438 q 510 410 472 420 q 587 383 547 401 q 653 343 626 365 q 696 286 679 320 q 713 208 713 251 q 666 83 713 135 q 549 9 620 32 q 389 -15 477 -15 z "},"Ş":{"ha":832,"x_min":66,"x_max":766,"o":"m 479 -63 q 548 -90 519 -63 q 577 -167 577 -117 q 527 -260 577 -228 q 406 -293 477 -293 q 330 -284 367 -293 q 277 -264 292 -274 l 308 -205 q 351 -224 323 -215 q 411 -233 380 -233 q 481 -215 453 -233 q 508 -164 508 -197 q 493 -124 508 -137 q 455 -111 479 -111 q 419 -118 437 -111 q 392 -137 401 -125 l 332 -119 l 375 -13 q 147 74 228 -3 q 66 294 66 152 l 66 339 l 217 339 l 217 297 q 415 114 217 114 q 568 148 517 114 q 619 256 619 183 q 601 326 619 295 q 547 380 583 356 q 470 422 511 404 q 367 458 428 440 q 251 505 301 478 q 158 568 200 531 q 95 657 117 606 q 73 771 73 708 q 166 967 73 897 q 410 1038 258 1038 q 665 963 572 1038 q 758 744 758 888 l 758 696 l 607 696 l 607 738 q 559 868 607 826 q 413 909 510 909 q 219 771 219 909 q 232 712 219 739 q 265 666 245 685 q 320 629 285 647 q 388 598 355 610 q 469 569 420 585 q 594 519 543 544 q 685 458 644 494 q 746 373 726 422 q 766 261 766 325 q 680 64 766 137 q 442 -14 593 -8 l 415 -81 q 479 -63 443 -63 z "},"ş":{"ha":779,"x_min":69,"x_max":713,"o":"m 456 -74 q 525 -100 496 -74 q 555 -176 555 -126 q 505 -270 555 -237 q 383 -303 454 -303 q 307 -294 344 -303 q 254 -274 269 -285 l 285 -215 q 328 -234 300 -225 q 388 -243 357 -243 q 458 -225 431 -243 q 485 -174 485 -206 q 470 -135 485 -148 q 433 -122 456 -122 q 397 -128 415 -122 q 369 -147 378 -135 l 307 -129 l 354 -14 q 149 52 228 -6 q 69 209 69 110 l 69 228 l 219 228 l 219 214 q 265 138 219 164 q 393 111 310 111 q 517 134 469 111 q 565 202 565 158 q 520 272 565 249 q 365 313 475 294 q 279 331 318 321 q 202 360 240 342 q 138 401 163 378 q 95 457 112 424 q 79 533 79 491 q 167 692 79 634 q 390 749 256 749 q 543 723 474 749 q 656 645 613 697 q 699 522 699 592 l 699 510 l 550 510 l 550 519 q 503 597 550 570 q 390 624 457 624 q 332 620 360 624 q 281 606 305 615 q 242 578 256 596 q 227 538 227 561 q 240 496 227 513 q 282 466 253 478 q 342 445 310 453 q 424 428 374 438 q 510 410 472 420 q 587 383 547 401 q 653 343 626 365 q 696 286 679 320 q 713 208 713 251 q 672 91 713 140 q 569 16 632 41 q 426 -14 506 -9 l 397 -87 q 456 -74 425 -74 z "},"Š":{"ha":832,"x_min":66,"x_max":766,"o":"m 206 1208 l 312 1208 l 415 1119 l 517 1208 l 624 1208 l 469 1078 l 360 1078 l 206 1208 m 416 -15 q 158 64 251 -15 q 66 294 66 142 l 66 339 l 217 339 l 217 297 q 415 114 217 114 q 568 148 517 114 q 619 256 619 183 q 601 326 619 295 q 547 380 583 356 q 470 422 511 404 q 367 458 428 440 q 251 505 301 478 q 158 568 200 531 q 95 657 117 606 q 73 771 73 708 q 166 967 73 897 q 410 1038 258 1038 q 665 963 572 1038 q 758 744 758 888 l 758 696 l 607 696 l 607 738 q 559 868 607 826 q 413 909 510 909 q 219 771 219 909 q 232 712 219 739 q 265 666 245 685 q 320 629 285 647 q 388 598 355 610 q 469 569 420 585 q 594 519 543 544 q 685 458 644 494 q 746 373 726 422 q 766 261 766 325 q 672 58 766 131 q 416 -15 578 -15 z "},"š":{"ha":781,"x_min":69,"x_max":713,"o":"m 185 1024 l 287 1024 l 390 903 l 493 1024 l 596 1024 l 442 849 l 338 849 l 185 1024 m 389 -15 q 228 10 299 -15 q 113 87 156 35 q 69 209 69 138 l 69 228 l 219 228 l 219 214 q 265 138 219 164 q 393 111 310 111 q 517 134 469 111 q 565 202 565 158 q 520 272 565 249 q 365 313 475 294 q 279 331 318 321 q 202 360 240 342 q 138 401 163 378 q 95 457 112 424 q 79 533 79 491 q 167 692 79 634 q 390 749 256 749 q 543 723 474 749 q 656 645 613 697 q 699 522 699 592 l 699 510 l 550 510 l 550 519 q 503 597 550 570 q 390 624 457 624 q 332 620 360 624 q 281 606 305 615 q 242 578 256 596 q 227 538 227 561 q 240 496 227 513 q 282 466 253 478 q 342 445 310 453 q 424 428 374 438 q 510 410 472 420 q 587 383 547 401 q 653 343 626 365 q 696 286 679 320 q 713 208 713 251 q 666 83 713 135 q 549 9 620 32 q 389 -15 477 -15 z "},"Ţ":{"ha":779,"x_min":51,"x_max":728,"o":"m 453 -63 q 522 -90 492 -63 q 551 -167 551 -117 q 501 -260 551 -228 q 379 -293 451 -293 q 303 -284 341 -293 q 251 -264 266 -274 l 282 -205 q 385 -233 327 -233 q 454 -215 427 -233 q 481 -164 481 -197 q 467 -124 481 -137 q 429 -111 453 -111 q 393 -118 411 -111 q 367 -137 375 -125 l 306 -119 l 354 0 l 314 0 l 314 899 l 51 899 l 51 1024 l 728 1024 l 728 899 l 465 899 l 465 0 l 422 0 l 390 -81 q 453 -63 417 -63 z "},"ţ":{"ha":629,"x_min":31,"x_max":584,"o":"m 414 -12 q 392 -12 400 -12 l 366 -77 q 426 -63 395 -63 q 495 -90 465 -63 q 524 -167 524 -117 q 474 -260 524 -228 q 352 -293 424 -293 q 276 -284 314 -293 q 224 -264 239 -274 l 255 -205 q 358 -233 300 -233 q 427 -215 400 -233 q 454 -164 454 -197 q 440 -124 454 -137 q 402 -111 426 -111 q 366 -118 384 -111 q 340 -137 348 -125 l 276 -119 l 324 -1 q 208 182 208 34 l 208 613 l 31 613 l 31 738 l 124 738 q 158 738 147 738 q 181 742 169 738 q 196 751 192 747 q 203 770 200 756 q 207 798 207 783 q 208 839 208 812 l 208 981 l 358 981 l 358 738 l 584 738 l 584 613 l 358 613 l 358 232 q 373 141 358 170 q 434 113 388 113 q 502 124 476 113 l 502 1 q 414 -12 465 -12 z "},"Ť":{"ha":779,"x_min":51,"x_max":728,"o":"m 181 1208 l 286 1208 l 389 1119 l 492 1208 l 598 1208 l 444 1078 l 335 1078 l 181 1208 m 728 899 l 465 899 l 465 0 l 314 0 l 314 899 l 51 899 l 51 1024 l 728 1024 l 728 899 z "},"ť":{"ha":615,"x_min":31,"x_max":584,"o":"m 578 1085 q 547 810 578 956 l 472 810 q 486 924 479 842 q 493 1085 493 1006 l 578 1085 m 414 -12 q 208 182 208 -12 l 208 613 l 31 613 l 31 738 l 124 738 q 158 738 147 738 q 181 742 169 738 q 196 751 192 747 q 203 770 200 756 q 207 798 207 783 q 208 839 208 812 l 208 981 l 358 981 l 358 738 l 584 738 l 584 613 l 358 613 l 358 232 q 373 141 358 170 q 434 113 388 113 q 502 124 476 113 l 502 1 q 414 -12 465 -12 z "},"Ŧ":{"ha":779,"x_min":51,"x_max":728,"o":"m 144 477 l 144 548 l 314 548 l 314 899 l 51 899 l 51 1024 l 728 1024 l 728 899 l 465 899 l 465 548 l 635 548 l 635 477 l 465 477 l 465 0 l 314 0 l 314 477 l 144 477 z "},"ŧ":{"ha":629,"x_min":31,"x_max":584,"o":"m 63 378 l 63 476 l 208 476 l 208 613 l 31 613 l 31 738 l 124 738 q 158 738 147 738 q 181 742 169 738 q 196 751 192 747 q 203 770 200 756 q 207 798 207 783 q 208 839 208 812 l 208 981 l 358 981 l 358 738 l 584 738 l 584 613 l 358 613 l 358 476 l 491 476 l 491 378 l 358 378 l 358 232 q 373 141 358 170 q 434 113 388 113 q 502 124 476 113 l 502 1 q 414 -12 465 -12 q 208 182 208 -12 l 208 378 l 63 378 z "},"Ũ":{"ha":913,"x_min":94,"x_max":819,"o":"m 669 1199 q 662 1157 669 1178 q 641 1116 655 1136 q 603 1084 627 1097 q 549 1072 579 1072 q 451 1112 503 1072 q 382 1144 410 1144 q 333 1090 335 1144 l 250 1090 q 286 1177 252 1137 q 378 1218 319 1218 q 472 1179 424 1218 q 541 1146 515 1146 q 588 1199 583 1146 l 669 1199 m 819 375 q 724 83 819 181 q 456 -15 629 -15 q 188 83 283 -15 q 94 375 94 181 l 94 1024 l 244 1024 l 244 376 q 296 176 244 239 q 456 114 348 114 q 616 176 563 114 q 668 376 668 239 l 668 1024 l 819 1024 l 819 375 z "},"ũ":{"ha":849,"x_min":99,"x_max":757,"o":"m 626 1009 q 618 967 625 988 q 597 926 611 946 q 559 894 583 907 q 505 882 535 882 q 407 922 458 882 q 338 953 366 953 q 289 899 292 953 l 206 899 q 242 988 208 947 q 334 1028 276 1028 q 428 990 379 1028 q 497 956 471 956 q 544 1009 540 956 l 626 1009 m 367 -13 q 259 5 307 -13 q 182 52 211 23 q 133 120 152 81 q 106 198 114 159 q 99 280 99 238 l 99 738 l 250 738 l 250 318 q 411 120 250 120 q 513 156 467 120 q 583 244 559 192 q 606 352 606 297 l 606 738 l 757 738 l 757 0 l 606 0 l 606 109 q 504 19 565 52 q 367 -13 443 -13 z "},"Ū":{"ha":913,"x_min":94,"x_max":819,"o":"m 263 1118 l 263 1183 l 647 1183 l 647 1118 l 263 1118 m 819 375 q 724 83 819 181 q 456 -15 629 -15 q 188 83 283 -15 q 94 375 94 181 l 94 1024 l 244 1024 l 244 376 q 296 176 244 239 q 456 114 348 114 q 616 176 563 114 q 668 376 668 239 l 668 1024 l 819 1024 l 819 375 z "},"ū":{"ha":849,"x_min":99,"x_max":757,"o":"m 224 908 l 224 974 l 608 974 l 608 908 l 224 908 m 367 -13 q 259 5 307 -13 q 182 52 211 23 q 133 120 152 81 q 106 198 114 159 q 99 280 99 238 l 99 738 l 250 738 l 250 318 q 411 120 250 120 q 513 156 467 120 q 583 244 559 192 q 606 352 606 297 l 606 738 l 757 738 l 757 0 l 606 0 l 606 109 q 504 19 565 52 q 367 -13 443 -13 z "},"Ŭ":{"ha":913,"x_min":94,"x_max":819,"o":"m 278 1196 l 369 1196 q 393 1147 369 1167 q 456 1127 417 1127 q 519 1147 495 1127 q 542 1196 542 1167 l 635 1196 q 584 1102 635 1139 q 456 1065 533 1065 q 328 1102 379 1065 q 278 1196 278 1139 m 819 375 q 724 83 819 181 q 456 -15 629 -15 q 188 83 283 -15 q 94 375 94 181 l 94 1024 l 244 1024 l 244 376 q 296 176 244 239 q 456 114 348 114 q 616 176 563 114 q 668 376 668 239 l 668 1024 l 819 1024 l 819 375 z "},"ŭ":{"ha":849,"x_min":99,"x_max":757,"o":"m 238 1038 l 329 1038 q 353 967 329 994 q 416 939 376 939 q 480 967 456 939 q 503 1038 503 994 l 595 1038 q 544 921 595 965 q 416 877 494 877 q 288 920 338 877 q 238 1038 238 964 m 367 -13 q 259 5 307 -13 q 182 52 211 23 q 133 120 152 81 q 106 198 114 159 q 99 280 99 238 l 99 738 l 250 738 l 250 318 q 411 120 250 120 q 513 156 467 120 q 583 244 559 192 q 606 352 606 297 l 606 738 l 757 738 l 757 0 l 606 0 l 606 109 q 504 19 565 52 q 367 -13 443 -13 z "},"Ů":{"ha":913,"x_min":94,"x_max":819,"o":"m 456 1056 q 355 1097 397 1056 q 313 1198 313 1139 q 355 1298 313 1256 q 456 1340 397 1340 q 556 1298 515 1340 q 598 1198 598 1256 q 557 1097 598 1139 q 456 1056 515 1056 m 456 1124 q 508 1145 487 1124 q 530 1198 530 1167 q 508 1250 530 1228 q 456 1272 487 1272 q 403 1250 425 1272 q 382 1198 382 1228 q 403 1145 382 1167 q 456 1124 425 1124 m 819 375 q 724 83 819 181 q 456 -15 629 -15 q 188 83 283 -15 q 94 375 94 181 l 94 1024 l 244 1024 l 244 376 q 296 176 244 239 q 456 114 348 114 q 616 176 563 114 q 668 376 668 239 l 668 1024 l 819 1024 l 819 375 z "},"ů":{"ha":849,"x_min":99,"x_max":757,"o":"m 416 798 q 316 840 358 798 q 274 940 274 881 q 316 1041 274 999 q 416 1083 358 1083 q 517 1041 475 1083 q 558 940 558 999 q 517 839 558 881 q 416 798 475 798 m 416 866 q 469 888 447 866 q 490 940 490 909 q 469 992 490 971 q 416 1014 447 1014 q 364 992 385 1014 q 342 940 342 971 q 364 888 342 909 q 416 866 385 866 m 367 -13 q 259 5 307 -13 q 182 52 211 23 q 133 120 152 81 q 106 198 114 159 q 99 280 99 238 l 99 738 l 250 738 l 250 318 q 411 120 250 120 q 513 156 467 120 q 583 244 559 192 q 606 352 606 297 l 606 738 l 757 738 l 757 0 l 606 0 l 606 109 q 504 19 565 52 q 367 -13 443 -13 z "},"Ű":{"ha":913,"x_min":94,"x_max":819,"o":"m 299 1078 l 462 1210 l 572 1210 l 394 1078 l 299 1078 m 509 1078 l 672 1210 l 781 1210 l 603 1078 l 509 1078 m 819 375 q 724 83 819 181 q 456 -15 629 -15 q 188 83 283 -15 q 94 375 94 181 l 94 1024 l 244 1024 l 244 376 q 296 176 244 239 q 456 114 348 114 q 616 176 563 114 q 668 376 668 239 l 668 1024 l 819 1024 l 819 375 z "},"ű":{"ha":849,"x_min":99,"x_max":757,"o":"m 256 849 l 364 1024 l 469 1024 l 339 849 l 256 849 m 478 849 l 593 1024 l 698 1024 l 561 849 l 478 849 m 367 -13 q 259 5 307 -13 q 182 52 211 23 q 133 120 152 81 q 106 198 114 159 q 99 280 99 238 l 99 738 l 250 738 l 250 318 q 411 120 250 120 q 513 156 467 120 q 583 244 559 192 q 606 352 606 297 l 606 738 l 757 738 l 757 0 l 606 0 l 606 109 q 504 19 565 52 q 367 -13 443 -13 z "},"Ų":{"ha":913,"x_min":94,"x_max":819,"o":"m 620 -208 l 620 -284 q 556 -289 588 -289 q 448 -262 490 -289 q 406 -181 406 -235 q 435 -95 406 -140 q 506 -12 464 -51 q 456 -15 481 -15 q 188 83 283 -15 q 94 375 94 181 l 94 1024 l 244 1024 l 244 376 q 296 176 244 239 q 456 114 348 114 q 616 176 563 114 q 668 376 668 239 l 668 1024 l 819 1024 l 819 375 q 767 142 819 233 q 617 13 715 51 q 533 -77 572 -28 q 495 -160 495 -126 q 565 -214 495 -214 q 620 -208 588 -214 z "},"ų":{"ha":849,"x_min":99,"x_max":757,"o":"m 367 -13 q 259 5 307 -13 q 182 52 211 23 q 133 120 152 81 q 106 198 114 159 q 99 280 99 238 l 99 738 l 250 738 l 250 318 q 411 120 250 120 q 513 156 467 120 q 583 244 559 192 q 606 352 606 297 l 606 738 l 757 738 l 757 0 q 672 -90 712 -39 q 632 -175 632 -141 q 701 -229 632 -229 q 757 -224 725 -229 l 757 -299 q 692 -304 726 -304 q 587 -277 628 -304 q 546 -194 546 -250 q 587 -91 546 -146 q 676 0 628 -36 l 606 0 l 606 109 q 504 19 565 52 q 367 -13 443 -13 z "},"Ŵ":{"ha":1235,"x_min":56,"x_max":1180,"o":"m 412 1078 l 566 1208 l 674 1208 l 829 1078 l 723 1078 l 620 1167 l 517 1078 l 412 1078 m 214 0 l 56 1024 l 211 1024 l 331 115 l 521 1024 l 715 1024 l 904 116 l 1024 1024 l 1180 1024 l 1020 0 l 788 0 l 618 866 l 447 0 l 214 0 z "},"ŵ":{"ha":1090,"x_min":33,"x_max":1056,"o":"m 341 849 l 494 1024 l 598 1024 l 751 849 l 649 849 l 546 970 l 442 849 l 341 849 m 190 0 l 33 738 l 190 738 l 299 114 l 463 738 l 626 738 l 792 114 l 900 738 l 1056 738 l 901 0 l 693 0 l 544 578 l 399 0 l 190 0 z "},"Ŷ":{"ha":828,"x_min":49,"x_max":778,"o":"m 205 1078 l 359 1208 l 468 1208 l 622 1078 l 516 1078 l 413 1167 l 310 1078 l 205 1078 m 778 1024 l 488 355 l 488 0 l 338 0 l 338 355 l 49 1024 l 208 1024 l 413 517 l 618 1024 l 778 1024 z "},"ŷ":{"ha":742,"x_min":42,"x_max":708,"o":"m 166 849 l 319 1024 l 424 1024 l 577 849 l 474 849 l 371 970 l 268 849 l 166 849 m 134 -314 q 49 -305 69 -314 l 49 -182 q 124 -192 70 -192 q 277 -62 233 -192 l 296 -6 l 42 738 l 199 738 l 378 144 l 553 738 l 708 738 l 444 -54 q 411 -139 428 -103 q 369 -209 394 -174 q 312 -266 343 -244 q 235 -301 281 -287 q 134 -314 190 -314 z "},"Ÿ":{"ha":828,"x_min":49,"x_max":778,"o":"m 331 1100 q 318 1090 331 1100 q 268 1080 305 1080 q 206 1100 231 1080 q 180 1153 180 1120 q 206 1207 180 1187 q 268 1227 231 1227 q 331 1207 305 1227 q 356 1153 356 1187 q 331 1100 356 1120 m 622 1100 q 609 1090 622 1100 q 560 1080 597 1080 q 498 1100 523 1080 q 472 1153 472 1120 q 498 1207 472 1187 q 560 1227 523 1227 q 622 1207 597 1227 q 648 1153 648 1187 q 622 1100 648 1120 m 778 1024 l 488 355 l 488 0 l 338 0 l 338 355 l 49 1024 l 208 1024 l 413 517 l 618 1024 l 778 1024 z "},"Ź":{"ha":781,"x_min":69,"x_max":713,"o":"m 296 1078 l 490 1210 l 624 1210 l 418 1078 l 296 1078 m 238 125 l 706 125 l 706 0 l 69 0 l 69 110 l 544 899 l 100 899 l 100 1024 l 713 1024 l 713 916 l 238 127 l 238 125 z "},"ź":{"ha":687,"x_min":49,"x_max":638,"o":"m 254 849 l 420 1024 l 548 1024 l 365 849 l 254 849 m 638 128 l 638 0 l 49 0 l 49 123 l 463 609 l 65 609 l 65 738 l 631 738 l 631 615 l 218 128 l 638 128 z "},"Ż":{"ha":781,"x_min":69,"x_max":713,"o":"m 393 1089 q 326 1110 353 1089 q 299 1168 299 1132 q 326 1226 299 1204 q 393 1247 353 1247 q 461 1226 433 1247 q 488 1168 488 1204 q 461 1110 488 1132 q 393 1089 433 1089 m 238 125 l 706 125 l 706 0 l 69 0 l 69 110 l 544 899 l 100 899 l 100 1024 l 713 1024 l 713 916 l 238 127 l 238 125 z "},"ż":{"ha":687,"x_min":49,"x_max":638,"o":"m 348 890 q 280 911 308 890 q 253 969 253 933 q 280 1026 253 1005 q 348 1048 308 1048 q 415 1026 388 1048 q 442 969 442 1005 q 415 911 442 933 q 348 890 388 890 m 638 128 l 638 0 l 49 0 l 49 123 l 463 609 l 65 609 l 65 738 l 631 738 l 631 615 l 218 128 l 638 128 z "},"Ž":{"ha":781,"x_min":69,"x_max":713,"o":"m 183 1208 l 288 1208 l 392 1119 l 494 1208 l 601 1208 l 446 1078 l 338 1078 l 183 1208 m 238 125 l 706 125 l 706 0 l 69 0 l 69 110 l 544 899 l 100 899 l 100 1024 l 713 1024 l 713 916 l 238 127 l 238 125 z "},"ž":{"ha":687,"x_min":49,"x_max":638,"o":"m 142 1024 l 244 1024 l 347 903 l 450 1024 l 553 1024 l 399 849 l 295 849 l 142 1024 m 638 128 l 638 0 l 49 0 l 49 123 l 463 609 l 65 609 l 65 738 l 631 738 l 631 615 l 218 128 l 638 128 z "},"Ə":{"ha":885,"x_min":66,"x_max":819,"o":"m 434 -8 q 164 125 261 -8 q 66 490 66 258 q 67 556 66 547 l 666 556 q 439 904 654 904 q 343 884 386 904 q 273 834 299 865 q 233 769 247 803 q 218 702 219 735 l 73 702 q 100 819 74 761 q 172 924 126 877 q 288 1001 218 972 q 439 1031 358 1031 q 716 898 613 1031 q 819 513 819 765 q 773 240 819 358 q 639 57 727 122 q 434 -8 551 -8 m 275 203 q 303 161 275 203 q 434 119 331 119 q 595 200 538 119 q 664 433 652 282 l 216 433 q 275 203 219 287 z "},"ƒ":{"ha":697,"x_min":-83,"x_max":675,"o":"m 12 -280 q -83 -265 -47 -280 l -52 -159 q 13 -169 -28 -169 q 66 -159 43 -169 q 103 -134 89 -149 q 127 -95 117 -120 q 143 -48 138 -69 q 154 7 148 -27 q 256 627 171 103 l 81 627 l 101 738 l 275 738 q 281 774 277 751 q 286 807 285 797 q 386 1016 309 940 q 580 1092 464 1092 q 675 1077 636 1092 l 644 971 q 579 981 616 981 q 525 971 549 981 q 489 947 502 961 q 465 907 475 933 q 449 860 454 881 q 438 805 444 839 q 433 773 437 795 q 427 738 429 750 l 601 738 l 581 627 l 408 627 q 305 6 333 172 q 204 -204 281 -128 q 12 -280 127 -280 z "},"Ɲ":{"ha":961,"x_min":-54,"x_max":867,"o":"m -54 -323 l -54 -214 q 34 -187 0 -213 q 81 -124 69 -160 q 94 -39 94 -87 l 94 1024 l 337 1024 l 720 115 l 720 1024 l 867 1024 l 867 0 l 622 0 l 240 901 l 240 -39 q 238 -96 240 -71 q 229 -151 236 -121 q 209 -204 222 -181 q 174 -250 196 -227 q 121 -288 151 -273 q 46 -312 91 -303 q -54 -323 1 -322 z "},"Ơ":{"ha":988,"x_min":66,"x_max":956,"o":"m 661 21 q 622 3 661 21 q 492 -15 583 -15 q 323 21 401 -15 q 188 123 245 57 q 98 289 131 189 q 66 513 66 390 q 98 737 66 637 q 188 902 131 837 q 323 1002 245 967 q 492 1038 401 1038 q 751 948 644 1038 q 860 1126 860 956 l 956 1126 q 814 882 956 923 q 919 513 919 742 q 887 289 919 390 q 797 123 854 189 q 661 21 740 57 m 492 114 q 691 215 616 114 q 766 513 766 316 q 691 809 766 710 q 492 908 616 908 q 294 809 369 908 q 219 513 219 710 q 294 215 219 316 q 492 114 369 114 z "},"ơ":{"ha":906,"x_min":67,"x_max":863,"o":"m 732 94 q 678 40 732 94 q 454 -14 624 -14 q 176 94 284 -14 q 67 369 67 202 q 175 642 67 536 q 454 749 283 749 q 688 679 590 749 q 759 728 740 686 q 778 867 778 769 l 863 867 q 836 701 863 760 q 753 620 809 642 q 840 369 840 517 q 732 94 840 201 m 454 115 q 624 185 558 115 q 689 369 689 255 q 624 551 689 483 q 454 619 559 619 q 284 551 349 619 q 219 369 219 483 q 284 185 219 255 q 454 115 349 115 z "},"Ư":{"ha":969,"x_min":94,"x_max":972,"o":"m 819 375 q 724 83 819 181 q 456 -15 629 -15 q 188 83 283 -15 q 94 375 94 181 l 94 1024 l 244 1024 l 244 376 q 296 176 244 239 q 456 114 348 114 q 616 176 563 114 q 668 376 668 239 l 668 1024 l 757 1024 q 876 1203 876 1024 l 972 1203 q 932 1034 972 1097 q 819 955 892 972 l 819 375 z "},"ư":{"ha":871,"x_min":96,"x_max":863,"o":"m 353 -13 q 246 5 293 -13 q 172 51 199 23 q 126 120 144 80 q 102 198 108 160 q 96 280 96 237 l 96 738 l 247 738 l 247 318 q 251 256 247 283 q 264 203 254 229 q 290 159 274 176 q 333 131 306 142 q 397 120 360 120 q 499 156 453 120 q 569 244 545 192 q 592 352 592 297 l 592 738 l 660 738 q 753 778 729 738 q 777 926 777 818 l 863 926 q 834 757 863 817 q 743 677 804 697 l 743 0 l 592 0 l 592 109 q 490 19 551 52 q 353 -13 429 -13 z "},"Ʒ":{"ha":818,"x_min":83,"x_max":717,"o":"m 405 -15 q 83 317 83 -15 l 83 320 l 235 320 l 235 317 q 278 158 235 205 q 407 110 322 110 q 565 299 565 110 q 516 427 565 392 q 347 461 467 461 l 283 461 l 539 899 l 108 899 l 108 1024 l 704 1024 l 704 908 l 497 571 q 622 536 572 571 q 695 444 673 501 q 717 307 717 386 q 639 72 717 158 q 405 -15 560 -15 z "},"Ǆ":{"ha":1598,"x_min":94,"x_max":1529,"o":"m 999 1208 l 1105 1208 l 1208 1119 l 1310 1208 l 1417 1208 l 1263 1078 l 1154 1078 l 999 1208 m 94 0 l 94 1024 l 375 1024 q 701 885 578 1024 q 824 513 824 747 q 701 140 824 280 q 375 0 578 0 l 94 0 m 1054 125 l 1522 125 l 1522 0 l 885 0 l 885 110 l 1360 899 l 917 899 l 917 1024 l 1529 1024 l 1529 916 l 1054 127 l 1054 125 m 357 899 l 245 899 l 245 125 l 357 125 q 583 231 495 125 q 670 513 670 336 q 583 795 670 690 q 357 899 495 899 z "},"ǅ":{"ha":1576,"x_min":94,"x_max":1528,"o":"m 94 0 l 94 1024 l 375 1024 q 701 885 578 1024 q 824 513 824 747 q 701 140 824 280 q 375 0 578 0 l 94 0 m 1031 1024 l 1133 1024 l 1236 903 l 1339 1024 l 1442 1024 l 1288 849 l 1185 849 l 1031 1024 m 357 899 l 245 899 l 245 125 l 357 125 q 583 231 495 125 q 670 513 670 336 q 583 795 670 690 q 357 899 495 899 m 1528 128 l 1528 0 l 938 0 l 938 123 l 1353 609 l 954 609 l 954 738 l 1521 738 l 1521 615 l 1108 128 l 1528 128 z "},"ǆ":{"ha":1574,"x_min":69,"x_max":1525,"o":"m 404 -15 q 275 11 335 -15 q 168 84 214 36 q 95 205 122 131 q 69 370 69 279 q 96 532 69 459 q 169 652 123 605 q 276 724 216 699 q 404 749 336 749 q 534 723 472 749 q 641 647 595 696 l 641 1085 l 792 1085 l 792 0 l 641 0 l 641 90 q 535 13 597 40 q 404 -15 474 -15 m 1028 1024 l 1131 1024 l 1233 903 l 1337 1024 l 1440 1024 l 1286 849 l 1182 849 l 1028 1024 m 1525 128 l 1525 0 l 935 0 l 935 123 l 1350 609 l 951 609 l 951 738 l 1518 738 l 1518 615 l 1105 128 l 1525 128 m 434 122 q 580 182 519 122 q 641 328 641 241 l 641 418 q 579 560 641 502 q 434 617 517 617 q 282 555 340 617 q 224 370 224 492 q 282 186 224 249 q 434 122 340 122 z "},"Ǉ":{"ha":1442,"x_min":94,"x_max":1349,"o":"m 94 0 l 94 1024 l 244 1024 l 244 128 l 641 128 l 641 0 l 94 0 m 1035 -15 q 798 75 874 -15 q 722 326 722 165 l 722 368 l 871 368 l 871 340 q 910 175 871 235 q 1035 114 949 114 q 1160 176 1123 114 q 1198 352 1198 238 l 1198 1024 l 1349 1024 l 1349 332 q 1332 194 1349 255 q 1281 85 1316 133 q 1183 11 1245 38 q 1035 -15 1121 -15 z "},"ǈ":{"ha":1060,"x_min":94,"x_max":980,"o":"m 885 890 q 817 912 844 890 q 790 970 790 934 q 817 1028 790 1006 q 885 1049 844 1049 q 952 1028 924 1049 q 980 970 980 1006 q 952 912 980 934 q 885 890 924 890 m 94 0 l 94 1024 l 244 1024 l 244 128 l 641 128 l 641 0 l 94 0 m 681 -312 q 615 -308 640 -312 l 615 -194 q 681 -201 644 -201 q 738 -192 714 -201 q 775 -170 762 -183 q 795 -137 788 -158 q 805 -100 803 -117 q 807 -61 807 -83 l 807 738 l 958 738 l 958 -66 q 952 -139 958 -107 q 930 -205 947 -171 q 884 -261 913 -239 q 803 -298 854 -283 q 681 -312 751 -312 z "},"ǉ":{"ha":756,"x_min":99,"x_max":674,"o":"m 297 -11 q 242 -8 266 -11 q 190 6 218 -5 q 143 37 161 17 q 111 93 124 57 q 99 178 99 129 l 99 1085 l 249 1085 l 249 210 q 265 133 249 153 q 315 113 281 113 q 379 122 351 113 l 379 0 q 297 -11 346 -11 m 580 890 q 512 912 540 890 q 485 970 485 934 q 512 1028 485 1006 q 580 1049 540 1049 q 647 1028 619 1049 q 674 970 674 1006 q 647 912 674 934 q 580 890 619 890 m 376 -312 q 310 -308 335 -312 l 310 -194 q 376 -201 338 -201 q 433 -192 409 -201 q 470 -170 457 -183 q 491 -137 483 -158 q 500 -100 498 -117 q 502 -61 502 -83 l 502 738 l 652 738 l 652 -66 q 647 -139 652 -107 q 625 -205 642 -171 q 578 -261 608 -239 q 498 -298 549 -283 q 376 -312 446 -312 z "},"Ǌ":{"ha":1732,"x_min":94,"x_max":1639,"o":"m 240 0 l 94 0 l 94 1024 l 334 1024 l 720 114 l 720 1024 l 867 1024 l 867 0 l 624 0 l 240 904 l 240 0 m 1326 -15 q 1088 75 1164 -15 q 1012 326 1012 165 l 1012 368 l 1161 368 l 1161 340 q 1326 114 1161 114 q 1450 176 1413 114 q 1488 352 1488 238 l 1488 1024 l 1639 1024 l 1639 332 q 1623 194 1639 255 q 1571 85 1606 133 q 1473 11 1535 38 q 1326 -15 1411 -15 z "},"ǋ":{"ha":1292,"x_min":94,"x_max":1210,"o":"m 1116 890 q 1048 912 1076 890 q 1021 970 1021 934 q 1048 1028 1021 1006 q 1116 1049 1076 1049 q 1183 1028 1156 1049 q 1210 970 1210 1006 q 1183 912 1210 934 q 1116 890 1156 890 m 240 0 l 94 0 l 94 1024 l 334 1024 l 720 114 l 720 1024 l 867 1024 l 867 0 l 624 0 l 240 904 l 240 0 m 912 -312 q 847 -308 871 -312 l 847 -194 q 912 -201 874 -201 q 969 -192 945 -201 q 1006 -170 993 -183 q 1027 -137 1019 -158 q 1036 -100 1034 -117 q 1038 -61 1038 -83 l 1038 738 l 1188 738 l 1188 -66 q 1183 -139 1188 -107 q 1161 -205 1178 -171 q 1115 -261 1144 -239 q 1034 -298 1085 -283 q 912 -312 982 -312 z "},"ǌ":{"ha":1228,"x_min":99,"x_max":1147,"o":"m 1053 890 q 985 912 1013 890 q 957 970 957 934 q 985 1028 957 1006 q 1053 1049 1013 1049 q 1120 1028 1092 1049 q 1147 970 1147 1006 q 1120 912 1147 934 q 1053 890 1092 890 m 99 0 l 99 738 l 249 738 l 249 628 q 358 717 293 685 q 497 749 422 749 q 700 675 626 749 q 774 472 774 600 l 774 0 l 624 0 l 624 430 q 450 613 624 613 q 307 552 365 613 q 249 402 249 492 l 249 0 l 99 0 m 849 -312 q 783 -308 808 -312 l 783 -194 q 849 -201 811 -201 q 906 -192 882 -201 q 943 -170 930 -183 q 964 -137 956 -158 q 973 -100 971 -117 q 975 -61 975 -83 l 975 738 l 1125 738 l 1125 -66 q 1120 -139 1125 -107 q 1098 -205 1115 -171 q 1051 -261 1081 -239 q 970 -298 1022 -283 q 849 -312 919 -312 z "},"Ǎ":{"ha":879,"x_min":49,"x_max":830,"o":"m 232 1208 l 337 1208 l 440 1119 l 543 1208 l 649 1208 l 494 1078 l 386 1078 l 232 1208 m 49 0 l 322 1026 l 559 1026 l 830 0 l 675 0 l 609 260 l 270 260 l 204 0 l 49 0 m 302 385 l 578 385 l 440 928 l 302 385 z "},"ǎ":{"ha":855,"x_min":76,"x_max":809,"o":"m 238 1024 l 340 1024 l 443 903 l 546 1024 l 649 1024 l 496 849 l 392 849 l 238 1024 m 354 -15 q 152 44 228 -15 q 76 206 76 103 q 158 369 76 312 q 381 440 240 426 q 570 466 520 453 q 619 506 619 479 l 619 508 q 572 593 619 564 q 435 622 524 622 q 239 485 239 622 l 91 485 q 186 679 91 609 q 435 749 281 749 q 604 722 530 749 q 724 637 678 694 q 770 499 770 579 l 770 147 q 780 55 770 87 q 809 0 791 17 l 659 0 q 633 49 645 14 q 624 84 628 65 q 514 12 584 38 q 354 -15 443 -15 m 385 110 q 554 159 488 110 q 620 299 620 208 l 620 363 q 415 329 551 343 q 271 295 316 320 q 226 217 226 271 q 385 110 226 110 z "},"Ǐ":{"ha":342,"x_min":-37,"x_max":381,"o":"m -37 1208 l 68 1208 l 172 1119 l 274 1208 l 381 1208 l 226 1078 l 117 1078 l -37 1208 m 97 0 l 97 1024 l 245 1024 l 245 0 l 97 0 z "},"ǐ":{"ha":350,"x_min":-30,"x_max":381,"o":"m -30 1024 l 72 1024 l 175 903 l 278 1024 l 381 1024 l 227 849 l 123 849 l -30 1024 m 101 0 l 101 738 l 249 738 l 249 0 l 101 0 z "},"Ǒ":{"ha":985,"x_min":66,"x_max":919,"o":"m 284 1208 l 389 1208 l 492 1119 l 595 1208 l 701 1208 l 547 1078 l 438 1078 l 284 1208 m 661 21 q 622 3 661 21 q 492 -15 583 -15 q 323 21 401 -15 q 188 123 245 57 q 98 289 131 189 q 66 513 66 390 q 98 737 66 637 q 188 902 131 837 q 323 1002 245 967 q 492 1038 401 1038 q 663 1002 585 1038 q 798 902 740 967 q 887 737 855 837 q 919 513 919 637 q 887 289 919 390 q 797 123 854 189 q 661 21 740 57 m 492 114 q 691 215 616 114 q 766 513 766 316 q 691 809 766 710 q 492 908 616 908 q 294 809 369 908 q 219 513 219 710 q 294 215 219 316 q 492 114 369 114 z "},"ǒ":{"ha":910,"x_min":69,"x_max":841,"o":"m 250 1024 l 352 1024 l 455 903 l 558 1024 l 661 1024 l 507 849 l 403 849 l 250 1024 m 733 94 q 679 40 733 94 q 455 -14 625 -14 q 177 94 285 -14 q 69 369 69 201 q 176 642 69 536 q 455 749 284 749 q 733 642 626 749 q 841 369 841 536 q 733 94 841 201 m 285 185 q 318 150 285 185 q 455 115 350 115 q 625 185 560 115 q 690 369 690 255 q 625 551 690 483 q 455 619 560 619 q 285 551 350 619 q 220 369 220 483 q 285 185 220 255 z "},"Ǔ":{"ha":913,"x_min":94,"x_max":819,"o":"m 251 1311 l 352 1311 l 456 1190 l 558 1311 l 661 1311 l 508 1135 l 403 1135 l 251 1311 m 819 375 q 724 83 819 181 q 456 -15 629 -15 q 188 83 283 -15 q 94 375 94 181 l 94 1024 l 244 1024 l 244 376 q 296 176 244 239 q 456 114 348 114 q 616 176 563 114 q 668 376 668 239 l 668 1024 l 819 1024 l 819 375 z "},"ǔ":{"ha":849,"x_min":99,"x_max":757,"o":"m 210 1024 l 313 1024 l 415 903 l 519 1024 l 622 1024 l 468 849 l 364 849 l 210 1024 m 367 -13 q 259 5 307 -13 q 182 52 211 23 q 133 120 152 81 q 106 198 114 159 q 99 280 99 238 l 99 738 l 250 738 l 250 318 q 411 120 250 120 q 513 156 467 120 q 583 244 559 192 q 606 352 606 297 l 606 738 l 757 738 l 757 0 l 606 0 l 606 109 q 504 19 565 52 q 367 -13 443 -13 z "},"Ǖ":{"ha":913,"x_min":94,"x_max":819,"o":"m 263 1303 l 263 1368 l 647 1368 l 647 1303 l 263 1303 m 373 1100 q 360 1090 373 1100 q 310 1080 347 1080 q 248 1100 274 1080 q 222 1153 222 1120 q 248 1207 222 1187 q 310 1227 274 1227 q 373 1207 347 1227 q 399 1153 399 1187 q 373 1100 399 1120 m 665 1100 q 652 1090 665 1100 q 602 1080 639 1080 q 540 1100 565 1080 q 515 1153 515 1120 q 540 1207 515 1187 q 602 1227 565 1227 q 665 1207 639 1227 q 690 1153 690 1187 q 665 1100 690 1120 m 819 375 q 724 83 819 181 q 456 -15 629 -15 q 188 83 283 -15 q 94 375 94 181 l 94 1024 l 244 1024 l 244 376 q 296 176 244 239 q 456 114 348 114 q 616 176 563 114 q 668 376 668 239 l 668 1024 l 819 1024 l 819 375 z "},"ǖ":{"ha":849,"x_min":99,"x_max":757,"o":"m 224 1129 l 224 1194 l 608 1194 l 608 1129 l 224 1129 m 332 908 q 319 898 332 908 q 269 888 306 888 q 207 908 233 888 q 182 962 182 928 q 207 1015 182 995 q 269 1035 233 1035 q 332 1015 306 1035 q 358 962 358 995 q 332 908 358 928 m 562 888 q 500 908 525 888 q 474 962 474 928 q 500 1015 474 995 q 562 1035 525 1035 q 624 1015 598 1035 q 649 962 649 995 q 624 908 649 928 q 562 888 598 888 m 367 -13 q 259 5 307 -13 q 182 52 211 23 q 133 120 152 81 q 106 198 114 159 q 99 280 99 238 l 99 738 l 250 738 l 250 318 q 411 120 250 120 q 513 156 467 120 q 583 244 559 192 q 606 352 606 297 l 606 738 l 757 738 l 757 0 l 606 0 l 606 109 q 504 19 565 52 q 367 -13 443 -13 z "},"Ǘ":{"ha":913,"x_min":94,"x_max":819,"o":"m 360 1263 l 554 1395 l 688 1395 l 482 1263 l 360 1263 m 373 1100 q 360 1090 373 1100 q 310 1080 347 1080 q 248 1100 274 1080 q 222 1153 222 1120 q 248 1207 222 1187 q 310 1227 274 1227 q 373 1207 347 1227 q 399 1153 399 1187 q 373 1100 399 1120 m 665 1100 q 652 1090 665 1100 q 602 1080 639 1080 q 540 1100 565 1080 q 515 1153 515 1120 q 540 1207 515 1187 q 602 1227 565 1227 q 665 1207 639 1227 q 690 1153 690 1187 q 665 1100 690 1120 m 819 375 q 724 83 819 181 q 456 -15 629 -15 q 188 83 283 -15 q 94 375 94 181 l 94 1024 l 244 1024 l 244 376 q 296 176 244 239 q 456 114 348 114 q 616 176 563 114 q 668 376 668 239 l 668 1024 l 819 1024 l 819 375 z "},"ǘ":{"ha":849,"x_min":99,"x_max":757,"o":"m 320 1090 l 514 1222 l 649 1222 l 442 1090 l 320 1090 m 332 908 q 319 898 332 908 q 269 888 306 888 q 207 908 233 888 q 182 962 182 928 q 207 1015 182 995 q 269 1035 233 1035 q 332 1015 306 1035 q 358 962 358 995 q 332 908 358 928 m 562 888 q 500 908 525 888 q 474 962 474 928 q 500 1015 474 995 q 562 1035 525 1035 q 624 1015 598 1035 q 649 962 649 995 q 624 908 649 928 q 562 888 598 888 m 367 -13 q 259 5 307 -13 q 182 52 211 23 q 133 120 152 81 q 106 198 114 159 q 99 280 99 238 l 99 738 l 250 738 l 250 318 q 411 120 250 120 q 513 156 467 120 q 583 244 559 192 q 606 352 606 297 l 606 738 l 757 738 l 757 0 l 606 0 l 606 109 q 504 19 565 52 q 367 -13 443 -13 z "},"Ǚ":{"ha":913,"x_min":94,"x_max":819,"o":"m 247 1393 l 352 1393 l 456 1303 l 558 1393 l 665 1393 l 510 1262 l 401 1262 l 247 1393 m 373 1100 q 360 1090 373 1100 q 310 1080 347 1080 q 248 1100 274 1080 q 222 1153 222 1120 q 248 1207 222 1187 q 310 1227 274 1227 q 373 1207 347 1227 q 399 1153 399 1187 q 373 1100 399 1120 m 665 1100 q 652 1090 665 1100 q 602 1080 639 1080 q 540 1100 565 1080 q 515 1153 515 1120 q 540 1207 515 1187 q 602 1227 565 1227 q 665 1207 639 1227 q 690 1153 690 1187 q 665 1100 690 1120 m 819 375 q 724 83 819 181 q 456 -15 629 -15 q 188 83 283 -15 q 94 375 94 181 l 94 1024 l 244 1024 l 244 376 q 296 176 244 239 q 456 114 348 114 q 616 176 563 114 q 668 376 668 239 l 668 1024 l 819 1024 l 819 375 z "},"ǚ":{"ha":849,"x_min":99,"x_max":757,"o":"m 208 1219 l 313 1219 l 416 1131 l 519 1219 l 625 1219 l 470 1089 l 362 1089 l 208 1219 m 332 908 q 319 898 332 908 q 269 888 306 888 q 207 908 233 888 q 182 962 182 928 q 207 1015 182 995 q 269 1035 233 1035 q 332 1015 306 1035 q 358 962 358 995 q 332 908 358 928 m 562 888 q 500 908 525 888 q 474 962 474 928 q 500 1015 474 995 q 562 1035 525 1035 q 624 1015 598 1035 q 649 962 649 995 q 624 908 649 928 q 562 888 598 888 m 367 -13 q 259 5 307 -13 q 182 52 211 23 q 133 120 152 81 q 106 198 114 159 q 99 280 99 238 l 99 738 l 250 738 l 250 318 q 411 120 250 120 q 513 156 467 120 q 583 244 559 192 q 606 352 606 297 l 606 738 l 757 738 l 757 0 l 606 0 l 606 109 q 504 19 565 52 q 367 -13 443 -13 z "},"Ǜ":{"ha":913,"x_min":94,"x_max":819,"o":"m 555 1263 l 433 1263 l 226 1395 l 361 1395 l 555 1263 m 373 1100 q 360 1090 373 1100 q 310 1080 347 1080 q 248 1100 274 1080 q 222 1153 222 1120 q 248 1207 222 1187 q 310 1227 274 1227 q 373 1207 347 1227 q 399 1153 399 1187 q 373 1100 399 1120 m 665 1100 q 652 1090 665 1100 q 602 1080 639 1080 q 540 1100 565 1080 q 515 1153 515 1120 q 540 1207 515 1187 q 602 1227 565 1227 q 665 1207 639 1227 q 690 1153 690 1187 q 665 1100 690 1120 m 819 375 q 724 83 819 181 q 456 -15 629 -15 q 188 83 283 -15 q 94 375 94 181 l 94 1024 l 244 1024 l 244 376 q 296 176 244 239 q 456 114 348 114 q 616 176 563 114 q 668 376 668 239 l 668 1024 l 819 1024 l 819 375 z "},"ǜ":{"ha":849,"x_min":99,"x_max":757,"o":"m 515 1090 l 394 1090 l 187 1222 l 322 1222 l 515 1090 m 332 908 q 319 898 332 908 q 269 888 306 888 q 207 908 233 888 q 182 962 182 928 q 207 1015 182 995 q 269 1035 233 1035 q 332 1015 306 1035 q 358 962 358 995 q 332 908 358 928 m 562 888 q 500 908 525 888 q 474 962 474 928 q 500 1015 474 995 q 562 1035 525 1035 q 624 1015 598 1035 q 649 962 649 995 q 624 908 649 928 q 562 888 598 888 m 367 -13 q 259 5 307 -13 q 182 52 211 23 q 133 120 152 81 q 106 198 114 159 q 99 280 99 238 l 99 738 l 250 738 l 250 318 q 411 120 250 120 q 513 156 467 120 q 583 244 559 192 q 606 352 606 297 l 606 738 l 757 738 l 757 0 l 606 0 l 606 109 q 504 19 565 52 q 367 -13 443 -13 z "},"Ǟ":{"ha":879,"x_min":49,"x_max":830,"o":"m 248 1303 l 248 1368 l 632 1368 l 632 1303 l 248 1303 m 358 1100 q 345 1090 358 1100 q 295 1080 332 1080 q 233 1100 258 1080 q 207 1153 207 1120 q 233 1207 207 1187 q 295 1227 258 1227 q 358 1207 332 1227 q 383 1153 383 1187 q 358 1100 383 1120 m 649 1100 q 636 1090 649 1100 q 587 1080 624 1080 q 525 1100 550 1080 q 499 1153 499 1120 q 525 1207 499 1187 q 587 1227 550 1227 q 649 1207 624 1227 q 675 1153 675 1187 q 649 1100 675 1120 m 49 0 l 322 1026 l 559 1026 l 830 0 l 675 0 l 609 260 l 270 260 l 204 0 l 49 0 m 302 385 l 578 385 l 440 928 l 302 385 z "},"ǟ":{"ha":855,"x_min":76,"x_max":809,"o":"m 251 1129 l 251 1194 l 635 1194 l 635 1129 l 251 1129 m 360 908 q 347 898 360 908 q 297 888 334 888 q 235 908 260 888 q 209 962 209 928 q 235 1015 209 995 q 297 1035 260 1035 q 360 1015 334 1035 q 385 962 385 995 q 360 908 385 928 m 651 908 q 639 898 651 908 q 589 888 626 888 q 527 908 552 888 q 501 962 501 928 q 527 1015 501 995 q 589 1035 552 1035 q 651 1015 626 1035 q 677 962 677 995 q 651 908 677 928 m 354 -15 q 152 44 228 -15 q 76 206 76 103 q 158 369 76 312 q 381 440 240 426 q 570 466 520 453 q 619 506 619 479 l 619 508 q 572 593 619 564 q 435 622 524 622 q 239 485 239 622 l 91 485 q 186 679 91 609 q 435 749 281 749 q 604 722 530 749 q 724 637 678 694 q 770 499 770 579 l 770 147 q 780 55 770 87 q 809 0 791 17 l 659 0 q 633 49 645 14 q 624 84 628 65 q 514 12 584 38 q 354 -15 443 -15 m 385 110 q 554 159 488 110 q 620 299 620 208 l 620 363 q 415 329 551 343 q 271 295 316 320 q 226 217 226 271 q 385 110 226 110 z "},"Ǥ":{"ha":945,"x_min":66,"x_max":938,"o":"m 474 -15 q 311 21 386 -15 q 182 122 236 56 q 97 288 127 188 q 66 510 66 388 q 98 733 66 633 q 186 899 130 833 q 320 1002 242 966 q 490 1038 398 1038 q 630 1015 567 1038 q 735 955 694 992 q 805 872 776 919 q 846 779 834 825 q 858 690 858 733 l 858 682 l 712 682 l 712 690 q 698 768 712 731 q 658 838 684 806 q 588 889 631 869 q 490 908 544 908 q 293 808 368 908 q 217 510 217 708 q 289 211 217 308 q 482 114 361 114 q 618 146 563 114 q 700 228 672 178 l 485 228 l 485 318 l 720 318 l 720 390 l 485 390 l 485 502 l 856 502 l 856 318 l 938 318 l 938 228 l 856 228 l 856 0 l 759 0 l 748 114 q 724 80 741 99 q 677 39 708 62 q 592 1 646 16 q 474 -15 539 -15 z "},"ǥ":{"ha":914,"x_min":76,"x_max":902,"o":"m 435 -15 q 301 9 365 -15 q 187 80 238 33 q 106 201 136 126 q 76 373 76 277 q 106 538 76 465 q 188 657 137 612 q 303 726 240 702 q 435 749 366 749 q 566 724 505 749 q 672 650 628 699 l 672 738 l 822 738 l 822 405 l 902 405 l 902 334 l 822 334 l 822 17 q 801 -111 822 -54 q 744 -205 780 -168 q 661 -267 709 -242 q 561 -303 613 -292 q 453 -314 509 -314 q 348 -306 399 -314 q 251 -278 298 -297 q 170 -231 205 -259 q 116 -160 136 -203 q 95 -66 95 -118 l 95 -58 l 246 -58 l 246 -66 q 306 -163 246 -129 q 456 -197 366 -197 q 540 -186 502 -197 q 608 -151 577 -175 q 655 -85 638 -127 q 672 17 672 -42 l 672 84 q 435 -15 583 -15 m 411 334 l 411 405 l 672 405 l 672 410 q 611 563 672 508 q 463 618 550 618 q 377 605 417 618 q 304 563 337 591 q 253 486 272 535 q 234 373 234 438 q 253 257 234 308 q 304 177 272 207 q 377 133 337 148 q 463 118 417 118 q 611 175 550 118 q 672 330 672 232 l 672 334 l 411 334 z "},"Ǧ":{"ha":965,"x_min":66,"x_max":872,"o":"m 292 1208 l 397 1208 l 500 1119 l 603 1208 l 709 1208 l 554 1078 l 446 1078 l 292 1208 m 488 -15 q 323 21 399 -15 q 189 123 247 57 q 99 288 132 188 q 66 510 66 388 q 100 733 66 633 q 192 899 133 833 q 331 1001 251 965 q 503 1038 410 1038 q 643 1015 580 1038 q 748 956 707 992 q 818 873 790 919 q 859 781 847 826 q 872 692 872 735 l 872 683 l 725 683 l 725 692 q 711 769 725 731 q 671 838 697 807 q 601 889 644 869 q 503 908 557 908 q 393 884 444 908 q 303 813 343 860 q 241 688 263 765 q 218 510 218 610 q 232 362 218 428 q 272 250 247 295 q 332 173 297 204 q 408 128 367 142 q 495 114 449 114 q 593 129 549 114 q 665 170 638 144 q 710 223 693 195 q 733 282 727 251 l 733 376 l 499 376 l 499 494 l 869 494 l 869 0 l 772 0 l 761 114 q 738 80 754 99 q 690 39 721 62 q 606 1 659 16 q 488 -15 552 -15 z "},"ǧ":{"ha":856,"x_min":44,"x_max":812,"o":"m 205 1024 l 306 1024 l 410 903 l 513 1024 l 615 1024 l 462 849 l 358 849 l 205 1024 m 583 59 q 738 11 683 50 q 793 -107 793 -27 q 695 -260 793 -204 q 413 -316 597 -316 q 139 -264 235 -316 q 44 -122 44 -212 q 65 -40 44 -74 l 206 -60 q 191 -114 191 -79 q 419 -205 191 -205 q 593 -182 534 -205 q 652 -116 652 -158 q 645 -89 652 -100 q 630 -71 639 -78 q 602 -60 620 -65 q 570 -54 584 -56 q 531 -50 556 -52 l 251 -27 q 132 17 178 -21 q 86 111 86 55 q 111 189 86 151 q 167 244 135 226 q 74 453 74 323 q 168 666 74 582 q 408 749 262 749 q 558 719 491 749 q 663 640 626 688 l 675 738 l 812 738 l 756 449 q 718 336 744 387 q 653 246 693 285 q 553 185 613 207 q 418 164 493 164 q 255 192 326 164 q 225 141 225 168 q 246 101 225 115 q 322 82 267 86 l 583 59 m 417 287 q 561 331 509 287 q 613 456 613 375 q 560 580 613 534 q 418 625 508 625 q 277 578 331 625 q 222 453 222 531 q 274 331 222 375 q 417 287 326 287 z "},"Ǩ":{"ha":849,"x_min":94,"x_max":805,"o":"m 232 1208 l 337 1208 l 440 1119 l 543 1208 l 649 1208 l 494 1078 l 386 1078 l 232 1208 m 637 0 l 342 454 l 244 324 l 244 0 l 94 0 l 94 1024 l 244 1024 l 244 534 l 619 1024 l 781 1024 l 435 568 l 805 0 l 637 0 z "},"ǩ":{"ha":741,"x_min":-37,"x_max":724,"o":"m -37 1269 l 69 1269 l 172 1180 l 274 1269 l 381 1269 l 226 1139 l 118 1139 l -37 1269 m 99 0 l 99 1085 l 242 1085 l 242 484 l 534 738 l 724 738 l 417 467 l 724 0 l 563 0 l 322 381 l 242 311 l 242 0 l 99 0 z "},"Ǫ":{"ha":985,"x_min":66,"x_max":919,"o":"m 492 -15 q 323 21 401 -15 q 188 123 245 57 q 98 289 131 189 q 66 513 66 390 q 98 737 66 637 q 188 902 131 837 q 323 1002 245 967 q 492 1038 401 1038 q 663 1002 585 1038 q 798 902 740 967 q 887 737 855 837 q 919 513 919 637 q 845 193 919 322 q 645 13 772 63 q 570 -71 603 -26 q 538 -145 538 -115 q 607 -199 538 -199 q 663 -194 635 -199 l 663 -270 q 598 -275 631 -275 q 491 -248 533 -275 q 449 -167 449 -222 q 533 -13 449 -95 q 492 -15 506 -15 m 492 114 q 691 215 616 114 q 766 513 766 316 q 691 809 766 710 q 492 908 616 908 q 294 809 369 908 q 219 513 219 710 q 294 215 219 316 q 492 114 369 114 z "},"ǫ":{"ha":908,"x_min":69,"x_max":841,"o":"m 455 -14 q 177 94 285 -14 q 69 369 69 201 q 176 642 69 536 q 455 749 284 749 q 733 642 626 749 q 841 369 841 536 q 777 148 841 243 q 603 12 713 52 q 520 -78 558 -28 q 481 -160 481 -128 q 551 -215 481 -215 q 606 -210 578 -215 l 606 -285 q 542 -290 575 -290 q 436 -263 477 -290 q 395 -181 395 -236 q 424 -95 395 -140 q 494 -12 453 -50 q 455 -14 469 -14 m 285 185 q 318 150 285 185 q 455 115 350 115 q 625 185 560 115 q 690 369 690 255 q 625 551 690 483 q 455 619 560 619 q 285 551 350 619 q 220 369 220 483 q 285 185 220 255 z "},"Ǯ":{"ha":818,"x_min":83,"x_max":717,"o":"m 201 1208 l 306 1208 l 409 1119 l 512 1208 l 618 1208 l 463 1078 l 355 1078 l 201 1208 m 405 -15 q 83 317 83 -15 l 83 320 l 235 320 l 235 317 q 278 158 235 205 q 407 110 322 110 q 565 299 565 110 q 516 427 565 392 q 347 461 467 461 l 283 461 l 539 899 l 108 899 l 108 1024 l 704 1024 l 704 908 l 497 571 q 622 536 572 571 q 695 444 673 501 q 717 307 717 386 q 639 72 717 158 q 405 -15 560 -15 z "},"ǯ":{"ha":818,"x_min":87,"x_max":721,"o":"m 204 1024 l 306 1024 l 409 903 l 512 1024 l 615 1024 l 461 849 l 357 849 l 204 1024 m 408 -301 q 87 31 87 -301 l 87 33 l 238 33 l 238 31 q 282 -129 238 -82 q 410 -176 325 -176 q 569 12 569 -176 q 520 140 569 106 q 350 174 471 174 l 287 174 l 542 613 l 111 613 l 111 738 l 708 738 l 708 622 l 500 284 q 626 249 575 284 q 699 157 676 215 q 721 20 721 99 q 642 -215 721 -128 q 408 -301 564 -301 z "},"Ǻ":{"ha":879,"x_min":49,"x_max":830,"o":"m 345 1373 l 539 1504 l 673 1504 l 467 1373 l 345 1373 m 440 1056 q 340 1097 382 1056 q 298 1198 298 1139 q 340 1298 298 1256 q 440 1340 382 1340 q 541 1298 499 1340 q 583 1198 583 1256 q 541 1097 583 1139 q 440 1056 500 1056 m 440 1124 q 493 1145 472 1124 q 515 1198 515 1167 q 493 1250 515 1228 q 440 1272 472 1272 q 388 1250 410 1272 q 367 1198 367 1228 q 388 1145 367 1167 q 440 1124 410 1124 m 49 0 l 322 1026 l 559 1026 l 830 0 l 675 0 l 609 260 l 270 260 l 204 0 l 49 0 m 302 385 l 578 385 l 440 928 l 302 385 z "},"ǻ":{"ha":855,"x_min":76,"x_max":809,"o":"m 340 1149 l 506 1324 l 633 1324 l 451 1149 l 340 1149 m 544 840 q 524 819 544 840 q 444 798 503 798 q 343 840 385 798 q 301 940 301 881 q 343 1041 301 999 q 444 1083 385 1083 q 544 1041 503 1083 q 586 940 586 999 q 544 840 586 881 m 444 866 q 496 888 475 866 q 517 940 517 909 q 496 992 517 971 q 444 1014 475 1014 q 392 992 413 1014 q 370 940 370 971 q 392 888 370 909 q 444 866 413 866 m 354 -15 q 152 44 228 -15 q 76 206 76 103 q 158 369 76 312 q 381 440 240 426 q 570 466 520 453 q 619 506 619 479 l 619 508 q 572 593 619 564 q 435 622 524 622 q 239 485 239 622 l 91 485 q 186 679 91 609 q 435 749 281 749 q 604 722 530 749 q 724 637 678 694 q 770 499 770 579 l 770 147 q 780 55 770 87 q 809 0 791 17 l 659 0 q 633 49 645 14 q 624 84 628 65 q 514 12 584 38 q 354 -15 443 -15 m 385 110 q 554 159 488 110 q 620 299 620 208 l 620 363 q 415 329 551 343 q 271 295 316 320 q 226 217 226 271 q 385 110 226 110 z "},"Ǽ":{"ha":1326,"x_min":0,"x_max":1232,"o":"m 671 1078 l 865 1210 l 999 1210 l 792 1078 l 671 1078 m 0 0 l 594 1024 l 1232 1024 l 1232 899 l 796 899 l 796 576 l 1155 576 l 1155 451 l 796 451 l 796 125 l 1232 125 l 1232 0 l 651 0 l 651 217 l 286 217 l 164 0 l 0 0 m 356 340 l 651 340 l 651 865 l 356 340 z "},"ǽ":{"ha":1488,"x_min":76,"x_max":1420,"o":"m 660 849 l 826 1024 l 953 1024 l 771 849 l 660 849 m 397 -15 q 162 48 249 -15 q 76 217 76 110 q 120 337 76 290 q 235 405 164 385 q 404 425 307 425 q 609 432 563 425 q 654 467 654 438 l 654 488 q 600 591 654 556 q 455 627 547 627 q 299 591 358 627 q 241 486 241 555 l 92 486 q 142 629 92 568 q 272 719 191 690 q 456 749 353 749 q 628 717 551 749 q 746 621 704 684 q 875 716 798 682 q 1044 749 951 749 q 1317 641 1215 749 q 1420 365 1420 533 q 1418 316 1420 329 l 806 316 q 883 161 820 217 q 1047 106 945 106 q 1200 146 1144 106 q 1260 232 1255 186 l 1409 232 q 1379 147 1405 189 q 1309 67 1353 104 q 1195 8 1265 31 q 1043 -15 1126 -15 q 860 24 942 -15 q 727 135 778 64 q 591 22 681 58 q 397 -15 501 -15 m 808 432 l 1267 432 q 1265 453 1267 440 q 1196 579 1253 528 q 1046 630 1138 630 q 888 576 952 630 q 808 432 824 523 m 406 110 q 471 115 440 110 q 535 136 502 121 q 591 174 567 151 q 633 238 615 198 q 656 329 651 278 q 430 317 581 317 q 275 298 324 317 q 227 223 227 278 q 276 139 227 167 q 406 110 325 110 z "},"Ǿ":{"ha":985,"x_min":66,"x_max":919,"o":"m 394 1078 l 588 1210 l 722 1210 l 516 1078 l 394 1078 m 492 -15 q 269 51 366 -15 l 202 -61 l 122 -16 l 199 111 q 66 513 66 256 q 98 737 66 637 q 188 902 131 837 q 323 1002 245 967 q 492 1038 401 1038 q 715 975 617 1038 l 781 1086 l 863 1041 l 787 915 q 919 513 919 771 q 887 289 919 390 q 797 123 854 189 q 661 21 740 57 q 492 -15 583 -15 m 219 513 q 277 242 219 344 l 645 858 q 492 908 582 908 q 294 809 369 908 q 219 513 219 710 m 492 114 q 691 215 616 114 q 766 513 766 316 q 708 783 766 681 l 339 167 q 492 114 403 114 z "},"ǿ":{"ha":910,"x_min":69,"x_max":841,"o":"m 356 849 l 522 1024 l 650 1024 l 467 849 l 356 849 m 455 -14 q 272 26 353 -14 l 231 -36 l 161 12 l 201 72 q 103 200 138 124 q 69 369 69 277 q 176 642 69 536 q 455 749 284 749 q 628 714 551 749 l 667 772 l 736 724 l 701 671 q 804 542 767 619 q 841 369 841 465 q 733 94 841 201 q 455 -14 625 -14 m 220 369 q 280 191 220 260 l 553 601 q 455 619 509 619 q 285 551 350 619 q 220 369 220 483 m 455 115 q 625 185 560 115 q 690 369 690 255 q 622 553 690 485 l 347 139 q 455 115 396 115 z "},"Ȁ":{"ha":879,"x_min":49,"x_max":830,"o":"m 600 1078 l 510 1078 l 369 1211 l 474 1211 l 600 1078 m 382 1078 l 292 1078 l 140 1211 l 246 1211 l 382 1078 m 49 0 l 322 1026 l 559 1026 l 830 0 l 675 0 l 609 260 l 270 260 l 204 0 l 49 0 m 302 385 l 578 385 l 440 928 l 302 385 z "},"ȁ":{"ha":855,"x_min":76,"x_max":809,"o":"m 608 849 l 522 849 l 394 1024 l 500 1024 l 608 849 m 390 849 l 302 849 l 165 1024 l 270 1024 l 390 849 m 354 -15 q 152 44 228 -15 q 76 206 76 103 q 158 369 76 312 q 381 440 240 426 q 570 466 520 453 q 619 506 619 479 l 619 508 q 572 593 619 564 q 435 622 524 622 q 239 485 239 622 l 91 485 q 186 679 91 609 q 435 749 281 749 q 604 722 530 749 q 724 637 678 694 q 770 499 770 579 l 770 147 q 780 55 770 87 q 809 0 791 17 l 659 0 q 633 49 645 14 q 624 84 628 65 q 514 12 584 38 q 354 -15 443 -15 m 385 110 q 554 159 488 110 q 620 299 620 208 l 620 363 q 415 329 551 343 q 271 295 316 320 q 226 217 226 271 q 385 110 226 110 z "},"Ȃ":{"ha":879,"x_min":49,"x_max":830,"o":"m 263 1072 q 313 1163 263 1128 q 440 1197 363 1197 q 569 1163 518 1197 q 619 1072 619 1128 l 528 1072 q 504 1117 528 1099 q 440 1136 480 1136 q 377 1117 401 1136 q 353 1072 353 1099 l 263 1072 m 49 0 l 322 1026 l 559 1026 l 830 0 l 675 0 l 609 260 l 270 260 l 204 0 l 49 0 m 302 385 l 578 385 l 440 928 l 302 385 z "},"ȃ":{"ha":855,"x_min":76,"x_max":809,"o":"m 265 882 q 315 994 265 955 q 444 1033 364 1033 q 573 994 523 1033 q 622 882 622 955 l 531 882 q 508 948 531 924 q 444 971 484 971 q 380 948 403 971 q 356 882 356 924 l 265 882 m 354 -15 q 152 44 228 -15 q 76 206 76 103 q 158 369 76 312 q 381 440 240 426 q 570 466 520 453 q 619 506 619 479 l 619 508 q 572 593 619 564 q 435 622 524 622 q 239 485 239 622 l 91 485 q 186 679 91 609 q 435 749 281 749 q 604 722 530 749 q 724 637 678 694 q 770 499 770 579 l 770 147 q 780 55 770 87 q 809 0 791 17 l 659 0 q 633 49 645 14 q 624 84 628 65 q 514 12 584 38 q 354 -15 443 -15 m 385 110 q 554 159 488 110 q 620 299 620 208 l 620 363 q 415 329 551 343 q 271 295 316 320 q 226 217 226 271 q 385 110 226 110 z "},"Ȅ":{"ha":768,"x_min":92,"x_max":674,"o":"m 552 1078 l 463 1078 l 322 1211 l 426 1211 l 552 1078 m 334 1078 l 244 1078 l 92 1211 l 198 1211 l 334 1078 m 674 125 l 674 0 l 94 0 l 94 1024 l 674 1024 l 674 899 l 245 899 l 245 576 l 597 576 l 597 451 l 245 451 l 245 125 l 674 125 z "},"ȅ":{"ha":900,"x_min":69,"x_max":831,"o":"m 619 849 l 532 849 l 405 1024 l 510 1024 l 619 849 m 400 849 l 313 849 l 176 1024 l 281 1024 l 400 849 m 821 232 q 791 143 817 186 q 720 64 765 99 q 607 6 676 28 q 455 -15 538 -15 q 176 91 283 -15 q 69 367 69 198 q 177 643 69 537 q 456 749 285 749 q 729 644 626 749 q 831 370 831 538 q 828 316 831 334 l 219 316 q 296 165 233 219 q 460 111 358 111 q 612 147 559 111 q 671 232 665 183 l 821 232 m 457 624 q 301 574 363 624 q 222 433 238 523 l 674 433 q 611 570 667 516 q 457 624 555 624 z "},"Ȇ":{"ha":768,"x_min":94,"x_max":674,"o":"m 215 1072 q 265 1163 215 1128 q 392 1197 315 1197 q 521 1163 470 1197 q 572 1072 572 1128 l 480 1072 q 456 1117 480 1099 q 392 1136 432 1136 q 330 1117 353 1136 q 306 1072 306 1099 l 215 1072 m 674 125 l 674 0 l 94 0 l 94 1024 l 674 1024 l 674 899 l 245 899 l 245 576 l 597 576 l 597 451 l 245 451 l 245 125 l 674 125 z "},"ȇ":{"ha":900,"x_min":69,"x_max":831,"o":"m 276 882 q 325 994 276 955 q 454 1033 374 1033 q 583 994 534 1033 q 633 882 633 955 l 542 882 q 518 948 542 924 q 454 971 494 971 q 391 948 414 971 q 367 882 367 924 l 276 882 m 821 232 q 791 143 817 186 q 720 64 765 99 q 607 6 676 28 q 455 -15 538 -15 q 176 91 283 -15 q 69 367 69 198 q 177 643 69 537 q 456 749 285 749 q 729 644 626 749 q 831 370 831 538 q 828 316 831 334 l 219 316 q 296 165 233 219 q 460 111 358 111 q 612 147 559 111 q 671 232 665 183 l 821 232 m 457 624 q 301 574 363 624 q 222 433 238 523 l 674 433 q 611 570 667 516 q 457 624 555 624 z "},"Ȉ":{"ha":342,"x_min":-128,"x_max":331,"o":"m 331 1078 l 242 1078 l 101 1211 l 206 1211 l 331 1078 m 113 1078 l 23 1078 l -128 1211 l -23 1211 l 113 1078 m 97 0 l 97 1024 l 245 1024 l 245 0 l 97 0 z "},"ȉ":{"ha":350,"x_min":-103,"x_max":340,"o":"m 340 849 l 253 849 l 126 1024 l 231 1024 l 340 849 m 121 849 l 34 849 l -103 1024 l 2 1024 l 121 849 m 101 0 l 101 738 l 249 738 l 249 0 l 101 0 z "},"Ȋ":{"ha":342,"x_min":-6,"x_max":351,"o":"m -6 1072 q 44 1163 -6 1128 q 172 1197 94 1197 q 300 1163 249 1197 q 351 1072 351 1128 l 259 1072 q 235 1117 259 1099 q 172 1136 211 1136 q 109 1117 133 1136 q 85 1072 85 1099 l -6 1072 m 97 0 l 97 1024 l 245 1024 l 245 0 l 97 0 z "},"ȋ":{"ha":350,"x_min":-3,"x_max":353,"o":"m -3 882 q 46 994 -3 955 q 175 1033 95 1033 q 304 994 255 1033 q 353 882 353 955 l 263 882 q 239 948 263 924 q 175 971 215 971 q 111 948 135 971 q 88 882 88 924 l -3 882 m 101 0 l 101 738 l 249 738 l 249 0 l 101 0 z "},"Ȍ":{"ha":985,"x_min":66,"x_max":919,"o":"m 652 1078 l 563 1078 l 422 1211 l 526 1211 l 652 1078 m 433 1078 l 343 1078 l 192 1211 l 297 1211 l 433 1078 m 661 21 q 622 3 661 21 q 492 -15 583 -15 q 323 21 401 -15 q 188 123 245 57 q 98 289 131 189 q 66 513 66 390 q 98 737 66 637 q 188 902 131 837 q 323 1002 245 967 q 492 1038 401 1038 q 663 1002 585 1038 q 798 902 740 967 q 887 737 855 837 q 919 513 919 637 q 887 289 919 390 q 797 123 854 189 q 661 21 740 57 m 492 114 q 691 215 616 114 q 766 513 766 316 q 691 809 766 710 q 492 908 616 908 q 294 809 369 908 q 219 513 219 710 q 294 215 219 316 q 492 114 369 114 z "},"ȍ":{"ha":910,"x_min":69,"x_max":841,"o":"m 619 849 l 533 849 l 406 1024 l 511 1024 l 619 849 m 401 849 l 314 849 l 176 1024 l 282 1024 l 401 849 m 733 94 q 679 40 733 94 q 455 -14 625 -14 q 177 94 285 -14 q 69 369 69 201 q 176 642 69 536 q 455 749 284 749 q 733 642 626 749 q 841 369 841 536 q 733 94 841 201 m 285 185 q 318 150 285 185 q 455 115 350 115 q 625 185 560 115 q 690 369 690 255 q 625 551 690 483 q 455 619 560 619 q 285 551 350 619 q 220 369 220 483 q 285 185 220 255 z "},"Ȏ":{"ha":985,"x_min":66,"x_max":919,"o":"m 315 1072 q 365 1163 315 1128 q 492 1197 415 1197 q 620 1163 569 1197 q 672 1072 672 1128 l 580 1072 q 556 1117 580 1099 q 492 1136 532 1136 q 430 1117 453 1136 q 406 1072 406 1099 l 315 1072 m 661 21 q 622 3 661 21 q 492 -15 583 -15 q 323 21 401 -15 q 188 123 245 57 q 98 289 131 189 q 66 513 66 390 q 98 737 66 637 q 188 902 131 837 q 323 1002 245 967 q 492 1038 401 1038 q 663 1002 585 1038 q 798 902 740 967 q 887 737 855 837 q 919 513 919 637 q 887 289 919 390 q 797 123 854 189 q 661 21 740 57 m 492 114 q 691 215 616 114 q 766 513 766 316 q 691 809 766 710 q 492 908 616 908 q 294 809 369 908 q 219 513 219 710 q 294 215 219 316 q 492 114 369 114 z "},"ȏ":{"ha":910,"x_min":69,"x_max":841,"o":"m 276 882 q 326 994 276 955 q 456 1033 376 1033 q 584 994 535 1033 q 633 882 633 955 l 542 882 q 519 948 542 924 q 456 971 496 971 q 392 948 415 971 q 368 882 368 924 l 276 882 m 733 94 q 679 40 733 94 q 455 -14 625 -14 q 177 94 285 -14 q 69 369 69 201 q 176 642 69 536 q 455 749 284 749 q 733 642 626 749 q 841 369 841 536 q 733 94 841 201 m 285 185 q 318 150 285 185 q 455 115 350 115 q 625 185 560 115 q 690 369 690 255 q 625 551 690 483 q 455 619 560 619 q 285 551 350 619 q 220 369 220 483 q 285 185 220 255 z "},"Ȑ":{"ha":846,"x_min":89,"x_max":768,"o":"m 549 1078 l 459 1078 l 318 1211 l 423 1211 l 549 1078 m 330 1078 l 240 1078 l 89 1211 l 194 1211 l 330 1078 m 94 0 l 94 1024 l 469 1024 q 768 749 768 1024 q 750 642 768 692 q 703 561 731 592 q 643 511 674 530 q 581 489 611 492 q 640 476 613 486 q 691 445 667 465 q 728 391 715 426 q 742 311 742 357 l 742 91 q 760 0 742 22 l 608 0 q 592 91 592 26 l 592 293 q 553 392 592 358 q 439 425 514 425 l 241 425 l 241 0 l 94 0 m 433 899 l 241 899 l 241 550 l 440 550 q 564 602 514 550 q 613 737 613 653 q 433 899 613 899 z "},"ȑ":{"ha":585,"x_min":80,"x_max":563,"o":"m 522 849 l 436 849 l 309 1024 l 415 1024 l 522 849 m 304 849 l 217 849 l 80 1024 l 185 1024 l 304 849 m 99 0 l 99 738 l 249 738 l 249 640 q 458 749 317 749 q 526 743 497 749 q 563 731 555 737 l 531 590 q 444 610 502 610 q 350 590 390 610 q 289 536 310 569 q 259 465 268 502 q 249 385 249 427 l 249 0 l 99 0 z "},"Ȓ":{"ha":846,"x_min":94,"x_max":768,"o":"m 211 1072 q 261 1163 211 1128 q 389 1197 312 1197 q 517 1163 466 1197 q 568 1072 568 1128 l 476 1072 q 452 1117 476 1099 q 389 1136 428 1136 q 326 1117 350 1136 q 302 1072 302 1099 l 211 1072 m 94 0 l 94 1024 l 469 1024 q 768 749 768 1024 q 750 642 768 692 q 703 561 731 592 q 643 511 674 530 q 581 489 611 492 q 640 476 613 486 q 691 445 667 465 q 728 391 715 426 q 742 311 742 357 l 742 91 q 760 0 742 22 l 608 0 q 592 91 592 26 l 592 293 q 553 392 592 358 q 439 425 514 425 l 241 425 l 241 0 l 94 0 m 433 899 l 241 899 l 241 550 l 440 550 q 564 602 514 550 q 613 737 613 653 q 433 899 613 899 z "},"ȓ":{"ha":585,"x_min":99,"x_max":563,"o":"m 180 882 q 229 994 180 955 q 358 1033 278 1033 q 487 994 438 1033 q 537 882 537 955 l 446 882 q 422 948 446 924 q 358 971 399 971 q 294 948 318 971 q 271 882 271 924 l 180 882 m 99 0 l 99 738 l 249 738 l 249 640 q 458 749 317 749 q 526 743 497 749 q 563 731 555 737 l 531 590 q 444 610 502 610 q 350 590 390 610 q 289 536 310 569 q 259 465 268 502 q 249 385 249 427 l 249 0 l 99 0 z "},"Ȕ":{"ha":913,"x_min":94,"x_max":819,"o":"m 615 1078 l 526 1078 l 385 1211 l 490 1211 l 615 1078 m 397 1078 l 307 1078 l 156 1211 l 261 1211 l 397 1078 m 819 375 q 724 83 819 181 q 456 -15 629 -15 q 188 83 283 -15 q 94 375 94 181 l 94 1024 l 244 1024 l 244 376 q 296 176 244 239 q 456 114 348 114 q 616 176 563 114 q 668 376 668 239 l 668 1024 l 819 1024 l 819 375 z "},"ȕ":{"ha":849,"x_min":99,"x_max":757,"o":"m 580 849 l 494 849 l 367 1024 l 472 1024 l 580 849 m 362 849 l 275 849 l 138 1024 l 243 1024 l 362 849 m 367 -13 q 259 5 307 -13 q 182 52 211 23 q 133 120 152 81 q 106 198 114 159 q 99 280 99 238 l 99 738 l 250 738 l 250 318 q 411 120 250 120 q 513 156 467 120 q 583 244 559 192 q 606 352 606 297 l 606 738 l 757 738 l 757 0 l 606 0 l 606 109 q 504 19 565 52 q 367 -13 443 -13 z "},"Ȗ":{"ha":913,"x_min":94,"x_max":819,"o":"m 278 1072 q 328 1163 278 1128 q 456 1197 378 1197 q 584 1163 533 1197 q 635 1072 635 1128 l 543 1072 q 519 1117 543 1099 q 456 1136 495 1136 q 393 1117 417 1136 q 369 1072 369 1099 l 278 1072 m 819 375 q 724 83 819 181 q 456 -15 629 -15 q 188 83 283 -15 q 94 375 94 181 l 94 1024 l 244 1024 l 244 376 q 296 176 244 239 q 456 114 348 114 q 616 176 563 114 q 668 376 668 239 l 668 1024 l 819 1024 l 819 375 z "},"ȗ":{"ha":849,"x_min":99,"x_max":757,"o":"m 238 882 q 287 994 238 955 q 416 1033 336 1033 q 545 994 495 1033 q 594 882 594 955 l 503 882 q 480 948 503 924 q 416 971 456 971 q 352 948 376 971 q 329 882 329 924 l 238 882 m 367 -13 q 259 5 307 -13 q 182 52 211 23 q 133 120 152 81 q 106 198 114 159 q 99 280 99 238 l 99 738 l 250 738 l 250 318 q 411 120 250 120 q 513 156 467 120 q 583 244 559 192 q 606 352 606 297 l 606 738 l 757 738 l 757 0 l 606 0 l 606 109 q 504 19 565 52 q 367 -13 443 -13 z "},"Ș":{"ha":832,"x_min":66,"x_max":766,"o":"m 416 -15 q 158 64 251 -15 q 66 294 66 142 l 66 339 l 217 339 l 217 297 q 415 114 217 114 q 568 148 517 114 q 619 256 619 183 q 601 326 619 295 q 547 380 583 356 q 470 422 511 404 q 367 458 428 440 q 251 505 301 478 q 158 568 200 531 q 95 657 117 606 q 73 771 73 708 q 166 967 73 897 q 410 1038 258 1038 q 665 963 572 1038 q 758 744 758 888 l 758 696 l 607 696 l 607 738 q 559 868 607 826 q 413 909 510 909 q 219 771 219 909 q 232 712 219 739 q 265 666 245 685 q 320 629 285 647 q 388 598 355 610 q 469 569 420 585 q 594 519 543 544 q 685 458 644 494 q 746 373 726 422 q 766 261 766 325 q 672 58 766 131 q 416 -15 578 -15 m 403 -174 q 359 -159 376 -174 q 342 -119 342 -144 q 364 -75 342 -91 q 415 -60 385 -60 q 467 -78 444 -60 q 490 -133 490 -96 q 454 -242 490 -199 q 371 -308 419 -286 l 360 -281 q 422 -233 394 -266 q 449 -156 449 -200 q 431 -169 444 -164 q 403 -174 418 -174 z "},"ș":{"ha":781,"x_min":69,"x_max":713,"o":"m 389 -15 q 228 10 299 -15 q 113 87 156 35 q 69 209 69 138 l 69 228 l 219 228 l 219 214 q 265 138 219 164 q 393 111 310 111 q 517 134 469 111 q 565 202 565 158 q 520 272 565 249 q 365 313 475 294 q 279 331 318 321 q 202 360 240 342 q 138 401 163 378 q 95 457 112 424 q 79 533 79 491 q 167 692 79 634 q 390 749 256 749 q 543 723 474 749 q 656 645 613 697 q 699 522 699 592 l 699 510 l 550 510 l 550 519 q 503 597 550 570 q 390 624 457 624 q 332 620 360 624 q 281 606 305 615 q 242 578 256 596 q 227 538 227 561 q 240 496 227 513 q 282 466 253 478 q 342 445 310 453 q 424 428 374 438 q 510 410 472 420 q 587 383 547 401 q 653 343 626 365 q 696 286 679 320 q 713 208 713 251 q 666 83 713 135 q 549 9 620 32 q 389 -15 477 -15 m 378 -174 q 334 -159 351 -174 q 317 -119 317 -144 q 339 -75 317 -91 q 390 -60 360 -60 q 442 -78 419 -60 q 465 -133 465 -96 q 429 -242 465 -199 q 346 -308 394 -286 l 334 -281 q 397 -233 369 -266 q 424 -156 424 -200 q 406 -169 419 -164 q 378 -174 393 -174 z "},"Ț":{"ha":779,"x_min":51,"x_max":728,"o":"m 728 899 l 465 899 l 465 0 l 314 0 l 314 899 l 51 899 l 51 1024 l 728 1024 l 728 899 m 377 -174 q 333 -159 350 -174 q 316 -119 316 -144 q 337 -75 316 -90 q 389 -60 358 -60 q 441 -78 419 -60 q 464 -133 464 -96 q 428 -242 464 -199 q 345 -308 393 -285 l 333 -281 q 395 -233 368 -266 q 423 -156 423 -200 q 406 -169 419 -164 q 377 -174 392 -174 z "},"ț":{"ha":629,"x_min":31,"x_max":584,"o":"m 414 -12 q 208 182 208 -12 l 208 613 l 31 613 l 31 738 l 124 738 q 158 738 147 738 q 181 742 169 738 q 196 751 192 747 q 203 770 200 756 q 207 798 207 783 q 208 839 208 812 l 208 981 l 358 981 l 358 738 l 584 738 l 584 613 l 358 613 l 358 232 q 373 141 358 170 q 434 113 388 113 q 502 124 476 113 l 502 1 q 414 -12 465 -12 m 347 -174 q 303 -159 319 -174 q 286 -119 286 -144 q 307 -75 286 -91 q 358 -60 328 -60 q 411 -78 388 -60 q 433 -133 433 -96 q 398 -242 433 -199 q 315 -308 363 -286 l 303 -281 q 365 -233 338 -266 q 392 -156 392 -200 q 375 -169 388 -164 q 347 -174 362 -174 z "},"Ȩ":{"ha":768,"x_min":94,"x_max":674,"o":"m 465 -63 q 534 -90 505 -63 q 563 -167 563 -117 q 513 -260 563 -228 q 392 -293 463 -293 q 316 -284 353 -293 q 263 -264 278 -274 l 294 -205 q 338 -224 309 -215 q 397 -233 366 -233 q 467 -215 440 -233 q 494 -164 494 -197 q 480 -124 494 -137 q 441 -111 465 -111 q 405 -118 423 -111 q 378 -137 387 -125 l 318 -119 l 367 0 l 94 0 l 94 1024 l 674 1024 l 674 899 l 245 899 l 245 576 l 597 576 l 597 451 l 245 451 l 245 125 l 674 125 l 674 0 l 435 0 l 401 -81 q 465 -63 429 -63 z "},"ȩ":{"ha":898,"x_min":69,"x_max":831,"o":"m 523 -63 q 592 -90 563 -63 q 622 -167 622 -117 q 571 -260 622 -228 q 449 -293 521 -293 q 374 -284 411 -293 q 322 -264 336 -274 l 352 -205 q 455 -233 397 -233 q 524 -215 497 -233 q 551 -164 551 -197 q 538 -124 551 -137 q 499 -111 524 -111 q 463 -118 481 -111 q 437 -137 445 -125 l 374 -119 l 417 -14 q 165 103 260 -1 q 69 367 69 208 q 177 643 69 537 q 456 749 285 749 q 729 644 626 749 q 831 370 831 538 q 828 316 831 334 l 219 316 q 296 165 233 219 q 460 111 358 111 q 612 147 559 111 q 671 232 665 183 l 821 232 q 724 67 813 140 q 489 -15 636 -6 l 463 -77 q 523 -63 492 -63 m 457 624 q 301 574 363 624 q 222 433 238 523 l 674 433 q 611 570 667 516 q 457 624 555 624 z "},"Ȫ":{"ha":985,"x_min":66,"x_max":919,"o":"m 300 1303 l 300 1368 l 684 1368 l 684 1303 l 300 1303 m 347 1080 q 285 1100 310 1080 q 259 1153 259 1120 q 285 1207 259 1187 q 347 1227 310 1227 q 409 1207 383 1227 q 435 1153 435 1187 q 409 1100 435 1120 q 347 1080 383 1080 m 701 1100 q 689 1090 701 1100 q 639 1080 676 1080 q 577 1100 602 1080 q 551 1153 551 1120 q 577 1207 551 1187 q 639 1227 602 1227 q 701 1207 676 1227 q 727 1153 727 1187 q 701 1100 727 1120 m 661 21 q 622 3 661 21 q 492 -15 583 -15 q 323 21 401 -15 q 188 123 245 57 q 98 289 131 189 q 66 513 66 390 q 98 737 66 637 q 188 902 131 837 q 323 1002 245 967 q 492 1038 401 1038 q 663 1002 585 1038 q 798 902 740 967 q 887 737 855 837 q 919 513 919 637 q 887 289 919 390 q 797 123 854 189 q 661 21 740 57 m 492 114 q 691 215 616 114 q 766 513 766 316 q 691 809 766 710 q 492 908 616 908 q 294 809 369 908 q 219 513 219 710 q 294 215 219 316 q 492 114 369 114 z "},"ȫ":{"ha":910,"x_min":69,"x_max":841,"o":"m 263 1129 l 263 1194 l 647 1194 l 647 1129 l 263 1129 m 372 908 q 359 898 372 908 q 309 888 346 888 q 247 908 272 888 q 221 962 221 928 q 247 1015 221 995 q 309 1035 272 1035 q 372 1015 346 1035 q 397 962 397 995 q 372 908 397 928 m 663 908 q 650 898 663 908 q 601 888 638 888 q 539 908 564 888 q 513 962 513 928 q 539 1015 513 995 q 601 1035 564 1035 q 663 1015 638 1035 q 689 962 689 995 q 663 908 689 928 m 733 94 q 679 40 733 94 q 455 -14 625 -14 q 177 94 285 -14 q 69 369 69 201 q 176 642 69 536 q 455 749 284 749 q 733 642 626 749 q 841 369 841 536 q 733 94 841 201 m 285 185 q 318 150 285 185 q 455 115 350 115 q 625 185 560 115 q 690 369 690 255 q 625 551 690 483 q 455 619 560 619 q 285 551 350 619 q 220 369 220 483 q 285 185 220 255 z "},"Ȭ":{"ha":985,"x_min":66,"x_max":919,"o":"m 300 1311 l 300 1376 l 684 1376 l 684 1311 l 300 1311 m 706 1199 q 699 1157 706 1178 q 678 1116 692 1136 q 640 1084 664 1097 q 585 1072 616 1072 q 488 1112 540 1072 q 419 1144 447 1144 q 369 1090 372 1144 l 286 1090 q 322 1177 288 1137 q 415 1218 356 1218 q 509 1179 461 1218 q 578 1146 552 1146 q 624 1199 620 1146 l 706 1199 m 661 21 q 622 3 661 21 q 492 -15 583 -15 q 323 21 401 -15 q 188 123 245 57 q 98 289 131 189 q 66 513 66 390 q 98 737 66 637 q 188 902 131 837 q 323 1002 245 967 q 492 1038 401 1038 q 663 1002 585 1038 q 798 902 740 967 q 887 737 855 837 q 919 513 919 637 q 887 289 919 390 q 797 123 854 189 q 661 21 740 57 m 492 114 q 691 215 616 114 q 766 513 766 316 q 691 809 766 710 q 492 908 616 908 q 294 809 369 908 q 219 513 219 710 q 294 215 219 316 q 492 114 369 114 z "},"ȭ":{"ha":910,"x_min":69,"x_max":841,"o":"m 263 1122 l 263 1188 l 647 1188 l 647 1122 l 263 1122 m 665 1009 q 657 967 665 988 q 636 926 650 946 q 598 894 622 907 q 544 882 574 882 q 447 922 496 882 q 377 953 406 953 q 328 899 332 953 l 245 899 q 281 987 247 947 q 374 1028 315 1028 q 467 990 419 1028 q 537 956 511 956 q 583 1009 580 956 l 665 1009 m 733 94 q 679 40 733 94 q 455 -14 625 -14 q 177 94 285 -14 q 69 369 69 201 q 176 642 69 536 q 455 749 284 749 q 733 642 626 749 q 841 369 841 536 q 733 94 841 201 m 285 185 q 318 150 285 185 q 455 115 350 115 q 625 185 560 115 q 690 369 690 255 q 625 551 690 483 q 455 619 560 619 q 285 551 350 619 q 220 369 220 483 q 285 185 220 255 z "},"Ȱ":{"ha":985,"x_min":66,"x_max":919,"o":"m 301 1341 l 301 1406 l 685 1406 l 685 1341 l 301 1341 m 494 1089 q 427 1110 454 1089 q 399 1168 399 1132 q 427 1226 399 1204 q 494 1247 454 1247 q 561 1226 534 1247 q 589 1168 589 1204 q 561 1110 589 1132 q 494 1089 534 1089 m 661 21 q 622 3 661 21 q 492 -15 583 -15 q 323 21 401 -15 q 188 123 245 57 q 98 289 131 189 q 66 513 66 390 q 98 737 66 637 q 188 902 131 837 q 323 1002 245 967 q 492 1038 401 1038 q 663 1002 585 1038 q 798 902 740 967 q 887 737 855 837 q 919 513 919 637 q 887 289 919 390 q 797 123 854 189 q 661 21 740 57 m 492 114 q 691 215 616 114 q 766 513 766 316 q 691 809 766 710 q 492 908 616 908 q 294 809 369 908 q 219 513 219 710 q 294 215 219 316 q 492 114 369 114 z "},"ȱ":{"ha":910,"x_min":69,"x_max":841,"o":"m 263 1140 l 263 1206 l 647 1206 l 647 1140 l 263 1140 m 456 890 q 389 911 416 890 q 361 969 361 933 q 389 1026 361 1005 q 456 1048 416 1048 q 523 1026 496 1048 q 551 969 551 1005 q 523 911 551 933 q 456 890 496 890 m 733 94 q 679 40 733 94 q 455 -14 625 -14 q 177 94 285 -14 q 69 369 69 201 q 176 642 69 536 q 455 749 284 749 q 733 642 626 749 q 841 369 841 536 q 733 94 841 201 m 285 185 q 318 150 285 185 q 455 115 350 115 q 625 185 560 115 q 690 369 690 255 q 625 551 690 483 q 455 619 560 619 q 285 551 350 619 q 220 369 220 483 q 285 185 220 255 z "},"Ȳ":{"ha":828,"x_min":49,"x_max":778,"o":"m 221 1118 l 221 1183 l 605 1183 l 605 1118 l 221 1118 m 778 1024 l 488 355 l 488 0 l 338 0 l 338 355 l 49 1024 l 208 1024 l 413 517 l 618 1024 l 778 1024 z "},"ȳ":{"ha":742,"x_min":42,"x_max":708,"o":"m 180 908 l 180 974 l 564 974 l 564 908 l 180 908 m 134 -314 q 49 -305 69 -314 l 49 -182 q 124 -192 70 -192 q 277 -62 233 -192 l 296 -6 l 42 738 l 199 738 l 378 144 l 553 738 l 708 738 l 444 -54 q 411 -139 428 -103 q 369 -209 394 -174 q 312 -266 343 -244 q 235 -301 281 -287 q 134 -314 190 -314 z "},"ȷ":{"ha":362,"x_min":-83,"x_max":259,"o":"m -18 -312 q -83 -308 -59 -312 l -83 -194 q -18 -201 -54 -201 q 40 -192 15 -201 q 77 -170 64 -183 q 97 -137 90 -158 q 107 -100 105 -117 q 108 -61 108 -83 l 108 738 l 259 738 l 259 -66 q 254 -139 259 -107 q 232 -205 249 -171 q 185 -261 215 -239 q 104 -298 156 -283 q -18 -312 53 -312 z "},"ə":{"ha":900,"x_min":69,"x_max":831,"o":"m 723 91 q 669 38 723 91 q 444 -15 615 -15 q 171 90 274 -15 q 69 364 69 196 q 70 418 69 400 l 683 418 q 609 570 670 518 q 440 623 548 623 q 288 587 340 623 q 229 502 235 551 l 79 502 q 109 591 83 548 q 180 670 135 635 q 293 728 224 706 q 445 749 363 749 q 724 643 617 749 q 831 367 831 536 q 723 91 831 197 m 443 110 q 603 159 541 110 q 681 301 665 209 l 226 301 q 287 164 232 217 q 443 110 342 110 z "},"ɲ":{"ha":823,"x_min":-83,"x_max":731,"o":"m -83 -320 l -83 -211 q -14 -197 -44 -211 q 34 -157 17 -182 q 59 -102 51 -132 q 67 -39 67 -72 l 67 738 l 217 738 l 217 628 q 326 717 261 685 q 465 749 390 749 q 662 676 593 749 q 731 472 731 602 l 731 0 l 581 0 l 581 430 q 544 566 581 518 q 418 613 508 613 q 280 558 338 613 q 217 419 223 502 l 217 -39 q 215 -97 217 -71 q 205 -152 213 -122 q 185 -206 198 -183 q 149 -251 172 -228 q 95 -288 126 -274 q 19 -311 65 -302 q -83 -320 -26 -320 z "},"ʒ":{"ha":818,"x_min":87,"x_max":721,"o":"m 408 -301 q 87 31 87 -301 l 87 33 l 238 33 l 238 31 q 282 -129 238 -82 q 410 -176 325 -176 q 569 12 569 -176 q 520 140 569 106 q 350 174 471 174 l 287 174 l 542 613 l 111 613 l 111 738 l 708 738 l 708 622 l 500 284 q 626 249 575 284 q 699 157 676 215 q 721 20 721 99 q 642 -215 721 -128 q 408 -301 564 -301 z "},"ʼ":{"ha":225,"x_min":51,"x_max":174,"o":"m 174 1024 l 156 718 l 68 718 l 51 1024 l 174 1024 z "},"ˆ":{"ha":619,"x_min":105,"x_max":515,"o":"m 105 849 l 258 1024 l 362 1024 l 515 849 l 413 849 l 310 970 l 206 849 l 105 849 z "},"ˇ":{"ha":619,"x_min":105,"x_max":515,"o":"m 105 1024 l 206 1024 l 310 903 l 413 1024 l 515 1024 l 362 849 l 258 849 l 105 1024 z "},"ˉ":{"ha":556,"x_min":85,"x_max":469,"o":"m 85 908 l 85 974 l 469 974 l 469 908 l 85 908 z "},"˘":{"ha":466,"x_min":51,"x_max":408,"o":"m 51 1038 l 142 1038 q 166 967 142 995 q 230 939 190 939 q 293 967 269 939 q 317 1038 317 994 l 408 1038 q 358 921 408 965 q 230 877 308 877 q 102 921 152 877 q 51 1038 51 965 z "},"˙":{"ha":328,"x_min":69,"x_max":258,"o":"m 164 890 q 96 911 124 890 q 69 969 69 933 q 96 1026 69 1005 q 164 1048 124 1048 q 231 1026 203 1048 q 258 969 258 1005 q 231 911 258 933 q 164 890 203 890 z "},"˚":{"ha":521,"x_min":115,"x_max":400,"o":"m 258 798 q 157 840 199 798 q 115 940 115 881 q 157 1041 115 999 q 258 1083 199 1083 q 358 1041 317 1083 q 400 940 400 999 q 358 839 400 881 q 258 798 317 798 m 258 866 q 310 888 289 866 q 332 940 332 909 q 310 992 332 971 q 258 1014 289 1014 q 206 992 227 1014 q 184 940 184 971 q 206 888 184 909 q 258 866 227 866 z "},"˛":{"ha":574,"x_min":125,"x_max":336,"o":"m 336 -224 l 336 -299 q 272 -304 303 -304 q 166 -277 207 -304 q 125 -194 125 -250 q 166 -91 125 -146 q 256 0 207 -36 l 336 0 q 251 -90 291 -39 q 211 -175 211 -141 q 281 -229 211 -229 q 336 -224 304 -229 z "},"˜":{"ha":631,"x_min":113,"x_max":533,"o":"m 533 1009 q 525 967 533 988 q 504 926 518 946 q 466 894 490 907 q 412 882 442 882 q 315 922 364 882 q 245 953 274 953 q 196 899 200 953 l 113 899 q 149 987 115 947 q 242 1028 183 1028 q 336 990 287 1028 q 405 956 378 956 q 451 1009 448 956 l 533 1009 z "},"˝":{"ha":633,"x_min":85,"x_max":528,"o":"m 85 849 l 194 1024 l 299 1024 l 168 849 l 85 849 m 307 849 l 422 1024 l 528 1024 l 390 849 l 307 849 z "},"̀":{"ha":0,"x_min":92,"x_max":386,"o":"m 386 849 l 274 849 l 92 1024 l 219 1024 l 386 849 z "},"́":{"ha":0,"x_min":49,"x_max":342,"o":"m 49 849 l 215 1024 l 342 1024 l 160 849 l 49 849 z "},"̂":{"ha":0,"x_min":105,"x_max":515,"o":"m 105 849 l 258 1024 l 362 1024 l 515 849 l 413 849 l 310 970 l 206 849 l 105 849 z "},"̃":{"ha":0,"x_min":113,"x_max":533,"o":"m 533 1009 q 525 967 533 988 q 504 926 518 946 q 466 894 490 907 q 412 882 442 882 q 315 922 364 882 q 245 953 274 953 q 196 899 200 953 l 113 899 q 149 987 115 947 q 242 1028 183 1028 q 336 990 287 1028 q 405 956 378 956 q 451 1009 448 956 l 533 1009 z "},"̄":{"ha":0,"x_min":85,"x_max":469,"o":"m 85 908 l 85 974 l 469 974 l 469 908 l 85 908 z "},"̆":{"ha":0,"x_min":51,"x_max":408,"o":"m 51 1038 l 142 1038 q 166 967 142 995 q 230 939 190 939 q 293 967 269 939 q 317 1038 317 994 l 408 1038 q 358 921 408 965 q 230 877 308 877 q 102 921 152 877 q 51 1038 51 965 z "},"̇":{"ha":0,"x_min":69,"x_max":258,"o":"m 164 890 q 96 911 124 890 q 69 969 69 933 q 96 1026 69 1005 q 164 1048 124 1048 q 231 1026 203 1048 q 258 969 258 1005 q 231 911 258 933 q 164 890 203 890 z "},"̈":{"ha":0,"x_min":40,"x_max":508,"o":"m 128 888 q 65 908 91 888 q 40 962 40 928 q 65 1015 40 995 q 128 1035 91 1035 q 190 1015 164 1035 q 215 962 215 995 q 190 908 215 928 q 128 888 164 888 m 482 908 q 469 898 482 908 q 419 888 456 888 q 357 908 383 888 q 332 962 332 928 q 357 1015 332 995 q 419 1035 383 1035 q 482 1015 456 1035 q 508 962 508 995 q 482 908 508 928 z "},"̉":{"ha":0,"x_min":127,"x_max":392,"o":"m 127 1043 q 234 1040 191 1043 q 315 1028 276 1037 q 373 1002 354 1020 q 392 957 392 984 q 343 888 392 910 q 217 865 293 865 l 199 908 q 315 951 315 913 q 269 983 315 976 q 127 991 224 991 l 127 1043 z "},"̊":{"ha":0,"x_min":115,"x_max":400,"o":"m 258 798 q 157 840 199 798 q 115 940 115 881 q 157 1041 115 999 q 258 1083 199 1083 q 358 1041 317 1083 q 400 940 400 999 q 358 839 400 881 q 258 798 317 798 m 258 866 q 310 888 289 866 q 332 940 332 909 q 310 992 332 971 q 258 1014 289 1014 q 206 992 227 1014 q 184 940 184 971 q 206 888 184 909 q 258 866 227 866 z "},"̋":{"ha":0,"x_min":85,"x_max":528,"o":"m 85 849 l 194 1024 l 299 1024 l 168 849 l 85 849 m 307 849 l 422 1024 l 528 1024 l 390 849 l 307 849 z "},"̌":{"ha":0,"x_min":105,"x_max":515,"o":"m 105 1024 l 206 1024 l 310 903 l 413 1024 l 515 1024 l 362 849 l 258 849 l 105 1024 z "},"̏":{"ha":0,"x_min":33,"x_max":476,"o":"m 476 849 l 390 849 l 263 1024 l 367 1024 l 476 849 m 257 849 l 170 849 l 33 1024 l 138 1024 l 257 849 z "},"̑":{"ha":0,"x_min":41,"x_max":398,"o":"m 41 882 q 90 994 41 955 q 219 1033 140 1033 q 348 994 299 1033 q 398 882 398 955 l 307 882 q 283 948 307 924 q 219 971 260 971 q 156 948 179 971 q 133 882 133 924 l 41 882 z "},"̒":{"ha":0,"x_min":67,"x_max":226,"o":"m 157 967 q 207 949 188 967 q 226 901 226 931 q 205 850 226 869 q 147 831 184 831 q 88 857 109 831 q 67 924 67 883 q 103 1019 67 978 q 191 1080 140 1059 l 206 1049 q 145 1009 172 1037 q 119 953 119 982 q 132 963 121 958 q 157 967 143 967 z "},"̛":{"ha":0,"x_min":147,"x_max":349,"o":"m 147 738 q 240 779 216 738 q 264 927 264 819 l 349 927 q 300 726 349 786 q 147 666 251 666 l 147 738 z "},"̣":{"ha":0,"x_min":69,"x_max":258,"o":"m 164 -253 q 96 -231 124 -253 q 69 -174 69 -210 q 96 -116 69 -137 q 164 -95 124 -95 q 231 -117 203 -95 q 258 -174 258 -138 q 231 -231 258 -210 q 164 -253 203 -253 z "},"̤":{"ha":0,"x_min":40,"x_max":508,"o":"m 128 -251 q 65 -231 91 -251 q 40 -176 40 -210 q 65 -123 40 -143 q 128 -103 91 -103 q 190 -123 164 -103 q 215 -176 215 -143 q 190 -231 215 -210 q 128 -251 164 -251 m 482 -231 q 469 -241 482 -231 q 419 -251 456 -251 q 357 -231 383 -251 q 332 -176 332 -210 q 357 -123 332 -143 q 419 -103 383 -103 q 482 -123 456 -103 q 508 -176 508 -143 q 482 -231 508 -210 z "},"̦":{"ha":0,"x_min":78,"x_max":226,"o":"m 139 -174 q 95 -159 113 -174 q 78 -119 78 -144 q 100 -75 78 -91 q 151 -60 121 -60 q 203 -78 181 -60 q 226 -133 226 -96 q 190 -242 226 -199 q 107 -308 155 -286 l 96 -281 q 158 -233 131 -266 q 185 -156 185 -200 q 167 -169 181 -164 q 139 -174 154 -174 z "},"̧":{"ha":0,"x_min":151,"x_max":451,"o":"m 353 -63 q 422 -90 392 -63 q 451 -167 451 -117 q 401 -260 451 -228 q 279 -293 351 -293 q 203 -284 241 -293 q 151 -264 165 -274 l 182 -205 q 225 -224 197 -215 q 285 -233 253 -233 q 354 -215 327 -233 q 381 -164 381 -197 q 367 -124 381 -137 q 328 -111 353 -111 q 292 -118 310 -111 q 266 -137 274 -125 l 203 -119 l 251 0 l 324 0 l 293 -77 q 353 -63 321 -63 z "},"̨":{"ha":0,"x_min":125,"x_max":336,"o":"m 336 -224 l 336 -299 q 272 -304 303 -304 q 166 -277 207 -304 q 125 -194 125 -250 q 166 -91 125 -146 q 256 0 207 -36 l 336 0 q 251 -90 291 -39 q 211 -175 211 -141 q 281 -229 211 -229 q 336 -224 304 -229 z "},"̮":{"ha":0,"x_min":74,"x_max":431,"o":"m 74 -85 l 165 -85 q 189 -151 165 -128 q 253 -175 212 -175 q 316 -151 293 -175 q 340 -85 340 -128 l 431 -85 q 381 -197 431 -158 q 253 -236 332 -236 q 123 -197 173 -236 q 74 -85 74 -158 z "},"̱":{"ha":0,"x_min":84,"x_max":444,"o":"m 84 -190 l 84 -124 l 444 -124 l 444 -190 l 84 -190 z "},"̵":{"ha":0,"x_min":58,"x_max":549,"o":"m 58 358 l 58 429 l 549 429 l 549 358 l 58 358 z "},"̶":{"ha":0,"x_min":58,"x_max":756,"o":"m 58 358 l 58 429 l 756 429 l 756 358 l 58 358 z "},"̷":{"ha":0,"x_min":87,"x_max":662,"o":"m 662 727 l 156 -33 l 87 15 l 593 776 l 662 727 z "},"̸":{"ha":0,"x_min":119,"x_max":860,"o":"m 860 1035 l 199 -67 l 119 -22 l 778 1081 l 860 1035 z "},"Ḉ":{"ha":940,"x_min":66,"x_max":874,"o":"m 388 1078 l 581 1210 l 716 1210 l 510 1078 l 388 1078 m 548 -63 q 617 -90 588 -63 q 647 -167 647 -117 q 596 -260 647 -228 q 474 -293 546 -293 q 399 -284 436 -293 q 346 -264 361 -275 l 377 -205 q 480 -233 422 -233 q 549 -215 522 -233 q 576 -164 576 -197 q 563 -124 576 -137 q 524 -111 549 -111 q 488 -118 506 -111 q 462 -137 470 -125 l 401 -119 l 444 -12 q 166 148 266 4 q 66 512 66 292 q 114 783 66 665 q 259 969 163 901 q 487 1038 355 1038 q 635 1012 567 1038 q 749 943 703 986 q 824 848 794 900 q 865 738 853 796 q 874 662 874 697 l 723 662 q 719 704 723 681 q 645 850 707 792 q 487 908 584 908 q 292 806 364 908 q 219 512 219 704 q 292 217 219 319 q 487 114 364 114 q 588 135 542 114 q 662 191 633 156 q 707 271 691 226 q 723 363 723 315 l 874 363 q 851 236 874 299 q 785 118 828 173 q 671 27 742 63 q 512 -14 600 -10 l 485 -81 q 548 -63 511 -63 z "},"ḉ":{"ha":876,"x_min":69,"x_max":808,"o":"m 351 849 l 517 1024 l 644 1024 l 462 849 l 351 849 m 515 -63 q 584 -90 555 -63 q 614 -167 614 -117 q 564 -260 614 -228 q 442 -293 513 -293 q 366 -284 403 -293 q 314 -264 328 -274 l 344 -205 q 447 -233 390 -233 q 517 -215 490 -233 q 544 -164 544 -197 q 530 -124 544 -137 q 492 -111 516 -111 q 456 -118 474 -111 q 429 -137 438 -125 l 366 -119 l 410 -12 q 164 106 258 2 q 69 370 69 209 q 177 646 69 543 q 456 749 286 749 q 605 724 537 749 q 716 657 673 698 q 784 566 760 616 q 808 465 808 516 l 808 460 l 659 460 l 657 477 q 594 580 648 540 q 455 619 540 619 q 288 555 354 619 q 222 370 222 490 q 288 183 222 250 q 455 115 355 115 q 603 159 551 115 q 659 271 654 203 l 808 271 q 787 173 808 221 q 725 84 765 124 q 622 16 685 43 q 481 -14 558 -10 l 456 -77 q 515 -63 485 -63 z "},"Ḍ":{"ha":890,"x_min":94,"x_max":824,"o":"m 94 0 l 94 1024 l 375 1024 q 701 885 578 1024 q 824 513 824 747 q 701 140 824 280 q 375 0 578 0 l 94 0 m 357 899 l 245 899 l 245 125 l 357 125 q 583 231 495 125 q 670 513 670 336 q 583 795 670 690 q 357 899 495 899 m 493 -232 q 479 -243 493 -232 q 426 -253 465 -253 q 359 -232 386 -253 q 331 -175 331 -210 q 359 -117 331 -139 q 426 -96 386 -96 q 493 -117 465 -96 q 521 -175 521 -139 q 493 -232 521 -210 z "},"ḍ":{"ha":887,"x_min":69,"x_max":792,"o":"m 404 -15 q 275 11 335 -15 q 168 84 214 36 q 95 205 122 131 q 69 370 69 279 q 96 532 69 459 q 169 652 123 605 q 276 724 216 699 q 404 749 336 749 q 534 723 472 749 q 641 647 595 696 l 641 1085 l 792 1085 l 792 0 l 641 0 l 641 90 q 535 13 597 40 q 404 -15 474 -15 m 434 122 q 580 182 519 122 q 641 328 641 241 l 641 418 q 579 560 641 502 q 434 617 517 617 q 282 555 340 617 q 224 370 224 492 q 282 186 224 249 q 434 122 340 122 m 570 -238 q 557 -249 570 -238 q 503 -260 543 -260 q 436 -238 464 -260 q 409 -181 409 -217 q 436 -123 409 -144 q 503 -101 464 -101 q 570 -123 542 -101 q 598 -181 598 -145 q 570 -238 598 -217 z "},"Ḏ":{"ha":890,"x_min":94,"x_max":824,"o":"m 94 0 l 94 1024 l 375 1024 q 701 885 578 1024 q 824 513 824 747 q 701 140 824 280 q 375 0 578 0 l 94 0 m 357 899 l 245 899 l 245 125 l 357 125 q 583 231 495 125 q 670 513 670 336 q 583 795 670 690 q 357 899 495 899 m 218 -190 l 218 -124 l 634 -124 l 634 -190 l 218 -190 z "},"ḏ":{"ha":887,"x_min":69,"x_max":792,"o":"m 404 -15 q 275 11 335 -15 q 168 84 214 36 q 95 205 122 131 q 69 370 69 279 q 96 532 69 459 q 169 652 123 605 q 276 724 216 699 q 404 749 336 749 q 534 723 472 749 q 641 647 595 696 l 641 1085 l 792 1085 l 792 0 l 641 0 l 641 90 q 535 13 597 40 q 404 -15 474 -15 m 434 122 q 580 182 519 122 q 641 328 641 241 l 641 418 q 579 560 641 502 q 434 617 517 617 q 282 555 340 617 q 224 370 224 492 q 282 186 224 249 q 434 122 340 122 m 322 -197 l 322 -131 l 682 -131 l 682 -197 l 322 -197 z "},"Ḕ":{"ha":768,"x_min":94,"x_max":674,"o":"m 492 1238 l 370 1238 l 163 1369 l 298 1369 l 492 1238 m 200 1118 l 200 1183 l 584 1183 l 584 1118 l 200 1118 m 674 125 l 674 0 l 94 0 l 94 1024 l 674 1024 l 674 899 l 245 899 l 245 576 l 597 576 l 597 451 l 245 451 l 245 125 l 674 125 z "},"ḕ":{"ha":900,"x_min":69,"x_max":831,"o":"m 543 1083 l 432 1083 l 249 1259 l 377 1259 l 543 1083 m 263 908 l 263 974 l 647 974 l 647 908 l 263 908 m 821 232 q 791 143 817 186 q 720 64 765 99 q 607 6 676 28 q 455 -15 538 -15 q 176 91 283 -15 q 69 367 69 198 q 177 643 69 537 q 456 749 285 749 q 729 644 626 749 q 831 370 831 538 q 828 316 831 334 l 219 316 q 296 165 233 219 q 460 111 358 111 q 612 147 559 111 q 671 232 665 183 l 821 232 m 457 624 q 301 574 363 624 q 222 433 238 523 l 674 433 q 611 570 667 516 q 457 624 555 624 z "},"Ḗ":{"ha":768,"x_min":94,"x_max":674,"o":"m 297 1238 l 491 1369 l 625 1369 l 419 1238 l 297 1238 m 200 1118 l 200 1183 l 584 1183 l 584 1118 l 200 1118 m 674 125 l 674 0 l 94 0 l 94 1024 l 674 1024 l 674 899 l 245 899 l 245 576 l 597 576 l 597 451 l 245 451 l 245 125 l 674 125 z "},"ḗ":{"ha":900,"x_min":69,"x_max":831,"o":"m 362 1085 l 527 1260 l 655 1260 l 472 1085 l 362 1085 m 263 908 l 263 974 l 647 974 l 647 908 l 263 908 m 821 232 q 791 143 817 186 q 720 64 765 99 q 607 6 676 28 q 455 -15 538 -15 q 176 91 283 -15 q 69 367 69 198 q 177 643 69 537 q 456 749 285 749 q 729 644 626 749 q 831 370 831 538 q 828 316 831 334 l 219 316 q 296 165 233 219 q 460 111 358 111 q 612 147 559 111 q 671 232 665 183 l 821 232 m 457 624 q 301 574 363 624 q 222 433 238 523 l 674 433 q 611 570 667 516 q 457 624 555 624 z "},"Ḝ":{"ha":768,"x_min":94,"x_max":674,"o":"m 215 1196 l 306 1196 q 330 1147 306 1167 q 392 1127 354 1127 q 456 1147 432 1127 q 479 1196 479 1167 l 572 1196 q 520 1102 572 1139 q 392 1065 469 1065 q 265 1102 316 1065 q 215 1196 215 1139 m 465 -63 q 534 -90 505 -63 q 563 -167 563 -117 q 513 -260 563 -228 q 392 -293 463 -293 q 316 -284 353 -293 q 263 -264 278 -274 l 294 -205 q 338 -224 309 -215 q 397 -233 366 -233 q 467 -215 440 -233 q 494 -164 494 -197 q 480 -124 494 -137 q 441 -111 465 -111 q 405 -118 423 -111 q 378 -137 387 -125 l 318 -119 l 367 0 l 94 0 l 94 1024 l 674 1024 l 674 899 l 245 899 l 245 576 l 597 576 l 597 451 l 245 451 l 245 125 l 674 125 l 674 0 l 435 0 l 401 -81 q 465 -63 429 -63 z "},"ḝ":{"ha":898,"x_min":69,"x_max":831,"o":"m 276 1038 l 367 1038 q 391 967 367 995 q 454 939 415 939 q 518 967 494 939 q 542 1038 542 994 l 633 1038 q 583 920 633 964 q 454 877 533 877 q 326 920 376 877 q 276 1038 276 964 m 523 -63 q 592 -90 563 -63 q 622 -167 622 -117 q 571 -260 622 -228 q 449 -293 521 -293 q 374 -284 411 -293 q 322 -264 336 -274 l 352 -205 q 455 -233 397 -233 q 524 -215 497 -233 q 551 -164 551 -197 q 538 -124 551 -137 q 499 -111 524 -111 q 463 -118 481 -111 q 437 -137 445 -125 l 374 -119 l 417 -14 q 165 103 260 -1 q 69 367 69 208 q 177 643 69 537 q 456 749 285 749 q 729 644 626 749 q 831 370 831 538 q 828 316 831 334 l 219 316 q 296 165 233 219 q 460 111 358 111 q 612 147 559 111 q 671 232 665 183 l 821 232 q 724 67 813 140 q 489 -15 636 -6 l 463 -77 q 523 -63 492 -63 m 457 624 q 301 574 363 624 q 222 433 238 523 l 674 433 q 611 570 667 516 q 457 624 555 624 z "},"Ḡ":{"ha":965,"x_min":66,"x_max":872,"o":"m 308 1118 l 308 1183 l 692 1183 l 692 1118 l 308 1118 m 488 -15 q 323 21 399 -15 q 189 123 247 57 q 99 288 132 188 q 66 510 66 388 q 100 733 66 633 q 192 899 133 833 q 331 1001 251 965 q 503 1038 410 1038 q 643 1015 580 1038 q 748 956 707 992 q 818 873 790 919 q 859 781 847 826 q 872 692 872 735 l 872 683 l 725 683 l 725 692 q 711 769 725 731 q 671 838 697 807 q 601 889 644 869 q 503 908 557 908 q 393 884 444 908 q 303 813 343 860 q 241 688 263 765 q 218 510 218 610 q 232 362 218 428 q 272 250 247 295 q 332 173 297 204 q 408 128 367 142 q 495 114 449 114 q 593 129 549 114 q 665 170 638 144 q 710 223 693 195 q 733 282 727 251 l 733 376 l 499 376 l 499 494 l 869 494 l 869 0 l 772 0 l 761 114 q 738 80 754 99 q 690 39 721 62 q 606 1 659 16 q 488 -15 552 -15 z "}}}
